<mxfile host="65bd71144e">
    <diagram id="DSKujXKeD6uoOkMUbGKy" name="Page-1">
        <mxGraphModel dx="912" dy="604" grid="1" gridSize="10" guides="1" tooltips="1" connect="1" arrows="1" fold="1" page="1" pageScale="1" pageWidth="827" pageHeight="1169" math="0" shadow="0">
            <root>
                <mxCell id="0"/>
                <mxCell id="1" parent="0"/>
                <mxCell id="2" value="" style="shape=image;verticalLabelPosition=bottom;labelBackgroundColor=default;verticalAlign=top;aspect=fixed;imageAspect=0;image=data:image/png,iVBORw0KGgoAAAANSUhEUgAAAggAAAHbCAYAAACuvmJ/AAAAAXNSR0IArs4c6QAAIABJREFUeF7snQeYU0XXx//J9t5gWXqv0jsIYgEpAiqCiAqCoNgRFFFRX7siWABBQFSayiciCFbAAoj0XpbeO9t7S/I9Z9aEZJNNnZu92T3zPDzvK9x7ZuY/k3t/98yZM5qs7BwDuLACrAArwAqwAqwAK2CmgIYBgecDK8AKsAKsACvACpRUgAGB5wQrwAqwAqwAK8AKWCnAgMCTghVgBVgBVoAVYAUYEHgOsAKsACvACrACrIBjBdiD4FgjvoIVYAVYAVaAFahwCjAgVLgh5w6zAqwAK8AKsAKOFWBAcKwRX8EKsAKsACvAClQ4BRgQKtyQc4dZAVaAFWAFWAHHCjAgONaIr2AFWAFWgBVgBSqcAgwIFW7IucOsACvACrACrIBjBRgQHGvEV7ACrAArwAqwAhVOAQaECjfk3GFWgBVgBVgBVsCxAgwIjjXiK1iBMlVAr9dDo9GIP+bFYPCNc9ZKtru0/pSpyFw5K8AKWCnAgMCTghVQsQL0Mj14YD+CgoLRqHFjU0uTk5KQkpICWDKD6nri5+ePGjVqIDAwULQtNzcX+/ftRaPGTRAdHa269nKDWAFW4LoCDAg8G1gBFStAPoL9+/YhLzcHbdq2Q0BAgGjtoYMHoNVqVdzy4qaRl6N6jZqIjIwU/01gs2/fPtzU4yYQPHBhBVgB9SrAgKDeseGWsQJCgXPnzuLSxYtodsMNCA+PEH+3a+cOhIaGql4hnU6HSpXjUaVKFdHWxMRDyMrMRIeOnVTfdm4gK1DRFWBAqOgzgPuvegVSU1PFMkOtWrVQOT4eSUlJSE1JMXkT1NwB8iDQMkndevVhMOixd89exMbFomnTZmpuNreNFWAFADAg8DRgBVSuQHZ2Nvbu2S2WFOhlS//r7+877nmChMLCQqGyn58fYuPi0LBhI5Wrzs1jBVgBBgSeA6yAyhXIycnBnt27fMJj4EhKgoWY2FgGBEdC8b+zAipQgAFBBYPATWAF7CnAgMDzgxVgBcpCAQaEslCd62QFXFCAAcEFsfhSVoAVkKYAA4I0KdkQK6CMAvYAgdb2KS7BWGgbZFltf3SmLbzEoMwcYausgBIKMCAooSrbZAUkKmAPEL777jscP37cVNvQoUNRv359ibU7Z4ogZfny5Th27Ji4ISgoCPfddx+qV69uYYABwTk9+SpWQA0KMCCoYRRstOFKVhqOpl5GbqAWhgB/1WfMkyGjLiMbiAiRYUq6DUNOPjShQdLsFh08C6RmOmWvoKAAZ06fFjsASpY///wT58+fN/31bbfdZvVSdqoSDy+iF/9ff/1lagt5Mnr27InKlStbAUJ4eDiqJCR4WCPf7qsKUOptAsiwsDDUrFkb1atXszm3fbV/5andDAgqGM3CoiKczUlFYnYStmVcwNak08gM851tbB5LqNMjb8N+6M5cQdjI2z02J9uA7nIq8lZtQdijfaWYzt94AJmzVgG660sDUgyzEVbABxWgLJvt27dHx06d0KZNW+EBM2be9MHulKsmMyCU8XDuvnIGsy/txDlNLjINhfCN43fkipa/6SCyZq9GcK+2qgME3dmrSH/rG/jFRyPqnZEed5zgIGveLzDkFXhsiw2wAuVNAcoOWqlSJQwfPgJD77sPwcHB5a2LPtUfBoQyGq6DqZfwzcW9+Kvwchm1QAXV6vXI+3sfsj77STQm5I6OqgIE3aUUZH60HEWnryCgUQ2PASF/w35kzfkZhsIiFYjPTWAF1K1AkyZN8Nhjj+PmW27xibTi6lbTvdYxILinm9t3Fel0mH/0X3xfcAY5hor9osjfnIismT+aXphqAgTd+WtIf30J9OnZYqw9BQThOZj7Mwz5xRkFubACrIBjBShjaOvWrfHprNmIjY11fANfIVUBBgSpcto3lpqXjVmnt+C3nLPQa1V+Tq+SuugNyPt7r8lzYKxKLYCgu5CMzE9WoOj0de+OJ4CQv3E/sub+4jYc0EOSdgmYb2dUcniUtk0BjEVFReKkRy6sgDMK1KlTBx98MBWt27Rx5nK+RpICDAiShHRkJrsoHxOPr8We3KQKsSPBnh75244g8+MfgCKdxWVqAATdhSSk/2+xyXNgbKC7gCACEmevtuqro/lC/x4SEoJbbrlF7EqgUxF37dqFPXv2OHOrKq+JiYlB3759QbsYaOvmP//8g9OnT6uyrdwo9SlAv4d5n89Hp058Eqi3RocBwQtKp+Xn4O2T6/Fv/hUv1KbiKgwG5P25R6zD2yplDQi0rJA5/UcLz4EngCCWFT7/BYZc1wMSIyIicNddd6FGjRoiopu8B3Sq44EDB/DHH3+YDj9S8WhbNK1mzZro168f4uPjxfY22rqZkpKCTZs2YefOneXGO+Ir4+Gr7aRjw6fPmIm2bdv6ahd8qt0MCAoPV5Feh9eOrMPf+ZcUrkn95gt2HkPGB98Betuu5bIEBApITH9lAfQZOTaFdNWDIDwHn64CzLIcujJC9DKltddGjRqB9o1ToVMdExMTsWrVKpw5c8YVc2V+7ejRo0FuYgIFY3+Sk5Nx+PBhfP3116JvXFgBZxQgT8Ivv/5WJvk+nGlfebqGAUHh0Vx9/gA+vLYTBZqKvd6at263CNKzV8oKEHTnriJzBnkOSvfwuAIIYrfCF7+Bkiu5Uygh0mOPPSb2g8fFxVmYOHr0KNasWYPt27e7Y7pM7omKisKoUaPQuHFjq2j0vXv34v/+7/9w4cKFMmkbV+qbCnTr1h2zZs8Wy3BclFOAAUE5bXExIxWDT/6oYA2+Ybpg9wlkvPutw8aWBSBQEqT0VxdAn2b/C9ZZQMj/5yAyp69w2Fd7F9De77FjxwpAoJereaE1+w0bNohlBl8pVatWxbBhw4Q3pOQD/eDBg1i5ciUIfLiwAq4o8P77UzDonntcuYWvdVEBBgQXBXP2cp1Bj3eO/S12LFTkkvfH7lJjDkrq4m1A0J25isxP7XsOjG10BhBEzAF5DrLzPBpyBgSP5OObK4gCFKez/IcVYumKizIKMCAooytSCnIweN93yKtAGZMtpDQYkL/zGDKnfOe0wt4EBBFz8MYS6JMznGqfXUCgvm4iz8FKp2w5usgICPXq1UN0dDR7EBwJxv9eYRUYPmIEXnnlVVNcS4UVQqGOMyAoJOxr+37FOn3F3bWQ98cekVLYlSA9bwFC0ZmryJqxEkVnrzo9+vYAQXgOvvwNhizPPAfGxtBxzY8++igaNmwo0s6aFzotcd26ddiyZYvTbS/rCwlyKAaB+kM7GMzLvn37RAyC+YFTZd1ert93FKhVqxZW/rhKbJ3lIl8BBgT5miI5NwsDjnyvgGUfMKk3IH/7EWROc73/3gAE8hxkvP0NdFfTXBLTJiAIz8Ehj2MObDWETkLs0KGDWLcnYKBCkf6HDh0Sa/a+9kIdPny4CFKknA7UH0qSRLsYjhw5wrsYXJqJfHFJBebMnYtbb72NhVFAAQYEBURdeW4/PkjeqYBl9ZsUeQ4+/9W9xEAKn8VQdOaKWAbQnbvmspC2AKHYc/A7DFm5LttzdIMxDwK9UOnriBIlZWRkgIL6yINAmQh9qVA+B0qSRPvYaQmF8iBQfyhZEuVB4KyKvjSa6mprmzZt8H/fLVNXo8pJaxgQJA8kbWacdmojVqSfkGxZ5eZ0euT/ewiZM9xfh1fSgyA8B+8uhe5yiltCWgACeQ5ot4IHfXWmERTx361bNyQkJIhEQvv37we55H21EBx07dpVJH6iTIq0VZMzKfrqaKqr3Zv+3YzKlSurq1HloDUMCJIHscigxzOHf8Ge/CTJltVtLnfNTuQsWOvRSYVKAYLwHHz8A+iMBXeLOSAo6Tmw1T46i4E8COXlK5vyPFB/uLACshSYO+9zkZaci1wFGBDk6okCvQ5D9v4frmlcT68ruSneMafTI2/99SObPalUCUAQnoMp34HOWPCkCEB4+yGveA48aSffywpURAVenjwZI0eOqohdV7TPDAiS5c3XF6HnjoXQBfpJtqxOc3lrdiJ74VoYCjxfE5cNCMJz8OFyECR4WggQgvt2QNYXv0rbreBpm/h+VoAVKFaA4IAggYtcBRgQ5OqJPF0Rbt2zCPArjjwvt6VIV3xk89xfpHVRJiAIz8EHy0AHMMkomrAgGLLdS50so362wQqwAqUrMHjIELzzzrucD0HyJGFAkCxoSm4W+leALY55a3chm2IOCgqlKSgLECjPQeYH37m8lVFaR9gQK8AKeFWBgXfeiQ8+mGraEuzVystxZQwIkgf3fFYq7j1ejs9f0OmQ9+fe4iRIkosMQKBdCplTv3cpCZLkbrA5VoAV8LICAwYMxNRp0xgQJOvOgCBZ0PIOCHS2Qjbt/ZcQc1BSek8BgTIj0lZGZ9MnSx56NscKsAJlpAADgjLCMyBI1rXcAgLtVqCDlygJkkLFE0AQnoNpy0GBiRWt0DZIOrCGkhFRvgQ6Ovns2bMoLJS3/GNPUzqSmk6epIROlPzo+PHjSEtzLVNlRRsz7q9cBRgQ5OpptMaAIFnX8goI+ZQhcf5vHuU5cCS1u4BAmRHT31zi8MhmR/X74r9TToHbb78dDRo0QExMjCnj4t69e8Wx0EoXgoJ7770XBAmhoaEiHXRKSgqWLVuGzMxMpatn+6yAUIABQZmJwIAgWddyBwjkOVi3S8CB0sUdQKDdCpkfLUfR6YrnOaDxIK/BwIEDxUFIsbGxYohSU1Nx9OhRLFy4ULywlSoajQbDhg0T3gP6Q/9NHgw6UCoxMRE//vij+G8urIDSCjAgKKMwA4JkXcsbIORTEqS5P8NQqHzmO1cBgbYwpr+2CPpM+WchSJ4Wiplr0aIFevXqhZYtW1ps8aJDnegFffjwYcXqJo/BmDFjxPIGeRCM5fLly+IQpm+//Ra5uRV3bBQTng1bKcCAoMykYECQrGu5AQS9HrSV0RueA+MQuAIIuovJyPzkBxSdqpieA6NmdNpjnz59BCAEBASIv6Y0xnSo09KlS0U8glIlMDAQjzzyCGrWrImqVauaqqH4B4pDIECgQ5m4sAJKK8CAoIzCDAiSdS0vgJC/cT8yZ60GdN5zETsLCJQ2Oe3VhTBUYM+BcdpGRUWJGAA60Im+5Mmlf+LECZw7d068oJV28Xfu3BldunQRddMhTBScSICwceNG7NixQ/Kvi82xArYVYEBQZmYwIEjW1ecBwWBA3u87kfWF8jEHJaV3BhB055PEKYpFpy5LHjnfNUdf8PSijo+PFwc6JSUlYdOmTYp6D4xqUdzBjTfeiCZNmohjnGlJgZY3Nm/e7LuCcst9TgEGBGWGjAFBsq6+Dgj5mw4hc/oKwEAHV3u3OAIECkhMm/wVew5sDAu9qOkPFYIEb5/8qNVeTy2utNfCu7OSa/MFBRgQlBklBgTJuvoyIOT9tqNMPAfGIbAHCLSVUXgOKuhuBcnTlM2xAuVKAQYEZYaTAUGyrr4KCAWbDyHjox8kq+GaudIAgZIgpb+yEPp05bbsudZSvpoVYAXUpAADgjKjwYAgWVdfBISy9hzY8yBQ+uSsmT+y50DyPGVzrEB5UoABQZnRZECQrKtPAYLegPzNh5D5yQrJKrhnrqQHgWIO0l9fDH0KZ+RzSlE/P2j8tdAEB0IbGyH+VxNcvPVRkaI3QJ+TD0N6NvRZuUChDoYiXZnEryjSPzbqMwowICgzVAwIknX1JUAQnoMvf1fNA90cEITnYPpKPpXR0fzUaOBfszICb2wG/7pV4ZcQI/7gv4BFR7dL+Xe9AYb8AjFW+kupyN91DIW7T8CQxzkQpOjLRhwqwIDgUCK3LmBAcEu20m/yCUDQ6yF2K8xYKbn3npkzAoLwHLz1NfTX0j0zWJ7v1mqgjYtE2P23IujGZt4FAid01adliyPBC/efYlBwQi++xDMFGBA806+0uxkQJOvqC4CQ9/sOZH21xqtJkJyRmQAh6JbWYpsl7VrgYlsBWjYIHXYLgm5qAW14iHpl0htQePQ8cr7+E4WHz6m3ndwyn1eAAUGZIWRAkKyrqgFBp0f+PweQ+ekqyb2WYy6ocxMRjKi7nCrHYDm0QssHEc/dA/86CT7TO4pLyFm4FrnrdgMUo8CFFZCsAAOCZEH/M8eAIFlXNQMCZUjMXrjGKwcvuSMrBdXxunXpygU0q4Xwx/rDr2rxqY2+VAwFRSDPVfaidb7UbG6rjyjAgKDMQDEgSNZVlYBARzZv2Ies2T9J7i2b85YCftXiEPnyMPhVifZWlYrUk7NsI3KWb1Td8pYinWWjXlOAAUEZqRkQJOuqRkDIW0Oeg7WgrzguvqeAJiQIUf97EP71r5+YaK8XdIhV0bmr0KdmQZ+Ro1iHNQF+8EuIhTYqDH41KztVD3mIMqevRMGOo05dzxexAs4owIDgjEquX8OA4Lpmdu9QFSAU6ZC3fh+y5vwsuZdszmsK+GkR/nAfBN/e1m6Vhpx8EQhIMFiw67jXt65SbERw7/YI6tQE2kqRdndVEMCkvvgF9FfTvCYjV1S+FWBAUGZ8GRAk66omQMhbtwvZX61hz4HkMfamOb9a8Yh+cwQ0YcGlVqtPyULGtGUoOnER0Hv/kC1TwzQaAQchA7sgpE97uzLl/3MQmbNXieRKXFgBTxVgQPBUQdv3MyBI1lUVgKDTIe+vfciay54DycPrXXNaDSJfuBeB7RqWWm/hwTPImLoMhuw877bNQW0hd3RC6NCbQMsjtgq1N/21RZwIS1Wj5ruNYUBQZuwYECTrqgZAyPtzD7K/+I09B5LH1tvm/BvXEN4DmB2lbN4GXVI60id9oWicgdt91moQOrg7QofcVKqJvDW7kPX5L25XwTeyAkYFGBCUmQsMCJJ1LVNAoN0Kf+xG1ue/Su4VmysLBcIe6oWQ/p1K/wJ/fbG6D7Hy0yJy0lAEtqlvuw95BUh9ahaf0lkWk6uc1cmAoMyAMiBI1rUsASHvr73I/vxXGAp5t4LkYfW6OcoJIXYuNKhms+78LYeR+fEPgF7v9ba5UqF/7SqIohiKUNtLDbSjgZJ3cWEFPFGAAcET9Uq/lwFBsq5lAgjkOVi3G1nz2XMgeTjLzJw2OhzRHz4KbWSozTakT14g0hiXVihvgn+dKjAYAN3ZK9BdTJG2s4ECJgMaVoMmMhQUIFl0/GKpCa40gf4if0PADbVtNjX3l20ikJYLK+CJAgwInqjHgKCMejaslgUg5G/Yh8zPfuY0tl4bZeUrovwCMTMet7ldUHchCanj55b6wg/q2gxhY/pC+9/OB0NuPrK++h356/d73HBNUIB44fs3rC6OlqY0yoV7TiBj2vJSvRmh995UaixCwY5jYgcGdOr2hHgsHBtQVAEGBGXkZQ+CZF29Cgh6PfLW7kLW/N8k94LNlbUCQR2bIGLiYJvNyPt7L7Jmrbb5b/51E4pd+sGBFv+uT89G2sTPRfIkt4ufHyKevRt0ZkbJkrt6C7IXrwNs7LIMaFpLtMlWKTp2Aelvfs0ptt0eFL6RFGBAUGYeMCBI1tWbgGA6eIm/viSPYtmbC+nZBmFj77DZkJzvNyLn/9bb/Lfg3u0QProvoLH+ZzoHgV7k7ha/+GhET3sUmhBL+CB75KVIeWImDFnW2y39qsYVe0NslKJTl5H++mJQoicurIC7CjAguKuc/fsYECTr6hVA0BuQt3Ynew4kj52azFGiobDRfWwDwncbkLNsg81/C+nXAWGjetu+b+n64nMQ3Cx0SFT0B2OsvBMCEGhHwhMzoc/MtbKurRyF2NlP2waEM1dFPgRDjrryOLgpEd9WRgowICgjPAOCZF29AQj5mxOLI9gpAo1LuVQg6MYbhDvfVsn9bYfIc2GrBLSqh6gXhwL+fhb/bNDpkfb8POjOJ7mvV4AfYj4ca/M0ycIDp5H+xhLbbWpUHVHvjLINCCcuivsMuQXut4vvrPAKMCAoMwUYECTrqiggGIBcOjK3lJeD5K6wuTJUwL9eVURPGW2zBbpz15A6Ya7Nf9ME+CN02M3iXATaQSBKkQ45q7cg55u/PO4RtSti3F2gXRLGQimeM6Z9D31Shk371JbwMba9IYV7TyJjyne8NdfjkanYBhgQlBl/BgTJuioGCAYD8rcdQea07yW3mM2pUQFtbARiPh4LTajtMxhSnvgU+mulH3bk36gGQu/pBkN+AXJXbRFbEWUVTXgIQu7sioC6VUCpnmmroiG/0LZ5rRaRzw9GYIdGNv89/99DyPxkBXvDZA1OBbXDgKDMwDMgSNZVKUCw51aW3AU2pwIFKLFQ1OvDQbsSbJXiXQN/qP7FqqXAxrceAgGPrULeMJrbXFgBTxRgQPBEvdLvZUCQrKt0QNAbkL81EZkf/SC5pWxO1QpoNYh4ciCCbmphs5l0VHLa/xaV6tZXRd80GoQ9cCtC7uxiuzkGIPWZWdBdTlVFc7kRvqsAA4IyY8eAIFlX2YCQ+9t2ZH+5RvVfipJlZHOAcMvTaY42i8EASjKU+ckP6jyUSwMEdWuO8McHQBNgGTBp7A/FH6S//Q2PNSvgsQIMCB5LaNMAA4JkXaUBgl6P/H8TkTl9heQWsjlfUUDj74foqY/Ar0alUptMh3Nlf/m7uiBBo4FfnSqIeuk+aGPCbfNNkQ4Zry1C4bELvjIc3E4VK8CAoMzgMCBI1lUWIIjdCpSjnpMgSR4h3zJHXoSI8YNAuxNsliIdCvacECd46lMyy75zGg2Cb2+L0Ht7lHqOBDWSghsz3ltaenBj2feEW+BDCjAgKDNYDAiSdfUYEOjgpU0HkTXzR8ktY3O+qIA4++D5wQhobfvIZGOfDFm5yFr8Bwp3Hwf9f0Ohznvd1WhEdkU6PyLsvh4IaNPAbt102mjG+9+hcN9J77WRayrXCjAgKDO8DAiSdfUUEPLW7EQWeQ6KvPiAl6wBm5OrgF/1OES9MQLaqDCHhvXX0kXQny45QwQwKpqhUKuFX2wEtJUioY2LFEshBDR2i94AkfL5560O+8IXsALOKsCA4KxSrl3HgOCaXg6vdhsQdDrkbTxQ6iE8DivmC8q1AgEt6yFywiDQUcu+XAq2JCLz01W8tODLg6jCtjMgKDMoDAiSdXUXEOhUxuyvfveua1hy39mcggpotQju0UKcz+DwK13BZrht2gDkbz+CrM9W2zzQyW27fCMrwKc5KjYHGBAkS+syIBTpkLdhP7I++0lyS9hceVQgsH0jhD/ar9TdAWrss4ECKTcfEoeL8amNahwh328TexCUGUMGBMm6ugoIeet2iTwHFLjFhRVwqIBGA/+alRE28nYENK8NaGyc6+zQiPcuICDI+uI3FGxO5DnuPdkrXE0MCMoMOQOCZF2dBgTyHKzfh6w5P0tuAZurCApoAgMQ3Lsdgm9uWZwnQatVVbf1GTko3H8a2QvXQp+qgu2XqlKHGyNbAQYE2YoW22NAkKyrs4CQ9+ceZJPLlT0HkkegYpnTRoTAv04CQgbdiIBmtcocFPRpWcj9ZTsKNh0UOyk4j0fFmo9l1VsGBGWUZ0CQrKtDQKA8B3/uQda8XyTXzOYqugKUTCmgdT34160KTXgwyMug8dMqtgxh0OvFdlxDbgF0Sekir4HuQnJFHwbufxkowICgjOgMCJJ1dQQI+X/vE3DAngPJwrM5VoAVqLAKMCAoM/QMCJJ1LRUQyHPwx26REpcLK8AKsAKsgDwFGBDkaWluiQFBsq6lAUL+xv3InP0TZ0iUrDebYwVYAVaAAUGZOcCAIFlXK0DQ60FJkGgPOBdWgBVgBVgB+QowIMjXlCwyIEjWtSQg5P97EJnTfwQooIsLK8AKsAKsgHQFGBCkSyoMMiBI1tUECHoDxMFLX7DnQLLEbI4VYAVYAQsFGBCUmRAMCJJ1NQJCwbbDyJj6vWTrbI4VYAVYAVagpAIMCMrMCQYEybqez0zBwFmvsedAsq5sjhVgBViB0hRgQFBmbjAgSNb1YvI13Ny5i2SrbI4VYAVYAVaAAcG7c4ABQbLeKSkp6Nypo2SrbI4VYAVYAVaAAcG7c4ABQbLeDAiSBVWJucDAQAQEBFi0xmAwIDc3F/S/Mou/vz+CgoKsTFJdegV2w4SFhVnVlZ+fj6Ii+SeMUr+of+ZFp9MhLy9PpoTCVmk65uTkSB8z6Y1ngy4pwEsMLsnl9MUMCE5L5dyFDAjO6eRrVw0ZMgS9evWyaHZycjJef/110MtUZmnTpg0ef/xxC5PZ2dmYNm0aLly4ILMqaDQazJ0718om/d3OnTul1kXGRo0ahS5dLJfgDh06hE8++UR6Xe3atcPYsWOt7E6aNAmpqanS62ODZacAA4Iy2jMgSNaVAUGyoCox98ADD6Bfv34WrUlKSsILL7wgHRDat2+P8ePHW9SVlZWFt99+G+fOnZOqCAHCkiVLrGxOnz4d27Ztk1oXGXvsscfQvXt3C7v79u3DlClTpNfVqVMnPP300wKCzAv9Hf1OuZQfBRgQlBlLBgTJujIgSBZUJeYYEOQMBAOCHB3ZiqUCDAjKzAgGBMm6MiBIFlQl5hgQ5AwEA4IcHdkKA4I35gADgmSVGRAkC6oScwwIcgaCAUGOjmyFAcEbc4ABQbLKDAiSBVWJuSeeeAK0pm1eMjIyRJAiBSvKLH369MGwYcMsTNKOAlqnP3r0qMyqkJCQYHP9f+XKlVixYoXUusjYa6+9hvr161vYTU9PxzPPPCO9LooZGTp0qJXdN998EydOnJBeHxssOwV4iUEZ7RkQJOvKgCBZUJWYmzx5MujFbV4IDMaMGQMKVpRZBg0aZBWkSDslxo0bh4MHD8qsSgDCsmXLrGzSLgZbwYueVj5z5ky0bt3awsylS5fEi1z2dlHaeWILPEaPHi0dtDzVhe/3TAEGBM/0K+1uBgTJujIgSBZUJeYYEOQMBAOCHB3ZiqUCDAjKzAgGBMm6MiBIFlQl5hgQ5AwEA4IcHdkKA4I35gADgmSVGRAkC6oScwwIcgaCAUGOjmyFAcHLbZNnAAAgAElEQVQbc4ABQbLKDAiSBVWJOQYEOQPBgCBHR7bCgOCNOcCAIFllBgTJgqrE3JNPPomePXtatIbGesKECaAofJmF6qH6zAudVfDqq6/i+PHjMqtCdHQ0vvrqKyub8+fPx88//yy1LjJGuxgolbR5OXv2rAjAlF0oqNRWqmUKXJSdkVJ229meawpwDIJrejl7NQOCs0o5eR0DgpNC+dhlnAdBzoBxHgQ5OrIV9iB4Yw4wIEhWmQFBsqAqMceAIGcgGBDk6MhWGBC8MQcYECSrzIAgWVCVmGNAkDMQDAhydCwTKxpAExoMjb9WavUGvQGGzFyPbPISg0fylXozA4JkXRkQJAuqEnMMCHIGggFBjo5lYUUTHIioV+6Hf+Ma8qov1CHry9+Rt26XRzYZEDySjwFBGfmsrTIgeEtp79YzePBg9OrVy6JSyqT4xhtvSD/umTINPv744xZ10XHPH330ES5cuCC143QU8pw5c6xsUibFXbs8e2jbaujIkSPRpUsXi3+i7JAzZsyQ2i8y1q5dOzzyyCNWxz1PmjQJaWlp0usr7walA4LegIxPVqBgSyJgMHgkHwOCR/IxICgjHwOCt3TlelgBVqBsFTACgl/NSsj5vw3Qp2ebGqQJCoA2IQbBvdpCGx7iuKF6PbLm/4a8tXIglAHBseTuXMFLDO6oZuce9iBIFpTNsQKsgCoUMAKCtlIk0l76EvrULKt2Bd/SCuFPDLDfXvIcfLwcBVsOS+sXA4I0KS0MMSBI1pUBQbKgbI4VYAVUoUBJQIABiHjmLmhjwkUMQe7P2wA/LeIWPA+61mbRG5A1/1dpngNjHQwIykwRBgTJujIgSBaUzbECrIAqFCgJCJrAAES9MxLaqDDozl5D6nNzBRjEfjkBmgB/6zYX6ZA5YyXyNydK7w8DgnRJhUEGBMm6MiBIFpTNsQKsgCoUKAkIhrwCBN3cCprgABQeOI2iE5cQ/lh/0DKDVTF6Dmi3gmfxiDa1YEBQZoowIEjWlQFBsqBsjhVgBVShgFUMQkYO/KvFAcGB0F9NE0GLIf06Imzk7YDmepMNBUXI+mw18v85qFg/GBCUkZYBQbKuDAiSBWVzrAAroAoFrJcY/BH19ihoo8OgT0pH+muLoEvORPT7D8O/bkJxmw0GZM37BXl/7gH0CrgO/lOGAUGZKcKAIFlXBgTJgrI5VoAVUIUC9mIQ6OVPOxuKTl5C5MTBCOzYBIb8QgEH+Rv2K95+BgRlJGZAkKwrA4JkQdkcK8AKqEIBqxiEQh3CH+oJTVQYCrYeQd5fe6Dx80PM7KdE4GKx52AvoNcr3n4GBGUkZkCQrCsDgmRBVWLOz88PWq1lDnqDwYCioiLpLaR6qD7zQnXpdDrQ/8ouAQEBViapLr0CD/ay1pE6SmOmhI6yx0Vt9kyAUDkK6a8sgC4l06KJ2rBgEX8Q2LERsj//DXnr93mtCwwIykjNgCBZVwYEyYKqxFzPnj3RqVMni9ZkZGSAUhIXFBRIbWXjxo1BqZ3NS25uLpYsWYKrV69KrYtSLb/88stWNn/44QckJsrfjjZw4EC0aNHCor6TJ0/i22+/ldovMta0aVMMGjTIyi6ldc7MtHy5Sa+8HBo0ZVKsXxVFxy4ABWZwrNEIT4J/jThkERz8vRfQKe85MMrMgKDMhGNAkKwrA4JkQVVijg9rkjMQfFiTHB3Lwoqjsxho22P2F78Xw4GXCwOCMoIzIEjWlQFBsqAqMceAIGcgGBDk6FgWVuwCAu1WmPMT8tbv96rngD0Iys4EBgTJ+jIgSBZUJeYYEOQMBAOCHB3LwkppgCA8B1/9XhyQWEaFPQjKCM+AIFlXBgTJgqrEHAOCnIFgQJCjY1lYsQkI5Dn47Cfk0VZGL8YclOw/A4IyM4IBQbKuDAiSBVWJuUceeQS9evWyaA2N9cSJE6UHvPXo0QNPPvmkRV0UpPjGG2+AAvpklvDwcHz55ZdWJj///HOsXbtWZlXC1gsvvID27dtb2KU+vfjii9LruvXWW0FAUrI8++yzuHjxovT6yrvBkoAgPAcL1iDvjz1l3nUGBGWGgAFBsq4MCJIFVYm5yZMno0+fPhatSU5OxpgxY5CUlCS1lRR5P378eAub+fn5GDduHA4elJuuNiEhAcuWLbNqP+3OoF0TssvMmTPRunVrC7OXLl3C0KFDpW89HDJkCJ555hmrLowePRpHjx6V3bVyb88CEITnYDXyNhwoU8+BUXQGBGWmHwOCZF0ZECQLqhJzDAhyBoIBQY6OZWHFtM2xTjyyF6xF3rrdZdEMm3UyICgzFAwIknVlQJAsqErMMSDIGQgGBDk6loUVAQiThyF37a7ig5cUSKTlbr8YENxVzv59DAiSdWVAkCyoSswxIMgZCAYEOTqWiRV/P/jXrYKiY+qL32BAUGZGMCBI1pUBQbKgKjHHgCBnIBgQ5OjIViwVYEBQZkYwIEjWVUlACAoKQkxMjM0zAXJycpCenu5Rb8h+XFycTRt5eXlIS0tTJD+/R4320s1PP/00brrpJovaSI9JkyaBxlxm6du3Lx5++GELk5TOmXYxyA6ui4+Px6xZs6ya/80332DFihUyuyVsvfnmmyIFsnmh9NEld23IqLh///546KGHrEzRTopTp07JqMLnbISGhiIqKgqUYrtkofTTnqagpmdIdHS01VkiVBftxElNTVVEMwYERWQFA4JkXZUCBAKD77//3uYPm7pAh898/PHH+Omnn9zqET0wpk6dirZt29q8nw7umTdvHr777ju37Pv6TZQHgV7c5oV2L9D2PIInmYW2AdJWPPOSlZWFd955B+fOnZNZlYDNRYsWWdmkL/2tW7dKrYuM0bbDbt26Wdg9cOAA3n//fel10dkZBHYlC+1skA110huvgEGCg9WrV9t9hhDArV+/3q3aIyMj8emnn6JGjRo276dn1LRp0/Drr7+6Zd/eTQwI0iUVBhkQJOuqFCD07t0br7zyit3WHj58GGPHjnXrK59eFH/99ZeVd8K8wmPHjll92UqWT7XmOFGSnKHhRElydHTHCm0lfeqpp+zeSgDxwQcfuGNeHMJFHynkRSitkAeBDuySXRgQZCtabI8BQbKuSgECfb06SiZDCWcooY87RxAbAcGeHLRf/b777pOsmG+YY0CQM04MCHJ0dMfKiBEjQDkg7JVffvkFU6ZMcce8yG9BHgJbx4cbDZIn7I477nDLvr2bGBCkS8qAoISkSgEC/ej8/f3tNplceJ64u0NCQuza1+l00o82VmIMlLDJgCBHVQYEOTq6Y4W+7OlDwF6hj4vCwkJ3zIu4g8DAQMXsMyC4NSwe3cQeBI/ks76ZXGidOnaQZrVu3bp48cWXUK9e3VLXDqVV5oQhApD58+djzZo1oMDIilKGDRtmM5PiSy+9BMpyKLO0a9fOKgMgfXm99957OH/+vMyqxJxasGCBlU1aS96+fbvUusgYebhsxSBQ/Ivs0qFDB5sudYrvUCpYTnYfPLVHQFCvXj2R4pr+Vw0lOzsbFOOyadMmEbgoowwYOBBTp05zCEAy6qpINhgQJI+2TA9Cv379MGHCBLtrepKb77S5xMREEcFfUR60FO0fGxtroQ99aVE0PAVwyix0PkLJQC/y3pw9e1Y6jFC7mzRpYtV8OqsgIyNDZreErapVq4ooevNCLwzZwZdkPyIiAtWrV7fqw4kTJ9z+SpYuiMIGKd00eW0cfdkr3Ayb5glAn3vuOSkptnmJQZkRZECQrKssQAgLC8Py5ctB/0uFvtyvXLmCzOxsxERFo0qVeIdLDjK6lpWVjUuXL4sXU0JCFfGS1P63RYq+SjZv3iyjGrbBCrACkhWgJcm1a9fB399PWKav9cuXryA7JxuV4uJQuXJlm9sRJTcD6ekZuHL1CghyE6pUEYBoXOogQNi2bZvHVTIgeCyhTQMMCJJ1lQUIderWxfzPPxfeA3Llz5g1G4mHj4jWklv4xi5dMHrUQ4q61Pbu3YfF3y7FtWvXRL1hoaHo17cP+va+XTxY6DAfOtSHCyvACqhPgZo1a4LyWVC5fOUK5n4+HydPnRb/TR6Fbl274MH7hykKCdt27MDS75YhObk4V0hoSAjuGzoEPbp3F//92WefmdroiYIMCJ6oV/q9DAiSdZUFCHXr1cPn8+YJQJg9Zy62bt9h1dJHRz+MG7t2kdyDYnOUmGfKhx/h+PETFvbDw8Lw4gvPo2aNGvh26VLMtpFkR5EGsVFWgBVwSYE6depg8eLF4p55X3yJTf9ae/vGPjIaXTt3dsmusxfT8uOrr7+JzKwsi1uio6Pw0QdTBJjMmTMHX3/9tbMmS72OAcFjCW0aYECQrKtsQCBX3FPjxiPPRiBcqxYtMOFZ6+NsZXSJguJenPyq1Y+bvBfPPv0UWrdqyYAgQ2i2wQoopIA5IIyb8DzSbGRa7XnbrRh+/zBFWnD4yFF8+Ml0mzufXn/1FdStU5sBQRHl5RllQJCnpbAkGxBoe+O45ybaDBjr0rkTHntkjOQeFJvLzsnB5NdetwpC9PPT4vnxz6JZ06YMCIooz0ZZATkKmAMCwT7FEpUs/fv1xZB7BsmpsISVkydP4f1pH1oF1tJHz5R33gIF/rIHQRHppRllQJAmZbEh2YBASwxbtm7D3PlfWETLh4aG4OUXXkDNmrbTmhq7RUsFOTm5SElNha6oCGHh4YiOikRwcLDd+AUKKPpywSL88++/FgpVq1oVL058HlFRkQwIkucOm2MFZCpgDghr1v2Bb//vO4tnCAUx/u+Vl1GrZk271VKAMn0wpKamQafXISI8QjxDgugZYuNMB6Mx2uXz4SczkHj4sIX9Zk2bYNLzz4m/Y0CQOeLybTEgSNZUCUCgJq7+6Wds+GcTcnJzQWt4d/bvj44d2ttsPUUrX7x0Gdt37MCx4yeEi4+24lEiJaJ3WvuLjIxApw7t0ahhI8TFxdoMVKLtZwsWLxFxCJRAhSKQhz94v+mBwjEIkicPm2MFJCpgDgj0DFi+YiV27tqN3Lw88Zu/f+i9aNK4sc0a6bd/4dIlbNu2HcdPnBQ7EMQzBBBQQM8Q+kjofmNX1K1TF7Gx1ofIkWH6OPniqwU4fuKEuLdqQhUMf+AB1KhejQFB4lgrZYoBQbKySgECvdxpuxDtaIiMigQFC5YsdA3R+sZN/+Lc+Qugw4Toh00vd+NefYohIEigpQvKnFitWjU0atAAd/TtbTNFKt1HEchFuiLExcYhMDDAVC0DguTJw+ZYAYkKmAOC0SwFDtJHRkx0NOjwJlvPkP0HDuLfLVtw5uw5cYIreQLoGULPFyrmzxDa2US5Jpo2boRePW+z+Qyhe4t3MRhQqVIli48R9iBIHHAFTDEgSBZVKUBw1Mz8ggJs3bodf61fj2tJSU4f20o/9vjKlVG1agIGD7pb7E5wtjAgOKsUX8cKeF8BW4BgrxXkZfhr/Qax2yE5JQUUqOxMoY8NevE3qFcPAwfcIZ4nzhYGBGeVKpvrGBAk614WgECE/vuatWIr5MVLl1zOEkeQQDEJTRo3wr2D7wHFGThTKhIgdO7cGS1btrSQJTMzUxzB7W7u+tI0pvTavXr1svhnWgemk/ZkH1NMY0/pj0uWdevWgQ7/kl1uueUWNGzY0MIspY+mQ4JkF0ot3LNnTyuztK2OXOjlvbgCCDS/VqxchX0HDoicCeR5dKXQPKLjnuvVrYP7hgwRSdWcKQwIzqhUdtcwIEjW3tuAQG4/CmL8be1anD17zqO0v/QDr1O7Nh4a/oDItOaoVCRA4MOaHM0G5/6dD2tyTicZV7kCCH/9vR5//PU3Lly86NEzJCYmBjc0bYr777vXlAXWXl8YEGSMtHI2GBAka+ttQCAoWPT1Nzhz9qyUkxYplfLNN3XHnQP6O1SGASFJHIIj+7Cm9u3bY/z48Rb6k7v37bffln5mAX35UUbMkmX69OlSUuCWtMuA4PBnJe0CZwHh9NmzWLT4a5w+c8Zlz4GtxlauVAk333QT+t/R12FfGBAcSlSmFzAgSJbfm4BAbsAfVv6If7dsleZ6phdGnTq1MWbkSNSoYX3QjblcDAgMCK7+fBgQXFXM/eudAQSC268WLhbBzbYSKblTO8Uk1KheHaNGDEft2rXsmmBAcEdh793DgCBZa28CAq2Bz5w9B0ePHZNyIppRCjpMpX3bthj+wDC7R0wzIDAguPrzYUBwVTH3r3cGEE6cPIWvv12Kk6dOSX2GxMXGokeP7hjQr5/dfCsMCO6PrzfuZECQrLIjQKAvdEpQYr5tyFYTzM9iKK2JmzZvwYofV5kOU5LVFfoCaNSwIR4eOcJuLEJFAoQRI0agR48eFhLTlrHXX3/d6WhvZ8ena9euGD16tMXllNti6tSpOHPmjLNmnLqOTgudMWOG1bULFy7Ehg0bnLLhykVPPfUU2rRpY3HL6dOn8dZbb7lixqlru3XrhlGjRlldO3nyZFy2kVXQKaM+dJEzgPDHn3/hp19/k+aBNMpDz7j27drh4YeG2z2u3hlAIFsUa2UvcJLPYlBmYjIgSNbVHiBQ3oHP53+Bxo0bg86kf/yxx5CaWnzKWcniDCDM/3IBdu3Zo0hEdu1atYQHoWGDBqUqVJEA4aWXXkLv3r0ttEhOTsbYsWNFvgmZ5e6778a4ceMsTNJx3xMmTMChQ4dkVoWEhAQsXbrUyua8efOknLJX0jDFNrRq1criry9duoT7779f6hcsVTB48GAQkJQsjz76KI4ePSpVRzUacwYQaHmBsqXSB4vsUq9OHUx4dhwiIsJLNe0IEO686y68/PJksVNowvhnS42LYUCQPXrF9hgQJOtaGiDQl9rcefPQsWMnU4379u3DiOEPiuRHrgIC0fT7Uz8UQWuUGU12qRIfj/vuHYK2bVozIACgr84+ffpYAcKYMWOkA8KgQYOsghRprZig4eDBg1KHmgBh2bJlVjbpGG9bwYueVj5z5ky0bm05pwgQhg4dKh0QhgwZgmeesT7MjLwzDAjFI/nBhx/j8OEjIoWy7FKlSjzGjh6N+vXruQwI5Gl96KGReHnyZNO95EUY++ij+Pvvv6zsMSDIHj0GBEUULQ0QiOZXrf5J5BswL2PGjMaG9etdBgSCimkfT8e58+el7F4o2YDo6GjcO3gQbuxS+nHSFcmDwIAg5+fCgCBHR2esOONBeP2td8QOKGOmVWfsOntNXFycOCmyTWtLj5H5/aV5ECjL44KFi6xg8o8//sATjz9mBZMMCM6OimvXsQfBNb0cXl0aINSqVQs/rlpttTeYPAhbtmxxGRAoQPHjGZ8qBgi0n3nQnQNxU/du7EFgD4LDee/sBQwIzirl+XXOAML/3nwbZ895lj+ltJYSINw35B507NDBZQ8CfUh9+dUC0JZf80IJtWipoSTQMCB4Pl9sWWBAkKxraYBApzLOmTMXN3a7/sLdsWM77h9m+yx2RzEIlBaVlhgocyIFsMkulC6VUi936lj6j5s9CMngJQbXZh4Dgmt6eXK1M4Dw9ntTRMZMnV7vSVU276XD3R68/z60aN7cZUCgG+4ZPBjvvvueaScVQcED99+PnTt3WNljQJA+fMIgA4JkXe0FKVaOj8fAAQNQp25dHDt2HL/8/FOp69eOAIGCimZ8OhsnTp5ElgJpY+vWro277hyA1iUCyszlqkiAQEGKt99+u8VsoSBF2rYnO0jxrrvusgpSpBgEpYIUv/32W6tfweeff65IkOInn3xSapCi5J+iCFJ88sknrcxSkOKxY8dkV6c6e84AwvSZs3Dg0CFFlikpKyvthKKA59KKvSBFikO4vXdvdOjQQcRp/fPPP9i2datNUwwIykw/BgTJujra5uhsdY4AgQJ2lnz9DfbuPyAOZ5JZaJtj/Xr1MOSeu9Ggfv1STVckQOBUy3JmGOdBkKOjM1acAYTFS77Gnn37kZSc7IxJp6+h46CbN2smPAjx8fFuAYLTlQFgQHBFLeevZUBwXiunrvQWIFBjNmzYiA2b/hVbJvX/HcXqVCMdXETxBw3q1RUHN9n7cTMgcKIkV+cbA4Krirl/vTOA8Meff2LTlm2gXBSuHtBkr2X03GjSsAHuH3afOFbeHQ+CKz1nQHBFLeevZUBwXiunrvQmIBw/fhy/r/0DJ0+fQlKSnC8ArVaLWjVron3b1rjl5psRHl76HmYGBAYEp34UZhcxILiqmPvXOwMIlGL5l19/F8HOqWlp7ldmdmdgYKA4Nr5Lpw7iGUKJjhgQpEjrdSMMCJIl9yYg0JG19AWw/+AhnDl7TsqhQRRYVL9eXbRu2UJEEBMwlFYYEBgQXP35MCC4qpj71zsDCNeuXcPmzZux98AhcViTjIRJlEOlcaOG6NShPW644Qa76dodJUpytvfsQXBWKdeuY0BwTS+HV3sTECiql5ItHTyUiGMnTortSp64CaOjolC9ejU0b9YUXTp3Bi012CsVDRD69rU8nY6CEydNmiQFzMx1JjB79tlnLaSn0xzfeecdRU5zXLx4sdUwU/rlbdu2OZzvrl5AmSe7d+9ucdv+/fsxZcoUV005vL5jx442EyU9/fTToDTZ5b04AwgEBDTOR44dw+mz58X8cvcZQkGFsTExqFmzBpo1biQ+MGiro73CgKDuWciAIHl8vAkI1PS0tDTs2LFDeBBOnz2Hy1euuBWRTIerUOazpo0aicxnRP6OSkUChJo1a6JKlSoWktBW0wMHDkhPMkNgVr9EcCg9yI8cOaLIltaSe82pkxTXosRLtG7dulYvjYyMDEUyG9LR5fXqWWfx27t3r0jdW96LM4BgfIZs27Ydp86cwbnzF3Dh4kWX57QGQKVKlRAfX1nAQYMGDdCkSROHEjMgOJSoTC9gQJAsv7cBgZpP+5gpyOj0mbO4fPUaLly4gJzcXIc/cvpR+wcECOont2D9+nURGx2Ntm3b2o09MEpWkQBB8jRhc6yA4go4CwjUENr2efbsWZw6cxZXrlzFxcuXxRkvtFvKUaEcL5Xi4gQcNG5QX3ge27VrB9oN5agwIDhSqGz/nQFBsv5KAgLthacvSQoCMv/x0VIDfclevXoV2Tk5oCNcU9LSQQf80FdgyXVFcgWGBAeLHzJFGNesUQ0J8fEiDTSdtEfHPRsLPSDIDtURHBICP7OYBAYEyZOHzbECEhWwBQh5/z1DgoOCLIIHyaNCnhUKVCQwOHHqNFJS05CbkyP+jp4D5rBAsUl0vkxERAQiwsPFM6RyXCUEBgaIDwxK1W4s9OygZwgVesaYxzUxIEgccAVMMSBIFlUJQNDp9Pjp55/xw4+rRGuJ2EeOeBBdO3e2eJHTQT4UdERriClpabh2LUkc5FRQUAhdUZF4yZPHgKKKg4MCQfnOa9esAdqzTDbJJUhuQmNJSU3Ft0u/w/adO8XDgSKTxzw8CrVr1RSBRwwIkicPm2MFJCpgDgiUbZWOhv997TpRA73AR48aiRY3NLMIIqSYJoqtod/71aQkJCWnID8vHwWFhaYj6un5YXyGREVGompCFfHf9LHRvHlzREZGmnqRnJKChYuXYN/+A6ZnyNhHRotnCRUGBIkDroApBgTJoioBCL/8tgbf//CDRfAQvdBfeH4CGpitsRIAUP3kTTAGGtGXAQGC3kCpVGlRwSB+zEGBgSaSp7V1WvM2369MXoe587/Atu2WaU1pl8MLz40X68gMCJInD5tjBSQqYA4IP/3yC5av+NFi2ZGeIc9PeBaNzI50Fx8XKSlITEw0xWnQ86OwsADXVxvoGRKAoKBAARf0h2J06I/5YXQEJe9PnSaWPs1Lvbp18b9XXmZAkDjWSpliQJCsrGxAoKWE8c+/gLT0dKuWdmzfHk8+Ptbq7+nlTkFm6enpIkUpgYO5e5B+0GSX3IP0o7YVaUxuxpdf+x/S0izrJW/D8+PHoVnTpgwIkucOm2MFZCpgDggTX5osliBLljv69hEJ0UoWCsCloFh6ftCfkksM9AyhpU7jM4QCQkuWYydOYOqHH9vc5fP+O2+hakICexBkDrgCthgQJIsqGxDohfzYk0+jsKjIqqWtWrbAhHHW590bLyRQoLgFAgT6MqD/JTCgHzfZJdqn/2+r0La6Fye/isysLKt/Hj/uabRu2ZIBQfLcYXOsgEwFzAFh3HPPW8E+1dXztlvFkcylFfJA0jOEAIGeJ/QMITBw5hly5OhRcSQ9wUbJ8sZrr6JO7VoMCDIHXAFbDAiSRZUNCOQGXPz1t1j3558WLaUX/OhRD+HGLl0k96DYHP2oP/xkOg4fOWphn3IlvPTC80hISGBAUER5NsoKyFHAHBC+XLhIpGY335NAL/mnHn8M7du1lVNhCSu0fZVOi7xSwnNBO6amvPu2gAyOQVBEemlGGRCkSVlsSBYg1K5dG/Pnzxdf+fSynvHpLJExkQr9sHr36omhQwbbzXToadco8dKUaR8iKytbmCIoGTViOG7s2kXUSwl25s2b52k1fD8rwAoooECNGjVgPKmTAo4/mj4D586dFzXR7/fuOweClhjod61UoeyMH34yAwQLxc8QLR5/9FF0aN9O/Pfs2bNNbfSkDZxJ0RP1Sr+XAUGyrrIAgcBgwYIFqF69umghufd279kjEpnc0LQpGjduJLnlts0RnGzctElAQtfOnVC5cmVTe1544QVs377dK+3gSlgBVsA1BehDYunSpahWrZq4kZYHtm7fjosXL6FN61aoW6eO3TTIrtVW+tUEB5s2bxHLFN1v7CriFqjQsueYMWNAZ8p4WhgQPFXQ9v0MCJJ1lQUI9GOibIZE2EoSvrvdp50S48ePN+1vdteOr9xXMveE8YFL+7udSSbjSj/FLpOgIItbzPNRuGLLmWtpP3vJYsy54cz9rlxD/Sp5eA+9KIz75F2x5ehaWzrSPcagO0f3+/q/05zp0KEDpk2bpspnyLp16/Daa69JaRsDgjKzlQFBsq4yAYEe0i1atIWSMFEAACAASURBVEDPnj2l/IhkdZX2SS9ZssQUqCTLrprtPPDAA+jXr59FE0kH8qLQOMkslPqY4Mu8UNDo22+/rchZDDSWJcv06dMVOYuBD2uSOVMc2yLw6tq1Kzp16qSqZ0hycjK++eYb4dWQ8QHEgOB4LrhzBQOCO6rZuUcWIFAVxuhh+v/kLrR3siJdQ18M9INztzj6oZbcLklf1Y7a5G5b1HYfA4KcEWFAkKOjs1a8+Qxx5hlV8hlCHqXSdlI520e6jgHBFbWcv5YBwXmtnLpSJiDQj8m4Reiuu+7C5MmT7baB8qk/+OCDbkECxTqsXLnSrn2KN3jiiSfENQQGBAgVpTAgyBlpBgQ5OjprxfwZMnr0aJD+9sqqVavw1ltvOWve4jryVJDnyV6hZ9T9998vLqEPEmfOa3CmMQwIzqjk+jUMCK5rZvcOmYBgrIj2Ivfv3x+vvPKK3bqPHj2Khx56yC1AqFq1qkNAoGNhn3rqKdM+aMnSqdocA4Kc4WFAkKOjq1boGTJixAgT4Jd2PwECHSvuTunSpQs++eQTu7dS8iVqhzEfizv12LqHAUGWkpZ2GBAk66oEIFATKR3yc889h9atW9tsMa2H04+TXuLuFHLzEYB0797d5u10rPTMmTOxceNGd8z7/D0ECH369LHoB62jvvjii9ID7Ciw7JlnLBNgUWZLenCfO3dOqpbkCVq4cKGVzU8//RRbt26VWhcZI0C48cYbLezSGSLvv/++9Lpo3Z2AtmQZN26c2I5c0Up8fLyYr3Regq1C57hMnToVe/bscUsaysg6ceJEcVhTafbpGaXEzicGBLeGzOFNDAgOJXLtAqUAwbVW8NWyFaDlHVuAQNu0CM5klkGDBlkFKdJaMr3Y6GUqs1DCq2XLllmZnDt3rghElV0IMktC7qVLlzB06FDpu0GGDBliBVrUH3K1k7eNS/lRgAFBmbFkQJCsKwOCZEFVYo4BQc5AMCDI0ZGtWCrAgKDMjGBAkKyrWgFBGxkKv5qVUXjwjOQeVwxzDAhyxpkBQY6ObIUBwRtzgAFBsspqBAT/OlUQ+eJQZH31Owq2HpHc44phjgFBzjgzIMjRka0wIHhjDjAgSFZZbYCgjY1AzEdjoQkLRsa0ZQwIbo43A4KbwpW4jQFBjo5shQHBG3OAAUGyymoCBP+a8Yh8eSi0laJELxkQ3B9sBgT3tTO/kwFBjo5shQHBG3OAAUGyymoBBL/4aERPGQNNeLCphwwI7g/28OHDrbZv0SE0H330EdLT0903bOPOm266CXfffbfFv9A+djqX4/Tp01Lroq1ptvJr/Pzzz6Bc+bILbTusX7++hVn6zbibnMde+3r06AFKMFayfPjhhzh/vvhUQy7lQwEOUlRmHBkQJOuqBkDwq14JUZOHQVu52HNgLAwI7g82J0pyXzvzOzlRkhwd2YqlAgwIyswIBgTJupY1IPhVjUX0u6OgCQ+x6hkDgvuDzYDgvnYMCHK0YyulK8CAoMzsYECQrGtZAoJfQgyiXnvQynPAHgTPB5kBwXMNyQJ7EOToyFbYg+CNOcCAIFnlsgIE/xqVEPXWSIuYg5JdYw+C+4PNgOC+duxBkKMdW2EPgrfnAAOCZMXLAhD8KkUh6s0RpXoO2IPg+SDffvvt6Ny5s4UhCk787LPPTCduel5LsYUmTZrg3nvvtTCXk5ODRYsW4erVq7KqEXaMZ3CUPHL3+++/x6FDh6TWRcYoaLBly5YWdk+ePKlIWudmzZph8ODBVn2g8wAowJRL+VGAlxiUGUsGBMm6ehsQ/GvFI+qNEcJzoLucivTJX0EbH42oVx+AJjTIonfsQZA82GyOFWAFVKEAA4Iyw8CAIFlXbwKCNiYc0e8+DG2lSNGL3NVbkL1oHTTBgYh6Yzj861VlQJA8vmyOFWAF1KcAA4IyY8KAIFlXbwECpU+O+t+Dpt0KhsIipD07B9q4SOguJiPo5lYIe/BWBgTJ48vmWAFWQH0KMCAoMyYMCJJ19QYg0BbGmGmPCBgwloK9J5Hx9jfizIXCA2eQt34f4r4YT4vMpmt4iUHyYLM5VoAVUIUCDAjKDAMDgmRdlQYE/7oJiHrtAcs8B3oDMj/7CYW7j4tgRf3VNKS/txQRE+5BUKcmDAiSx5jNsQKsgLoUYEBQZjwYECTrqiggBAYg9tMnQbEH5sWQlYu01xYBBgOi3x8NfXIG0l9bhIAbaiNi/CAGBMljzOZYAVZAXQowICgzHgwIknVVChAo4FB4DsKun61gbHph4jmkv7kEQR0bI2Lc3dBn5iD9f4tgKNAh+q0RpqUIXmKQPNhsjhVgBVShAAOCMsPAgCBZV0UAwU+L2LnjoI0Ks9najA+/R8GWw4CfFprAAOFJMOQXAjAg8oV7Edi+kbiPAUHyYLM5VoAVUIUCDAjKDAMDgmRdZQOCf70ERL3yADQR1mcrUNP1qVlIeeJTaAL9EdK3vSkokXIi5P9zAIHtGyJy0lAGBMnjzOZYAVZAPQowICgzFgwIknWVCgh+WrETQRNmGw6o6Xm/bkfWV2uKQeCF69n3DHkFSH5omvAmxM0fD01kKHsQJI81m2MFWAF1KMCAoMw4MCBI1lUWIJDnIPLlYaUuK7jTbF5icEe14nvuvPNO9OjRw8JAamoqpkyZIj3VcosWLTBq1CiLuijV8qxZs3Dp0iX3O2HjTkqx/OGHH1r9y8KFC7F3716pdZGxYcOGoUOHDhZ2jxw5grlz50qvq1WrVnjooYes7L7xxhugNNlcyo8CDAjKjCUDgmRdpQCCvx9i5zwDrY2ARE+am/HRchRsP+qJiQp7Lx/WJGfo+TRHOTqyFUsFGBCUmREMCJJ1lQEI2kpR0AT5S24ZoE/JhCG3QLrdimCQAUHOKDMgyNGRrTAgeGMOMCBIVlkGIEhuEpuToAADggQRATAgyNGRrTAgeGMOMCBIVpkBQbKgKjHHgCBnIBgQ5OjIVhgQvDEHGBAkq8yAIFlQlZgbOXIk2rZta9GajIwMEeBHwYoyyy233IL+/ftbmCwqKsKcOXNw6tQpmVUhISEBL7/8spXNX3/9FfRHdnn22WdRs2ZNC7OZmZl4/fXXZVeFXr16YcCAAVZ2aczOnDkjvT42WHYKcAyCMtozIEjWlQFBsqAqMTd58mT06dPHojXJyckYM2YMkpKSpLZy0KBBGD9+vIXN/Px8jBs3DgcPHpRaFwHCsmXLrGzSroIlS5ZIrYuMzZw5E61bt7awSzszhg4dCoPBILW+IUOG4JlnnrGyOXr0aBw9ysG6UsUuY2MMCMoMAAOCZF0ZECQLqhJzDAhyBoIBQY6ObMVSAQYEZWYEA4JkXRkQJAuqEnMMCHIGggFBjo5shQHBG3OAAUGyygwIkgVViTkGBDkDwYAgR0e2woDgjTnAgCBZZQYEyYKqxBwDgpyBYECQoyNbYUDwxhxgQJCsMgOCZEFVYu65555D7969LVpDQYpPPPGE9F0M/fr1A0X7m5e8vDxMnDgRlJZYZomNjcXSpUutTH722WdYsWKFzKqErffeew/t2rWzsHv27FkR7Cm70A6Gp59+2srs2LFjpe8Gkd12tueaAhyD4Jpezl7NgOCsUk5ex4DgpFA+dhnnQZAzYJwHQY6ObIU9CN6YAwwIklVmQJAsqErMMSDIGQgGBDk6shUGBG/MAQYEySozIEgWVCXmGBDkDAQDghwd2QoDgjfmAAOCZJUZECQLqhJzDAhyBoIBQY6ObIUBwRtzgAFBssoMCJIFVYk5AoS+fftatIYyKE6aNAmU5VBmad++vVWQYlZWFt555x2cO3dOZlXQaDRYvHixlc0ZM2Zg27ZtUusiYxQg2L17dwu7+/fvx5QpU6TX1alTJ5tBihS4KDs9tvTGs0GXFOAgRZfkcvpiBgSnpXLuQgYE53Tiq1gBVoAVkKUAA4IsJS3tuA0Iep0Ol69cRm5urvQc6sp01TtW09PTMey++7xTGdfCCrACrAArgJtvvhnPT5wIrVbLavynQEBAAKpUqYLg4BC3NXEZEAgIrly+jGvXrrpdaXm+kU6mo3VWLqwAK8AKsALeUaBr164iJwktmXGxVCA4OBgJVauicuV4l6VxCRDotLW9e3ajsLDQ5Yoqyg10BPDjjz9eUbrL/WQFWAFWoMwV6NKlC5588kkGBDsjUa16dVSvXsOlsXIaEOg8+sOJh8SSQkhICBo0aIC4uDiXKqsIF1+7ds3qONuK0G/uIyvACrACZaXAwIEDMWvWLF5iKDEA9DF/8uRJ0JHqtPzSuElThIeHOz1MTgMCRWyfOnkC/v7+6Natm9MVVLQLGRAq2ohzf1kBVqCsFWBAsD8C+/btAwXQ+/n5oW279k4Pl9OAcPr0KVy7ehU1atQQ3gMuthVgQOCZwQqwAqyAdxVgQLCvd0FBAbZs2QK9Xo/mzVsgJDTUqQFyGhCOHT2CtLQ0AQcECVwYEHgOsAKsACugBgUYEByPwtatW0WIQKPGTRAVFeX4BgBOA8LRI4dBW/gaNWqEatWqOWW8Il7EHoSKOOrcZ1aAFShLBRgQHKtPic9ycnLQsFEjREfHOL6BAcEpjVy6iAHBJbn4YlaAFWAFPFaAAcGxhAwIjjVS/AoGBMUl5gpYAVaAFbBQgAHB8YRgQHCskeJXMCAoLjFXwAqwAqwAA4KLc4ABwUXBlLicAUEJVdkmK8AKsAKlK8AeBMezgwHBsUaKX8GAoLjEXAErwAqwAuxBcHEOMCC4KJgSl3sDECjbeEREIPy0GmRkFUCnMyjRFZ+0GRMdhMJCPbKyOR24KwMYGOiHyPAA5OfrkMnauSIdgoP8EBLij7T0fBj4p2jSLjwsAAEBWvFbpN+kkoU9CI7VZUBwrJHiV8gGhJioQNRICEPnNpUw9v7G0Go1MD+PRDyPDEBung7LfjmNv7dcxvlL2UhKzVe8r2VZQUR4AOrUCEfXdvF48M66CA3xF9qYFzo7JC29UOiycfsVnL+cg7SMgrJstirqrlUtDPFxIbinby3c2rUqAvxpTllrd/JsFr76/jhOnMnEybOZKFD4Ia8Kcew0guZX/VoRoN/kMyObommDKGjo92h2D/0eDXoDdh5IwacLEwVsnTqXpfauedQ+P79iXej3OPrehmhQJ8JaFwNQUKgTc2nO10fEb/HcxWwUSfq4YUBwPIQMCI41UvwKWYAQFRmISWObo3G9SNStGWEBBfY6QV8wZy9mY+O2y/h00RHkF+gU77O3K5j8VEu0bBKDhnUindZFpzfgzPksbNubhE8XHUZ2TpG3m13m9cXQnHq8Bdq3jENcdJDT7aE5dPh4Bv7acgmLV5yEXl/xPpNv6lQFDwysh+aNowWMOlvSMwtw8Fga5n97DLsPpTh7m89c1++W6hjUpzaaNYhGSLCf0+0mXQ6fSMfUeQcFNHhaGBAcK8iA4Fgjxa/wFBDoR9aueRzoJZhQ2f1zvKmj9CN8/7MDWL/1svAw+HKh5ZSe3ari1adbISzU+Qe0rT6TFi9O2Ymte5LKJUCV7DPp9dgDjfHAnfWcBqrS5srexBS8PXMfjkt4qPvCfKSv4mcfboYenap41FxCqnUbL2LGgkTx9ezLhTwmdWqGY+wDjdG7u2dJ8+iD5offzghP1QUPdGFAcDyjGBAca6T4FZ4CwsevdkD3jlVEfEHJokMY0vQdoEMkDP85NjUwwB/piNAeQACSre/RG7Bx2xW89tEen11bpuWEd59vg85t4+HvZ61LIWKQrm8HHSi/OP07qUO6ZCBCuw8BSLXSpbBIjwNH0vD4K1vKNSS0aBKD155phQa1I2zMfQ3yDNWRYWgp1DLXLhCXEandCy2sl2QIPFf8fhbTv0pU/PdUlhXc3bsWnniwCSrFWntbDAhAlqERcg31aYXPpJ0WhQjVnEKo5gQ0sI6DuZKUi2nzDmLdpktl2TWP6h5wWw08O7oZYqNs6eKPbEND5AhdtCV0OYEwzVGbdZMu783ej/Vbr7jVNgYEx7IxIDjWSPEr3AWEyrHBmPl6RzSub5kju9AQiwJURpq+I/QIttt+DQoQpd2DIM15BJaABXLnTXp/p1h+8KVSo2ooXnmqFTq1rmTR7AJDZeQaaiHT0Pq/B1HpvdKgCFHa7QjWnEcA0iwu3HUwGa9M241LV3N9SRan2tq2eRzendgWVSqZzxuCgmrIEQ/xBibQLM1ggCYNkZpdCNJcgh8sv3yXrj6FKXMOONUWX7qI4Hxo/7p4ZlRTBAXSS6646BGIPEMNZBhaodBgOR+t+2dAoOYKojQ7Eay5LO42lrx8HabOPYAffj/rS7LA31+L+wfWFR4V85AVPQJQYEhAur49CuBYl2DNOURoDoo5pcF1zyYtZU18dye27LnmclAjA4LjqVRuACE1NVWcYU1BZvRH8LlGI86zrlWrFipVcjQJHYul1BXuAsK3M25C43pRFj+8NH0XQeN6OL9eTP3SIh/BmjOI06636CathT42eYvPRPjHRgdh1pud0KQENKXpOyPb0Fg8sF0pWuQhRHMaMdpN0Pz3wKbpdfp8Jh56fhMys8rPzoc2N8Ri1pudLdaFyUuQrL9NvOSKv+6cLQb4IRvR2i3i69hY6Le5ZuMlsVxTnsrIwQ1EEKL5S5AgPUXfA4UG53LYG/WgF6C/Jg2xmvUI1Fz38FHA59uf7sPqded8RrpRgxvg8eGNEeB/fe7kG6ohRd8NRYj8z1vgbHcIK1JRxW+1haeF4OmlKbvw91aCKueL2gGBTlM8ceIEsrOzTe8043stNjYWtWvXFkcxK1l8GhDy8/Nx/vx58ccIBfbEql69ujhVMiTEs3V62QPiKiDQ+vBHr3RAx1bXoacI4UjV34g8Qy2PmheouYo47V/C1W4sG7dfxeSpu1S/3EBfblNfbo/uHa6v/RYhAin6m5FvSPBIlyDNRcRqNsJfc12XTTuu4rl3dpSL5Yaq8SGY925XkPfFWEiza/o+INe4u4WgKlyzH5HaPaalBwIsWldf8P1xd82q6r4ubSuDlvmCAosf1gKNDI3E77F4Cca9QqAQp/0bwZrTJjil7X8T3t6O7fuslwbdq0WZuwiU+t1cA28918YMmjTIMjRBmr6Th3NKh1jtRoRqjl2fqwU6jHx+kwhidLaoERDoaGV6H5w6dQp5eXkOuxIWFoaGDRsiOjra4bXuXOCzgEAeg8TERBBlGUt8fDziqySYtl8RNCQlXcPlS9fX7gICAtC4cWNVeRRcBYT7+tfBxLHNTVv0CA6u6e74j8jdmQaW99BXcxXtjxYvwy+/OyYi+dW8Z3vyky0wuF8dU2fo6/eSbgh0CPdcFEB8vVT2+1V8GVOhXQ4ff3EIX688KcV+WRmhr7vln92MmtXCzOCgCq7p+3r0IDfvT4jmJCpp/yzeXwuAvvoefmETEo87/0AvK33s1UsevC+mdLUIgk03dECmnmI0XPG42K6FICFKsx0R2v2mCy5fy0XfkevUKIepTeGh/lgx71ZUijF6MjXCa0BePE+gyViBWALUbEOE9qCpzjMXsjD25c24kuT4xUo3qQ0QioqKcOjQIdC7zfjBSx+ztevUBb23iosBuTm5OHXqJHS64qUW8pKTR6F58+bS54TPAQIJd+XKFRw7dkwIFBoahpjYWFStWtVqX7ZRLQNRWdI1pCQnIzMzU7hl6tatK7wJaiiuAEL1KqFY+mkP0A+weLr4iwe5p1/IJXUgT0Jl7W9i6YEK5UgYMeEfXLqqzmhqihynBzUtMVCh2Iur+jtA8RgyC62BVtKuA0GUeNHRl8tz/+DIyeueBZn1ecPWoN61xA4YY04Ico1f0d0p5UFu3v5wzQFEa7eavoZpr/+oiZvEzhlfLBR38Nq4VhjYs+Z/zdcg03ADaJlPZiFIqKT9QywBGgvFctB2PzVuHyVdprzYDrfdWNXU3mLPQVfhXZFVSJdY7d8I1RQDut5gwOzFR/DF/133LNirS02AkJWVhSNHjpjeTzExsaheowYCA0tfEs3OzsLVK1eQkpIC8jzQMnqTJk3g7+/Zji1zzXwOEOhlSpRFoBAeEYFGjRo7vQ5DIp44fhxpaakCJsg1U62aZ1tuZEx2VwDho1fa45Yu1394SfpeyDVc/2qW0R6jjXDNQcRo/zWZXPPPRUx6T51rxy8/2QJDzLwHFHOQaWghUw6TrTDNMcRqN5iCyH5cew5vztiryoe1MwL8+PmtoERIxnJFfycKDPHO3OriNQahmzEqnX7Dr3+yF6t8aE3dvMOURXLd17eb1tdpOeuK7m6X43+cEVGLXMRrf0aApnh3TUp6PsZM+leVCZUoERnFARkLzaUr+gEi0kl2IVCv5rfUFJNAO416P7QWqWmOoVMtgFBYWIi9e/eCIIHeS81btERwsP3gcnMdk5OTcfJE8XJdeHg42rVrV+rHsqv6+xQg0JrM7t27QbEHRFgNGjZ0tb/ienLPJF27Jtw2rVu3Bq3jlGVxFhBKfiXnG+y7gcn1FBkZaaJQIkt6KBtdU6RjRkaG3fgN8iJQBDEVcg4PH78RB49aRvWXpXZUd42qYVj+WQ8EBhR/neQb4nFVT1/ApZeoqCgEBRV7G4yBPkZdaNmKdCGgtFXIqxLv97Npi2hKWj6GPbMBV5Odc22WtV7m9fe7tQbeea6N6a/SDe2QoW9bahNJK1rvNGpGvyHSzagVBVTRn9JKgCYFCdrlpn/edTAFo1/YpCZJnG7L1Jfaizwbxb8Nv/88edfhvaQheuhHRFACs+IslPR7JLey0Z2clpZmsWRa8v5iMP3b9Ndzvz2KOUuOON1eb1xIsQdvTmiD/rcWe2eLPZy9QYGJpRVyo9OLzRhUTrrQS5N0oXmVnp4u/rvU+zWnEaf907S74f9+Oo33P7u+JFPafWoABOrjwYMHkZSUBP//lr/JK+5qSfsvSF+nKxLecQpglFF8ChAIDmiy0MOpdes20LoZwUkPtMRDB5Gbm4uYmBi0atVKhpZu23AWEMiV+cb41qZ6kvW3ir3DtgpNEnqQGx9Gtq4x7vggAj171vb2qSDNBVTW/m768X2+9Khw46mpTHqsOe4bUNfUpCv6u0BbGm0V2tESFxdnVxe6jx5M9MA+ffq0TYAiaCJ4MpbpXyZiwXLfC7r7dUFPU3It+gK+pLvX5pce/ebI40YPcwLP0orxoU6Bw/TQs1VitP8gXFOcD4FiWuiL75qPwVXdmuFYPucWUwhirqE2kvS32+wvfYDUr19fAEHJ9NTmNxjhnZZPc3JsLeUZUNXvO1MAMaVkvune63NQDb9JOkfh1696Iu6/2IMCxOOKbqDN5SqCJdKF5pMjXQjaKebMCPHmfaW8G5W1PyNQUzzfKBbh4Rf+BYG7vaIGQLh69arwiFNp1LgJ6MPF3XLp4gURsE96duvWze7v1Nk6fAYQ6GG9b98+k5A0uTwpWZmZOHw4UTz8b7jhBlSubPuF4kkdzt7rLCDMeaczOrUubicFJl7W3WuxpkcPcVqHomBNe2tXttpFXzI0WSm+w/zLmb6WE/yWwQ/Fe/53HUjGoy9vVs1hTxFhAZj3XhfTtsZCxOGq7g4rN29CQgLoj6vbgujL5fLlyyCIKvlwSvD73pRQ6eKVHAx85E/V6OLM3GtaPwrzp3Q1pQHOMjRFqr6bxa3kIaBlOHe2CZMngeYTBV2ZF0oGVM3va1CCICqLV5zAR/OLH5K+UijnwYuPFweFUTAibQUtudRHX8UUG0VePFcKPZNIM9KuJCjQ8kys2Vbkp/+3Ff/suOqKeUWvva1rVUyb3N5UR5K+D3INxhiN4r+mDxeCdHci72m93ZYukdrdiNLsEPYpAHbMi/869HSWNSDQ84TeafTRS++fOnXreTQ29AynD1/ytJO+FLRoD7ycqcxnAIG2fZw5cwZRUdFo2KiRxx0ncSgeISUlWbxQmzVr5oxeilxDL+Y2ba67eUurZNdPA0xbhmirUKahpcWlDRo08IhAyRg91I0BoEbjtJc9QlPsssvKLsJtD/yumkN4alYNw4JpN5qCE7MMzf7bXlbceqJpGlvjcoK7A0i6HD582OJ2yrgYrdlq+rsBo//wqZS45B5/f1I7UwbOa/rbkWe47pokb0HTprS33/2teiTOxYsXcclsJxG9UskrZVy6upaSh9uHr3V3aLx+n3Cjj2+D/rcVu9EpIPay7m6L3TIEVJ66eQkUaM6ZQ4IfslDFb5VpJ82i5Sfw8ZfqgSva7nlz5+ItxZTF9aLufovxISioV4/Sd7s/p0iX48ePi2VAY6HYjATt96b//mDuQXy7yv7uogEDBmD27NlSvrTdmYS0xLt161ahReMmTaUsdZMmRw4nCm9V+/btXYplsNUHnwGEnTt3ighPiuysVq26O+NhdQ/tajh58oQYGIpFkBn96UoDyY1NSwL2yu096mPxJz3/u0SDa/p+IrsdFXr50Y8uNPT6HnZX6i95Lb0MqU3Gfbi0o4G2PRrLbfevwoFEdaR9bdeyGn6cf4c4IpYKuXnJ3UuFvn7JhSkrxoQe1PRgMq6HhmjOiB0Nxox3I5/7A7/+6TvLDC891QXPjr4OmRf1w6AzFG8JJQ8dzcnr26s8mVEQyw0E+MYSrd2MCE1xRkXaxXD7Aytw+py6YltK67Gfnxbfzx2Iru2K821Q2u7LuntMbnTyVJHnwN5SjLNq0svw3LlzYm88lZLu9M27rmDIY6tRWFj256bQXDnxz0hTJskcQz3hWaFCL0HShP7IKOTlJF2My1iUb6Oq37emzJ2r153FmIm/2q2qf//+WLlypcteRRntJxsXLlwQH2P0/L6heQsp7SBd9u/bh8LCAuFBIE+CJ8VnAGHjxo3CxdukSVNEuOiyK00geuDTMoNWo0GHDh1cdst7Irz5vc4AwojBzTF1MiVeKU7fSuvsRQbKoqgRL0FP1q5s9YMiaullSJrTQ6m630LTZc+9vRFLlqvjq6X3zfWw6ONeakc1yQAAIABJREFUprZd1t8jtjbSw5m+fl2JBnZmPEmXo0ePiqWpQM01sfZpdJVPencTFizznTTC09+4FfcNNAb6anBON0ZIQJ4DJTxq5p4EOrOB9rFTyc4pxF1jVmNfYvFLUO2F0gev+XowbmhUnCHR/EVID+Q6deTvKiJPQnHwJ3lfKHD4vKh776EkDHp0NbKyHUftK61rbHQIEv8aYaomw9BGpFKmQs8n8nDKLPQypGcUfThSqaRdA4J2KrsOJKHv8OvBsLbqLWtAoJgKWi6pVKky6tbzbHnB2D/hXTl2VMRPNWrUyONdej4BCDQRNmygbWUQW0BkZUKkL+TDiYfEmnvHjh09dkO7O/mdAYSxD7b6f/bOA8qKYunjTU5iFjGAGZWskhUVA5hBBMlBchYBxfxMT5/PiKLkjEhQoooBA/oEkWTiE0RQERWMZFCC3/n1tWZnZmfuzN1dFi5Un8PR3b23p+bf1dX/rq6uMg/0rWEfQYEh7qnvyVN8r6aRZtciwYsn5htjqNtAu+/Jj8ygcZ9m9XVz9HtXX3qaGfm4eFaM+WF3G0ugyHFx7LHZq6YXJii4sHvJb/4wJfLOcDIEPjhggRk4+pMcfb+92dnIx+uZqy9NLGa7zGH/BCgae5c6p7wufvk5KuQcmcJERJ7bBXb7LnND51fMks+zVnRnb2IU1DeJpd6Z3NiUOSWRvW7T35XNxj1VrV0ikDOnvC7uZ+O1gpja8+W875qieRKeqhWr/jANOsw0v2/Y9zdoSpY4xHz6RgtH7D/21DJb/i5nvVGQg5zwqPjHAzc9uBDEeETe+YZcG7SV3240F1w/Malq7GuCIEH3xPiccKI3TiOrOg1B+Gb1KhszlRO3GdKCIDD48+Yl7uNXrFQ5xxbyv/760/zfsmX2qlGNGjVi9YubtG/ffuaXX4IjtLMysBAUYcFh3+cKX6FCkmQkUXeQjGS4O3MiM1nYcyUwL1FlLpEF788/d5u/9gOXJrJgrAsXzkgMkkgLDC45l5AlMzZcFeUKJBUgd2Xg8tdu89df+97VG1cHixQuYPLnl7NgdKqAjXHJm3fvYSe3HPCDJbBL3GTYvmNnWgV4FitawEksZUw+Gyws1/Ti4p/q57ATiSuRu51bRSRK2radK4Gp9pbzn+f9DymWkZY7YaPyRt5SyK4kYbjgmUrWOFIuVkyquWZXisT369e/1vTs2TMWSVy0aJHNfVCqdGlTsmTOHL0gg1zj58YWR8/ZaWlBEJgUeBD4b9ly5XNsd8M1RzwINDwIUZH/nHfVr399yBWk7AyDflcRUAQUAUUg3RGAJN133702jXNU+/zzz+1O/9iSJU3p0jmTt4A1kuD7P/743R49lyqVPc9EWhAEgP7oo4+se+2008+weadzonHVccWK5ZYYkH0qyjXIeVfjxk1y4tHahyKgCCgCisABiEDHjh1Mt25dI9+M9YS8BVyD5RZDTrS//95jb76wthGDld1j1rQhCBLQUeLYY81JJ+VMEND6devMmjXf2WRJFSpUiDwjU4KQEyqsfSgCioAicOAiEJcgcCVxyZIldoN6dtlykR7sOIhxJPzpJ0vtR0kAmGoODv8z0oYgkKwGZlSkaFEbYZ3dc1JcMSSVIDKY+8pR1wwBTglCHBXVzygCioAicPAiEJcgEHjK9X0CLfGMs1HNbvvpxx/N2rXf29tb3MzLbixW2hAEjhcAE1BPLFU62/dpKQH9/fdrbGBR9erVY12HU4KQXfXV7ysCioAicGAjEJcgsEnlBgZJxIoUKWrKV8hecTli6pZ98YXhmIHbNCeckP18QWlDEFAprpatWrXKatcZZc7MUqpOvrtly2az8quv7O0FojyJ9ozTlCDEQUk/owgoAorAwYtAXIIAQuTiYePL0cDRxxxjj8+zch00kRNipdm4YYO9VkpMXU60tCIIMC4iP7lHTUAhxS1SzR7IkcKqr1datw5Ack4TN4OiEoScUDntQxFQBBSBAxeBVAgCKHB8vmJFogAe1x1PTPHmwZ49u83Kr1aaTZs2JspF50AGRRmdtCIICI0bhQIX/BcwuB4C84piXTC0DRv+MGu++856DjijqVixYkoEQwnCgTup9c0UAUVAEcgJBFIlCFJbgtTLtCOOONKUKl3KFCpUOKk4fG/b1q32JgTkgHgDPOI5cbSQtgQBwdn9E7BIxTNIQuEiRc0xRx9ljg1INgGIv/7yi61UuG37NpuVhSxxVHBM1fugBCEnpo/2oQgoAorAgYtAqgQBJDgiIBU5R+isWQUKFLQ3EEiiFHT9nqOJH9Z+bwtWSfVdMqBSByQnW9p5EOTl8QLgliHntBTPkUxm3HTIY/KYbdu2WvAS2ceMZVjkUADIrER3KkHISdXTvhQBRUAROPAQyApBEBTwIkAUEnU3Eg3vOAWd+AcxYL2TNY2/c1ROUGJ2rzQGjUTaEgR5GY4aiAIlgNENmvtlIQ423/UJJ9h86VktNaoE4cCbzPpGioAioAjkJALZIQjIAQFg48t6g7c8rAkxwBMeN44u1fdMe4IgLww54CokwG7cmAjWAEDqjxNvEBWjEAc4JQhxUNLPKAKKgCJw8CKQXYLgRg5POesZ6xo1idjgsqaxtmXFC57qqBwwBCHVF8/K55UgZAU1/Y4ioAgoAgcPAjlJEPY1akoQUhgBJQgpgKUfVQQUAUXgIERACcLWbbGKi361Yrl1j5QpU8bGAKR7U4KQ7iOo8isCioAisHcRUIKgBGHvapj2rggoAoqAIpCWCChBUIKQloqrQisCioAioAjsXQSUIChB2Lsapr0rAoqAIqAIpCUCShCUIKSl4qrQioAioAgoAnsXASUIShD2roZp74qAIqAIKAJpiYASBCUIaam4KrQioAgoAorA3kVACYIShL2rYdq7IqAIKAKKQFoioARBCUJaKq4KrQgoAoqAIrB3EVCCoARh72qY9q4IKAKKgCKQlggoQYhJEL7+eqX54/ffzamnnmpKly6dloPtFlozKab9EOoLKAKKgCKwVxE4kAjCvHnzbJGos84+2xQvfmgs3PJsiUkQ1q5da3768Qdz5JFHmooVK8bqfH/+kBKE/Xl0VDZFQBFQBPY9AgcKQfj111/NF198YQGtVPkcU7BgwVjgxiYImzdtMsuXf2k7PeOMM8xxxx2XI2WXY0m5Fz6kBGEvgKpdKgKKgCJwACFwIBCEbdu2mUWLFpk9e/aYI444wpx+RpnYIxSbIPz9999m7fdrzLp160yePHnMUUcdZY8bihYtGvth+9MHlSDsT6OhsigCioAisP8hkM4EYffu3eb7778369evN9u3bzdFihQxZ51d1uTPnz820LEJgvS4etUq89tvvzoPgCzsrw3ZChQoYE455RTLnAoVKuSIqgRhfx01lUsRUAQUgf0DgSCCsGHDBrN69WqzdetWuyvfXxubemkcKZx88inmsMMPT0nclAkCgGzatMl6E2Al6dJgT2eeeaY5/B+AlCCky8ipnIqAIqAI7BsE3ARh165dZtmyZWbjxo37NTHwI3XcccebY0qU8GyQ46KZMkFwd7xnz24DS3ERlbjPzbXP/fLLz4YAjR3bt9ujkXPPPdcUL17cKEHItSHQBykCioAikJYIuAnC8uXL7RF7vnz57Bpy/AknmEKFCu+378V6lzdvXrvuZbVliyBk9aG5/b2dO3ealSu/Mlu3bDFHH320KV++vBKE3B4EfZ4ioAgoAmmGgBCE33//3Xz++ed2Q3zyKaeYY44pkWZvkjVxDwqCADScG638aoVlf7Vq1TLffPONady4SdZQ028pAoqAIqAIHPAICEFYunSpPVrAc0Cg38HSDhqCQOzE4kUL7bhWqlTJ/Pbbb0oQDhYt1/dUBBQBRSALCEAQOnfuZEgyxK0AyAEk4WBpBw1BYEAXLfzYuojKlStn2aB6EA4WNdf3VAQUAUUgdQQgCB06tDcLFiywBKFipcpZCvZL/cn7xzcOKoKABwFPQtmyZe1NDCUI+4cSqhSKgCKgCOyPCPgJQqVKlU1B13X5/VHmnJRJCUJOoql9KQKKgCKgCBwwCChBiFmL4UAYcfUgHAijqO+gCCgCikDuIKAEQQlC7miaPkURUAQUAUUgrRBQgqAEIa0UVoVVBBQBRUARyB0ElCAoQcgdTdOnKAKKgCKgCKQVAkoQlCCklcKqsIqAIqAIKAK5g4ASBCUIuaNp+hRFQBFQBBSBtEJACYIShLRSWBVWEVAEFAFFIHcQUIKgBCF3NE2foggoAoqAIpBWCChBUIKQVgqrwioCioAioAjkDgJKEJQg5I6m6VMUAUVAEVAE0goBJQhKENJKYVVYRUARUAQUgdxBQAmCEoTc0TR9iiKgCCgCikBaIaAEQQlCWimsCqsIKAKKgCKQOwgoQVCCkDuapk9RBBQBRUARSCsElCAoQUgrhVVhFQFFQBFQBHIHASUIShByR9P0KYqAIqAIKAJphYASBCUIaaWwKqwioAgoAopA7iCgBEEJQu5omj5FEVAEFAFFIK0QUIKgBCGtFFaFVQQUAUVAEcgdBJQgKEHIHU3TpygCioAioAikFQJKEJQgpJXCqrCKgCKgCCgCuYOAEgQlCLmjafoURUARUAQUgbRCQAmCEoS0UlgVVhFQBBQBRSB3EFCCoAQhdzRNn6IIKAKKgCKQVggoQVCCkFYKq8IqAoqAIqAI5A4CShCUIOSOpulTFAFFQBFQBNIKASUIShDSSmFVWEVAEVAEFIHcQUAJghKE3NE0fYoioAgoAopAWiGgBEEJQloprAqrCCgCioAikDsIKEFQgpA7mqZPUQQUAUVAEUgrBJQgKEFIK4VVYRUBRUARUARyBwElCEoQckfT9CmKgCKgCCgCaYWAEgQlCGmlsCqsIqAIKAKKQO4goARBCULuaJo+RRFQBBQBRSCtEFCCoAQhrRRWhVUEFAFFQBHIHQSUIChByB1N06coAoqAIqAIpBUCShCUIKSVwqqwioAioAgoArmDgBIEJQi5o2n6FEVAEVAEFIG0QkAJghKEtFJYFVYRUAQUAUUgdxBQgqAEIXc0TZ+iCCgCioAikFYIKEFQgpBWCqvCKgKKgCKgCOQOAkoQlCDkjqbpUxQBRUARUATSCgElCEoQ0kphVVhFQBFQBBSB3EFACYIShNzRNH2KIqAIKAKKQFohoARBCUJaKawKqwgoAoqAIpA7CChBUIKQO5qmT1EEFAFFQBFIKwSUIChBSCuFVWEVAUVAEVAEcgcBJQhKEHJH0/QpioAioAgoAmmFgBIEJQhppbAqrCKgCCgCikDuIKAEQQlC7miaPkURUAQUAUUgrRBQgqAEIa0UVoVVBBQBRUARyB0ElCAoQcgdTdOnKAKKgCKgCKQVAkoQlCCklcKqsIqAIqAIKAK5g4ASBCUIuaNp+hRFQBFQBBSBtEJACYIShLRSWBVWEVAEFAFFIHcQUIKgBCF3NE2foggoAoqAIpBWCChBUIKQVgqrwioCioAioAjkDgJKEJQg5I6m6VMUAUVAEVAE0goBJQgHKUH47bffzc033+woa548ebKtuHv2/G3c3RQrVszkz5/P9svftm7davbs2eN5zmGHHWaM+dv5zObNmz1/L1CggClatIjzuz///Mvs2LHD85lChQqbwoULOr/btm2H2bnzL89nihc/xOTNm9f1nC3Oc+WDxYsXN3nzJnBA3ihZduz40/z5558Rsmw3O3fu9MmS8Rxj8piNGzd6/o6cYCey7Nq122zdus0jb/78+U2xYkWT4lKkSBFTsGAB5zP0sWvXLs+z3GPEHzZv3uIZo7x585nixYs539m5c5fZtg1ZMpr/M3/9tdNs377d8xm/LJs3owu7Q2X5+29jtmzxyoKOHnpocec7u3fvsZ9xN7++7Njxl/nzT6++FC5c2BQqlKEvW7duN7t2ZYwRzwGXfPky9IXn/I1QrnbooYc6+s6fNm3a5JOloClatLDzuyB9iZKFL7vnSNBzgvVla1JZguaRe4x4DuPs15dDDjnEwYUHbNq02YNLvnz5LHZiB4L0JV++/OaQQ5LrbtGixUyBAgnbkXgO+Htth1t3g/QFXJj30oJkiWNf/Lq7Zcs2s3t3xjzy6wt6ia3z60uUrStYsKApUiRDX7Zv32H++strx6LmdE7YceQX21O/fn0DSViwYIHZvXu3qVSpsilYqJBHtw7kH/JsOUgJwh9/bDBXXHGlM7YlSpQwTP7sNBbLH374wXaBobjmmqtMqVKl7M8s6lOnTje///678wiUuXv3rs7PGzduMuPGjfeIcNppp5krrqhrRPGXLFlq5s2b7/lM1apVTfXqVZ3fvfHGW2blypXOz8jSrFlTc/jhkBFjF9sXXpjgmXz037ZtG2fRZYEbPXqsnRTSTj/9dCuLtIULF5kFCz72yFKtWlXDP2lvvjnHfPXVV57PtGnTykBGaBiR554b5Pk7hqRhw+sdWX788Sczc+Ysj7E+/vjjTcOGDZzvff7552bu3A88/dSpc7EpV66s/R3EjD7Wrk2MjzT6oC9pY8eO9yx0Rx55pGnevKnz9zVrvrf9uNuxx5YwjRs3cn61bNn/mXfffc/zmcsuu9ScddaZzu8mTJjo0QWMef3615oTTjjBfgZ9eemlqWbDhg3OdzCO7dvf5Py8fv3PZsqUlzzPOeOM003dupc7+rJo0WLz0UcLPJ+54ILzTeXKlZzfzZr1qvnuu++cnzHUjRvfYI444gj7OxbByZOnZCKmnTp1MHyWxmI6cuRoz3PKlj3bXHJJHed36C366241a9Y05513jvOr2bPfMKtWrfJ8pmvXznY+0Zhjw4aN8PwdfbnhhoYOkf7xxx/NzJmvePSFeXTllfWc7wXp7qWX1jFnn322/Qx6Dy5r1671PKtZsybmqKOOcn43fPhIDy4lShxjGjW6wSHjq1d/Y157bbanjxNPPNE0aHCd87tPPvnM/O9///N85uqrrzSnnHKK87vRo8eYLVu8pKdRo4amZMmS9jMspBMnTvbo7uGHH25atmzu9LFmzRqLi7uVKXOGufzyyxx9CcLFr7tTprxs1q9f73QDyWO+HnlkQl82bNhoXn55aiaS3KNHN+c76PX48RM8slSsWNFceOEFzu/mzn3ffP75F57PXHhhbVOxYgXnd27dRQ/cY+P5Ygo/MBfE7vXo0d307NlDCUIK+KXtRxcvWmgXirJlyxolCEoQUGQlCMYuhEoQjFGCYIwSBGPnghKExDKvHoR/6I56ENSDgCqoB8FYr4B6ENSDIDtB9SCoByFtvQKpCL4vPQi47MePH29++eUXR2Tc+nfccYfH7fb88897XunMM8+y7js5Yvjoo4/MO++84/nMBRdcYC688ELndzNmzDDLli1zfubMk3M03OU0zpOHDBniiR+g/549ezrHLJwhDhz4nOesEffr9ddf7/SLW/T999/3yFK7dm3DP2kzZsw0y5Z53YTdu3f/51w5ccTwyCOPePrAtd2qVStHlu+//95MnDjRE8tQunRp07JlS+d7ixcvNm+88YannyuvvMqcc05l+zs8Ry++ONF89923ns/wHDkG4g/PPfecJybi6KOPMZ06dXS+s3r1aiuLux133HHmppsyXP9Ll35iZs9+zfOZa6+91lSokOEaHTp0qPn111+dzxDHwDHQSSedZH+HvowZM9b8/vtvzmeKFi1qevfu7fyMK330aL9bv6zh3FT05cMPPzRz5871yHLZZZeZatWqOb+bNGmSx61fsGAhe9x09NFH288QIzJy5MhMLuO+ffuaQv+cx3JsNWDA057nVKpUyVx99dXO79Bb9Nfd6tSpYzhmkDZ16lSzfPlyz2f69+/vHDGAy1NPPZVJX1q3bm3P/mnoC2Ptjqs46yzmUUPnex988IHhX0bLY66++iqDzDRiDyZPnmy+/darLx06dDBsJqQ9+eSTniOGkiWPs9hJvA/Hay+95D0GOvnkk03z5hmu/48//tjMmTPH806NGjUyZcqUcX737LPP+mKC8pjWrVsZjitoHL2MGDHCcyR15JFHmS5dOjt9BOlu2bLlTP361zn68sEH/zMffOCd037dRefQPWmFCxexsoi+cIw6duw4s22b90gEWyd6yWcGDx7seecqVara4zFpr7/+ulmyZInnM3Xr1jVVqlQJ1N1jjilhTjghgUd2mnoQXLNCYxASYOxtDwKGbdy4cZkIwp133umMBudyLFDuJoZNJtb8+fMDCcJFF13kfG369OkegkBAX8eOHT0EgcnpDjCk/169enkIAkbJHYPA0YyfIPgXH8iBn6x88YWXIPTo0cNDEB5++GHPO0MQMPgSE5Iw+C9mIggs7tIgCBgUd7vqKghC4nw7QRBezGTw6QOyIW3gwIEegnDMMRCETh4jSz/uBkFo166d86ulS5ea117zEoTrrrsuE0Fwk0UWFBYNL0EYY377zUsQbrnlFuc5GOlRo0Z5ZGGMGjRo4CEI773njYe4/PLLPQQBwuM+92fRb9u2rYcgsPj4Ay/79evnIghbzdNPewlC5cqVMxEE9NfdLrnkEg9BePnllzMRhNtvv91DEFiU3Q19adOG+JkMgjBhwgRPDALk1k8Q/OT2mmuu8RAEiJOfIDCP3AThiSee8BGEkpYsCkFYsWJFIEFo0aKF8woQhLfeesvzTo0bN85EEPxBoLyzmyAMHz7cQxA4j+/SpUtS3S1XDoKQQSghTX5c/LqLzrkJArExzFc3QRgzZkymYF5snZsgDBrkjT0ilgoCII35zLx2t3r16nkIglt3IQgnnpiI+cpOU4KQgZ4eMfyDhRIEJQioghIEYxd9JQi7jBKEhHFUgqBHDNkhXGnz3X19xKAehISqqAfBGI4Y1INgjHoQjFEPQsIuqAdh/1tK1YOgHgSLgB4xJBRBPQjqQUAPiEFQD4J6EPSao+ZBsLNAjxj0iEEJQmJB0CMGJQjuvaweMegRw/7n29gLEukRQ8YtBg1STCiYBikaeytDgxSN0SBFY292aJCi5kGQ5VePGPSIQY8Y9BaDEgSjBAFDoARBEyW59+ZKEP5Bg9S/kjY2q84L8pOTZpTmT7Ws1xwzUNUgRQ1SFG3QIEUNUhRdyG6Q4mGHHW6OOiqRuyM77Y8//nDqsWgMgsYgWF0iKMlfSClVJSPQj+InShC8SZs0D0Lmq2J6iyExu5QgKEHIKYKQP38BU6BARhGyVO23fB4bLvkalCAoQVCCoLcYHFuitxg0SFE2DHqLITEt0iVIUQlCVilR+Pf0iOEfbPaFB4Fsa/5Uy1GZFElV+/bbb3tGlFTLeyOTIoulu9xtnEyKZFH0plqeYdLJgwD+7gqKcTIpUg3Sm2o53TIpkmr5a0enDoRbDP7Mm1GZFNkxkhbanWo5KwSBrJokmTrYMymOHTvWlnx2t72RSZEx+vrrhO4qQVCCkC0Ekt1iyA2CQJlUd+pcjFLv3r2cd6Lc88iR3tS5lO8lR7y4vCjfS750d6tRo7qpWbOG8yvKy65YkVFiOX/+fKZVq5aG8q80Ji55/v/8M6PWOv137NjeSVdL+V5K2bpTLVMaFlmkUUZ4/nxvbn2/LLNnv26WL1/hkZeSxYceeqj9HbUYnn76Gc/fkfPGGxs5slBCe9q0GZ5UyyeeeIKnxPKnn35q3nknc4nlChXK2745PqLcNmmb3Y3nSIllfj9ixChPydyjjjrS5pmXRhpW+nG3kiWPtXUUpFGids4cL4mrV6+uofyxNHLV//ZbRulvFpQbbrjeSZ1LuWfK93IeKq1o0SKmc+eMtM/r1q23NQfc7cwzy5grr7zC0ReS8Hz4oTe98UUXXWjOPTejxDLYulMKFypU0DRt2sRJzU2K3wkTXjTbt+/wPItS5e5yz0OGDPP8vXz5craUsDT0Fv11N0pPV62akVv/lVdeNStXZpAVPturVw8n1TK4DBo0xKcvh5kmTW401KqgoS+MkZvcnnHGGbb8ujS/7ubJY6yspB6moffTp88wlPd2t1atWjgphfk9siCTNEp/g50QhK+/XmVmzfKWWC5dupQtTy2NEtiUNna366671px22qnOr4YPH2E2b97i/Iy8N954ozn++OPs7yj3PH78CwYbIu2IIw63dSGkffvtd2baNK/uUoL8iivquWq9ZJ7TlHiXMtj0NXHiJPPTT+ucfin3fOONjQ1zhQbBnjRpstm2bbvnnW655WbnZ/SacvLuRt2Uiy/OSBn/zjvvmk8//czzGUq4u0uVM0bffJOol4EtyYmmRwwZKKoH4R8s9jZBwIhgtChSIo1FGSMrjck9btx4j45Tx54JKgQBYzJvntfgE9xTvXpV53tvvPGWWblypfMzAZMsYIcffpj9HYV1XnhByz2DhZZ71nLPMlG03HN6l3uG1Lk3NFklC0oQlCCYP/7YYK644koHCSUIWu4ZZdByz1ruGT1goZk161Wzdu1azzrTrFkTQxEkaXjZ3B6EEiWOMY0a3eB4EFav/sbg0XM3Ciw1aHCd86tPPvnMUBnV3a6++kpzyimnOL8aPXqM2bLF67Jv1KihKVmypP0MHgQ8Tu6CTnjiWrbMqBq5Zs0aM3Om15uBVxDPiWxAFi5cZBYs+NgjS7qUe1aCkFVKFP499SD8gw3KldVbDPI93H6cg9Hy5ctrKJOKO5GGEXn55aket3KixHJ3Z3TwIOD6d7fTTz/N4zJevHiJ+fDDeZ7PVKtW1eDal/b662+Yr77yehBatGjmOmLYZj0VGBVpyNKuXVvXEcN2Wylw9+49zmc47sB9Le3jjxcaXLXuVr16NcM/aW+88abnuIPf33RTG8O1UhpuwWef9VawxNOBC1aq81E5jrLRO3fucvo94YTjPW7azz77zLz3ntdNe8kldQxubhpjNH36zEwGHyNLDIE03J5uI4vbtEULr5GlH3fDrYyLW9oXXywzuEfdDSN89tlnOb8aP36Cx5uES7oU5xo2AAAgAElEQVRBg/qGoxPRlylTXrJEVhpHDB06tHd+Xr9+vZk0aYrnObjS3R4nDL7/GKh27QucMth8ecaMWYajE2kcG+AyPvLII+yvwIPFx70Q8vsuXTp5jhhYLN2tXLmy5tJLL3F+RenpxYuXej5Tq1YtU6XKuc7vWExxy7sbXja8YDQqkPqPMg477DDTuPENzhED+oLredeu3U43p59+urnqKrfufmw++si/EF5iiLOhYQ9mzpxlvv/eSxCaN2/qOWIYOnSY2bHjT+c5EASwkyOGVatWm1df9Vb2LFXqRHP99Q2c71Ae3H9syHHIqadmHDGMHDnalml3t8aNG5njjssgCBMmTMxEEFq3ziiJ/t13a+w8cjeOpCixLASBIyk/LnXrXmaoKitt8uQphuMtaRwxMI+knDxHDByn+qt/clQkjc9Axt2tUqWKhuMvae+9N9d89tnnns/wdz4nDRInussczwkPAtVv9RZDAmElCB71y9oP1D3fuTNjsaUXDFqTJk2cXUBQHoScClL0l1jOqXLPGqRoTG4FKSaOgZolLfcMYerdu7ejpFruOQEFCxPlht3lnnMrSJHS0+6FME6QIp4BSntLy0qxJhYw3nl/LfecW0GKboKQNeud/Ft6zVGvOWZbr7JKEJjkRPa6WXXULYb58+ebd955xyPz3rrF8Oyzz3oYeZxbDH6yMmNGet1i0GuOes2RyaXFmjJMzP58zVEJQraXr6QdqAchB/BVgpABohIEY5YuTbdrjlqLAQ3WWgzpl2pZCUIOLGBJulCCkAP4KkFQgtCuXTsHBCUICSgqV65scwtIw/OFB8zdNJOiZlIUfchKqmUlCDmwgClBSCCQLA9CdmBWgqAEQQnCVvP00097ppESBGNWrFhhXnrpJQ8uJ598smnRooXzu6zEIPDlNm3a7LcxCGPGjDHkUnG3vZEoSQlCdlau6O+qByEao8hPhBEEEplIJPKBWKwpqPKbHjHsX0cMXJ+bO3euR4cvv/xyU61axk2T3Cr3TAZQMoGm6kHo37+/IbKcxjwiMNDdjjjiCLtYuoMUJ0yY4EmURBT+DTfc4HwtSHf31RHDggULzJw5czzv1LhxY1OmTBnnd8QDuW/XHAwEYfbs2WbJkiUeXOrVq2eqVMlIrKUEIXJ5ytYHlCBkC77El4MIAgGIBPeUL5/I5Ld582Z7bZD/SosTpFiqVCnTqlUr59rNm2++aRYuXOiROipIkec0bdrUISu//PKLlWXnzp0eWXr16mUOOeQQ+zuyLfqDFInQlp0y1xNnzZplPv/cew0pDkEgWl+IExnVnn/++UwGnwhtkYXsh/6odP7WvXt3Z+F49dVXzSeffOLp56qrrjLnnJPIGMgVKPpwZwzk91xFrVgxcW2KxYd3duMS5xYDUfTgQopi2rvvvmvmzfNeRfUHevmLNTFG119/vZOxjittw4cP96SrJVPgLbfc4rxj0C0GdqeMtVwLDDKyUQSB2zWMEX3R1q1bZ8aNG+e5Fsvv+/Xr57wz+uL3IJx00kmmZcvENTvwnzZtmlm+fLlnjOIcMZDGWq6iortg525xCALj2KFDB+f64eTJkz3JxOgvDkFo1KiROfPMM+3jN27caHXXfT2avATImyzV8tFHH231RQq7BY1RHILglgV9GTLEm9WRfA1dunRxoFq9erWdA+7GPGQjk0xfooIUIW/oS+l/yqajlxA0rqS6W5QHAULEe9O4rvjyyy9nGiMlCB5I9/oPShByAOIggkC3TNBLL73UGoJFixZZd6O7xSEIGJrq1avbBRUj8NZbb2Vy3UURBJ7JXfHLLrvMcGc5TJYogkA/nBNiIEkZzULovxsfhyCwuDPRWVDZUWK4/AY/iiC4Zfn5559tfQr/Heg4BAFjXadOHWsgkcVPIOIQBL4rYwQujJE7zS+yRhEEPsOz0BfGnF3lqlXefABxCALfZQy4/saOE1n8YxRFEJBFcCEnArJIvnv3OEURBPS7Ro0aVnd//fVX895772VaNOIQBNJy161b1+ZcgHj5xygOQUBuZCEfAoSHeAh/3pM4BIExuvjii62+kNfBn7o7DkHguzVr1rQEjFwWyOLX3TgEAcKO7vIeQbLEIQjIQh0X+iI3ARsQN0EO0l02F5AAd+O96Yf+iDP55ptvMlnWKILAd88//3xLNMDl/fffz6QvShByYMFKoQslCCmAFfbRMILA5zHYGMqgBB5xCII8E5aOIQhK5hSHIIgsyONfvPgbssQhCHyOiRwmSxyCwPPog76CZMHgxyEIUbLEIQgii+xa/GMchyAIfrwT4xyUEz4OQYiSJQ5BiCNLHIIQJQt/jyIIblnC9CUOQYiSJS5BEH0JG6M4BCFKljgEIc4YxSEIUbLEIQhxZInyIMicES9EWLKiKIIQRxYlCDmwYKXQhRKEFMDKCkFI1n0qBCFZP3EJQpQscQhCFFxxCUKyfuIShChZ4hKEZP3EJQhRssQlCMn6iUsQomSJSxCi+olDEKL6iEsQovQlKgYhSg7+HpcgJOsrLkGIkicuQUjWT1yCECVLXIIQ1U8cghDVhxKEKIRy9u9KEHIAz2QehKhFOSpRUhzxlCAEo6QEIRgXJQjBuChBCMZFCUIPe8yGZ6RSpcqm4D+xRnFsc7p/RglCDozg9u3bzK5dGQF/cbvMkyevuf32/s7HOQMcNGhQ3K87n+Pc7sILM3KYk73w//7v/1LqB29Gjx49PEGKZHVMNbc5ZAUvgrSZM2eaZcuWpSQLHgSC29xBitR995+NRnV65ZVX2rv4NFzcROu7aw5EfZ+/cxbfsWNH56PESyBLqo3Fp0KFCs7Xhg0bbn799ZeUusGDcPPNGSVzOQfmOlmqjVgUYkmkEbDnj3eI02efPn2cIEWutA0YMCDO1zyf4Qyd2ABpU6dOzRSrE9Up+kIgr/sWA2MddHyVrC9yNkjAKt+dMmVKpniHKFnwIODNkCDFr776ygbbpdoIQKSuhrSBA58zmzdnlHKO0x/Bs507d85x3UXn/DEIceS5/fbbnWBrqtoSVJlqIxblvPPOc76mtxhSRTC1zytBSA2vwE9ntQ55YlHu5vRJsaaxY8elLBHGvkYNb4Ekd7GmOB0iy003UaypqP04tdypIJcqQaBwlLtY05tvvpWpWFOUPBRratjwelexpp9s4ZxUCcIll1xsypXLKNZEUSJ/db4oWSjW1Lx5M+djVMSjn1QbxZrOOisR/U574YUXPcWa4vRHsab27TMSMq1f/7OhcE6qjWJNlStXcr5Ghb9UiRNf7ty5o6dY04gRo1IVxdSqVdOcd15GsabZs1/PVKwpqtNEcS+KNRWxH00U95qVEkGg0BrHHWXLnm37SFRzfCVTsaYoWUqUKGELRwlBgFC++qq3mmNUH/ydYk3uao6jRlHN0VusKaofqjm2apWRb4FiTcyjVJtfdyki5i7WFLc/d2E6NkPjxr0Q96vO5y66qLZD4vilEoSUIUzpC0oQUoIrZz/MokylOmkQBKosptogCNWrZ+wI33jjrUzXg6L6RJa2bblLniAIXPmjsmFWCAIkQdqbb84x7KJSady4SBCEhCw//pggCKnuCOvUgSAkqvPhQaCPtWt/SEUUWwiICn7S1qz5PktG1l8yl8p77KJSaUWKQBBucr4CQcBYp9ouuOB8D0HIqpHt1KmDhyBQcTDVRjT/eeclrqLSZs9+I2VvBvpC9U83QYD0pKovl15ax7lmGlbuOer94pR7juqDv8cp9xzVT5xyz1F98Peocs9x+uAz7s0QBIGKpqm2Cy+EIGR44rKqu3Gfq8WatFhTXF3J8c8pQQiGVAlCMC5KEML1RQlCZmyUIGTfZCtBUIKQfS2K0cOff+7I9CkIQp8+GYlvSLwyfPiIwM8VLFjI7oh2796V6e81a9YwtWrVcn5P/Xl/Qhr+WKBAQev6/OuvPzNdxUOWTp06mUMOKWb74UyZWvd+DwLfpx9+HxR3wY4Qt7G0116bbb788stMMtMHz6RMtv+IBsPWtGkT54iBXT9n0/4jhrx589kcE2AStFskGE92G3gQOAvGA+BvYEsLkoVIcDwr0riD//LLUzP1IbKASZDX5YorrnC8GXyZ4xtyJoTJwhj5GzEIXbtmJL756ad1NiGNvxHbQs6AMH25+OKLPOe4U6dOC7y3LvoSpLs8s2fPHh4PwqBBg0NlCRsj4lXcHie8PCtXrgzUl7x589hkTUH60qxZUwM+NPSFsfbrRMYYZZ5H6GLdupc7ic347rRp0w1HSqnoy7HHHmuPpOSIgfwRM2bMDNUXdHrPnt2Z/l6/fn1z+umnOb8fMmSY2bIlI8ma/IFcIn//beyc9jdiM9q1y/A4hetuYk6HyeLXXXQO3cuMC3M6rwnTl759+zhfIUHayJGZj6SidPeSS+o4yc/oLEp3MwmZ4i+UIChBSFFlUv84Bm3Tpg0BxjO63DNfwtgUL36YTRqyY4c3vzl/j3uLoVixQ0z+/AXM5s0bM+VTiJsHgbvOhxxS3BpqgjP9Le41R2TJly+/2bJlUyZZ4l5zhBwULXqI2bFje6BRinuLAWxpyOJffOJec8TAFi1azGISZKzjXnMsXvxQS5w2bdoYSBCiMinyJXJmFCtWPBSXuLcY6IO+0N2gOJs41xwT+nKoHR/Gyd/iXnOM0pc41xyj9CXOLQbGBv1P6MvmTLjEveZYoEAhS2i2b9+aKUMlfce95njooYdbGZjT/hb3mqPoS1zdDUqUxLPBBRIWZOv4e5xrjlG667/m6E8TLhiI7qZurb3fUIKgBCG7OhT5fSUIX2TCKMrgx0mUFGXwlSAEEyclCMG4KEGIR26VICQ8jgdD0yDFXBhlJQhKENSDoB4Et6lRD8LvgVe61YOQCwtSCo9QgpACWFn9qBIEJQhKEJQgKEG405MHISjnixKErK4ye+d7ShD2Dq6eXpUgKEFQgqAEQQmCEoRcWG5y9BFKEHIUzuDOkhGEO+64I5JVpxqkSFndoEyKUUGKPXv2NMWLJwKwgso98/t9EaRIJDnBSP5bDFExCGRSPPfcRBIebhZQ6jYoIVCyIEUyKfqz0flL5tJ/VJCiu6w0nx88eHDgLYZkQYpccyR7obQffvjBjB6dOfdA1C7MH4PA+/gravKMqCDFvn372uqgNJL4BGVSjApSJJOi+wYOtw+CbuBExay4gxTRF97Jf4shSl/IpCiZN/kuGTP9lSNzK0jRXcoZfJ955hlPqXjRgWRBiuTw6No1I88K2TKZR/6WapDiyJEjzU8//ZSpn6ggRWyd3O6gumdQJsUo3SWTojsLqAYp7t0FTAnC3sXX9h5GEPgbKYUpb8pnli5dal5//fVMEkURhJNOOsk0adLEXvnjpsPw4cNt6VZ/iyIITZs2taV5keXzzz83s2ZlzroWRRAoBd2gQQMb/Y4s48aNs6Vbg2QJu8XAooMsJ5xwgpVl8eLFtgytP5I+yuBj7LmihcybN2+2VwIxTP6WjCBwXbBDhw6Gq5c0yg1TttjfoghC+fLlDQsQuHCddejQoYHR68kIQiKZVVtbmhcskGXu3LmhBj/sdgclj8k8iCws7OgLhDDzGCW/xUAgaalSpewtlE8++cTMnp05Y2AUQTj77LNtKWxkoSw1hCfo+mcyggBxQv9FXxYuXGjmzJmTsr5AJomSZ75RKht98csSRRCQBX2hRDVj9MEHH9h/mfUl+S2GKlWq2PLs4EdCLRZl5pO/JSMIfBdZILmMEXpLKeZUCULZsmXtGNEfuEBug7KaRhGEdu3aWd1FFmobUOY6TJYw3WUeEUyKLOjLsGHDrExhuptd8663GPQWQ3Z1KPL7yQgCCw8515lw5AsIMgJRBIG/Y/TZMVCfnp1lUEtGEPg830cWJh67uCBZoggChh5ZeC/SGiNL0BW5ZAYfWbjqiCxcp1yxYoXN7JjZyCa/5ois9IEsyIE8QbIkIwg8k8RNZcqUsTtScAmWJfk1R8YIWWSMwlI+JyMIggv4gkvYGEXtwty4sNsOy6sf5UHgGh3vRM4MPFZBuSiiCAIkjz7wXCHLunXrsqQvyAIu6C76wn9T1RdwY5xZ3JlH4OLXlyiC4B4j8GBOB8uSnCCgL8iC7iYbo2QEQeb0aaedZucyuATN6SgPAmOILMwDPCqMUVCLIggQFcYIMoq+BOULidJd9AVZqNOCLEGbD2TTa46Ry1KsD6gHIRZM2ftQMoIQp+coghCnj8SkCc+DELePKIIQt58oghCnnygPQpw++EwUQYjTT5QHIU4fCVnC8yDE7SPKyMbtJ4ogxOkniiDE6UN0N8zjFLePnNCXOAQhjjxRtxji9MFnoghCnH6iCEKcPvhMFEGI009O626cZyb7jHoQ1IOQXR2K/L4ShMwQKUEIVhslCMG47C/6ogQh3NwpQYhcCtLuA+pByIUhU4KgBCGumilBUIIQV1fUgxCOlB4xpKJF4Z9VgpAzOCbtBYJAStWsNnYtRYoUs7UC+JfVVqhQYZveeNs2ZPk7S91w3FG4cBGzc+cus3Nn5qCpuJ0iC2lZCUb6++89cb/m+RzvQj/ZxaVIkaI2n30iFXDWcBFZOOPdvXtnlt6HL4Et4x2Uxjpup4kxKmrjFHbtyo6+FLHBYNu2pVZm2C0nufXBN7tjVKhQERs8mMAle2NEKuygOiLx8M1jx4i2P+gLdgH7EpSCPd77kMo9n30n0mEH1XqJ209CdxmjrNs6kSWndDeu7GGf0yOGg/aI4Q9zxRVXZVd/9PuKgCKgCCgCBygCShAOUoLw22+/m6uuuvoAVWt9LUVAEVAEFIHsItC9ezfTq1dPey2TWxeVKlU2BQtpLYbs4rpffn/xooX2Di73ermv3Lp1G/P5518EXrfZL19AhVIEFAFFQBHIFQS4kvzMMwNM1apVlCDkCuL7+CFugsC9axITkQgF0qBNEVAEFAFFQBEQBCjHzWaSku/qQTgI9MJPENzpiN9++x0zY8aM/QaFkiWPM/369TUFCxbYb2RSQRQBRUAROJgQKFmypBKEg2XAkxGEJ5540rz/fuaUqPsKG9jriBHDDP/VpggoAoqAIpD7CChBOEiDFDlicHsQHn/8ycCc6agkaX85hzrssMNNnjzmn7SlX5mvvvoq9vEEV7QqVKhgTj75JBv/QBpWcvIvXrzE5lr3Nz4zcuRwJQi5bxP0iYqAIqAIWASoHUGKaD1iOAgUwu1BIHf7F1984eSPT0YQ3n57jjnttFPtnXAaMQvc033ssSds0Z04rUGD68yjjz5qyQH33Lm7TD/kR2/RolWmIkJKEOKgqp9RBBQBRWDvIICdpnYExeOUIOwdjPerXt0EoUSJEraICrt3Fur77rvfvPXWnEzyNmlyo+nf/zbTp09fW+Fwz56/zSGHFDO9e99sqETXoEHDwKp87o7y5ctr3n33XfPRRx+ZgQMHmk2bNpsCBfKbU089zQwdOtjcdlt/88Ybb3qeXaxYMTN9+lTHg0AVQir3UdiGwBlylmtTBBQBRUAR2DsIcLyL95hCekoQ9g7G+1WvfoLgFq5371vMrFmvZJL3gQfuMxUqVDStWrW2pXGlURp2yJBBpnbtiwKrtbk7ojrc4sULTefOXTOVOB03bqz55JNPzRNPPOF5NtXKPvzwA1u1jDZz5kzTp08/632grG3Pnj3MDTc03K/wVWEUAUVAETjQEMBbrAThQBvVgPfJCkG45567zdVXX23ry5NGF2WhcTaVqNl+eSRBgIV+/PFHth772rU/2H6kjGz9+teZ0aPHmKFDhyUlCHg7Pvjgf2bevHnm448X2vgH+q1WraqpVauWqV69uj0G0aYIKAKKgCKQcwgoQcg5LPfrnrJCEKpUOc88//xzdidPoKG7vf/++6Zr1+6xEi2NHj3KVKhQ3nB04G47dvxpOnToaBYtWpSUILj/CLlYvny5GTDgGfPOO+86z3/yyScMhEObIqAIKAKKQM4goAQhZ3Dc73vJCkHYVy/lP2IQOYhFePfd98ySJUvMvHnzzY8//mjI+HXJJXUMaUFPPPHEfSWyPlcRUAQUgQMOASUIB9yQBr9QqgSB8/6rrrrSnHvueYEdLl68yMye/bpzXBAGI5m42rW7yRQsmDmHN3ENo0ePNn/88UdSD8JPP/1k7r77HjN//kc2aIbI2tNOO83GIlx00YVZDlokvzieEd51Xzc8I/uDHPsaB//z5ThqX2ODHOgLt3n2tSxBGO1vMu1verSv5SEYnH/7i/7EtTdKEPa15uTS81MlCCzCffv2MWXKlHEkLFHiGOfnadOmm/79b488YuCYomfPnp635Hf0zy2K5s1bmpUrVyYlCB99tMDceuttplatmqZGjRqGIMlSpU7MdOwRF0qKVY0ZM8asXPm1OfXUk81NN7UzRx99VNyvez5HfMTEiZPs+zRt2iTlPlavXm2JFt4Qrp82anSDKV26dEr9YHjAksnMQkGeCwnwTKkjY8ymTZvMtm3bDElSstIgc+ABkaOBCwQxK/JAHCUdOPex8Ral0vju1q3e8rtcoYW0ptJ+//0PM2TIEPPNN9+aM88sY7p3724KF069aA2ySN4P3gdZ4jZyh6xfv94e0x1++OH2a4w3eIN1oUKFzLHHHmsKFiyYtEueP27cC+bMM88wV1xxhfPZ7du3mwkTXjRHHHG4adgweQAwz0UWApAPO+ww2wexRXj4+C+bgWOPLWEKFAjPhMr7vPnmW3bu33RTW9sXG4ZXXnnV/P77byZ//oLmvPPOMeedF7xBEcHXrl1rJk2abDcKxEVJI7BuyZKlpm3bNpE4I8sbb7xhvvtujenatYudQ+vX/2zGjx/v2DdwbdKkiTnuuPB5gSwvvzzVXHzxRaZSpUpWFObmq6++Zj2fmzdvNtdcc5WpX79+0jFCbxkPArKF+PHdDRs22A0Z8VfM8aCGLsj3KR991FFHeuYefTCvILuMXdRcUIIQd4am+edSJQju18XIX3rpJeY//3nEbN26zTz55JNm8uQpKSGCoh9//HGGwMeLL77Yxh3073+H+eGHHzL1E3bEkNIDQz7MBKGS5YYNG+3iRcImDO4778xxjF3c5yxb9n+mZ89e5rvvvrMLKjcvUmnIUrVqdWvUkYUF5NRTTzXjx49NaTFct26dWbNmjZNjAqwhdmK848qE8eE6K98vX758lnbKL7440Xp7WMjwzrBjmjZtqildulRcMeznWMhYPPg+/bD4YTBTaV9++aWHIGAUwbpixYpOXo+o/ljwbryxqZXlsMMONX/8scGcf34tM3TokNh98AwMPPJILA8LB1eFwwy9Wy4MPkSS76CrZ555pjXw9AeZo09+RodISOaPF6Ivxpb6Kz169LKLe926dc2gQc/Zx6xatcr07HmzzUtSvnw5M2PG9EBY6IPF5ZtvvrE5VCC03JWHJJNXhb+LLFxFBuegK8mM7e2332lvNUH6Xnxxgg0yfuaZZ81zzz1viQXvCvbDhg21R4j+xt+JQWKTwjzq2LGjuf322+zHWNTat+9gSfekSZOSkn/GpW/ffrYv7M6SJYvsOwwfPtw88sijzvigN0899aQde3/jvSE299xzj9m8eYtp1aqlue++f9mPcX28R4+elqRA4ho2bGD69+8fiC+LO+PM+9DYCIEFxIm4q4xdP/OznB1vf+P4lbFh3oARc/mss86y74Yeff311/ZvkouGOZXsaFYJQpSFOED+nlWCABO+5ZabrbJCCl54YYI1EKk07tR27NjB7o5RfowAjBoDENSCCEIiOHGFVfgyZc6wk4D8CvyemwzsQOI0dus339zb1nrYuHGTGTx4sO2TIMfrrrs2ThfOZ7p27WavafJ+GMlUCQKTb/bs2ebYY0uaE0443u6EuNEBQahWrVpsWcACQ4cxpk+MwPHHH29KlUptUYagkGGT3e0pp5wS+/nuDwpBGDlyhN1tYRgxQkGLVtgDMGwsyMjDYohhzYprFizAhsZCivEFl1RiVViEmzZtbnW3T59bzL///bAdp7fffsucfPLJsTCSwFr0naMxfmaM0Fl+TnY8wGdl8eV9IBRgwqLBWPEuLCyQRBoEM2hXCJZ16lxq85isWfO9ufzyyx2CcPXV11qiDMnASxhGEHi+ZGDlmexkIQiMF4sP48S/X375xRJ/3g1d8rf//vcxM3bsOEM+Ft5DCMLPP/9iPv30U+vF4MbTvff+y1x55RV2Y+LHiOedf35tc8YZp5v/+78vPQQBr8oNNzS23ocBA55KqnvPPjvQDBs23Hokf/jhx0wEYfbsV634EASwDiI8zP3q1WvacYFgkz9GCEK3bt0NHlDmNLoHcQ7zrDCGeCFksyAE4euvV5kNG/6w/TOPuMWFjSQvjL/JcS02acuWrebrr1fa+cezmVPMAzYP9MF4Mj8hqmEyKUGINcXT/0OpEgQU8eabe5kuXbqY/Pnz2R3qsmXLHCBQelySUdUgUczx48eZk04qbRdRvrd9+zbbD0bpqacGZMqk6CcIGDcyLsruFhcepapxaWI4cC2OGzcmqUtTBEfme+6510yePMkweXGpMwnYfbALSaVt377DYtO7dx/zySefpEwQ3M9iIRg48HnzzDPPmBdffMHjLo0rE2OBwWVRi9oZBPX5888/W/KHAcH4Z6UJQXjggfstkcuKJ4NFXXQN/cHYYchSIRl+bDGOkKhzzjknpX44VmjUqLG58MLa9sjtP/951MyZ87aZO/dd69WI01h4WViRH2MsnhoWUzH6yfoBD/QcosDiwXdYhCE8eAwYM+YI/SYjhrw/n6lSpZq59NJLHYIgxzBt295k50IYQUBGiAF6xvhAcCAI/sZCh1ctjCDwDDwxY8eONVOmvOQQBOkH9/pnn31uOnfubK677jqDLgU1FvQ9e3abiy++xEMQuJZN3hVsApuHqMamBZLA5sfvQRgxYrgpXvwQS7ySzQnmHWNTufK5lkwKQQOtcN4AACAASURBVCBXDMSiefOmdkGHVAbt/JFR4lywa+AnBEHmQrly5eyroEuQTXQ5WWMDtHx5whZwNR27wNhxhIm3CJ2CGJB8Dl0MakoQorTnAPl7qgQBptyxY3tPDIIbik8//czuAqIIAkaiQ4d2gZMCYzNgwLOZjhn8BOH111833bv3tNcYmaiDBw+xz+3Vq4cxJo+h2BS1y9ltRDUhCBx1PPzwIzaugRwLt97az3Tp0jnq64F/R7bsEgQWZ+IxaBMnvphyTARG9dtvv7VnlyxIuBXjuK/dL4TRwNAxZhjNk046KeVjBgz+7bffYbvNmzePDXIlY2Yqxx3oxWeffebs/iVBVqpHDPJu7JoglyzocXf98l0W5zZt2pqFCxfZXRuEskGD+uaxx/4bGxvxGPBdns/4sACwm2Sc4hAfvhNEECBgHBFAoCDg7MqTeY5YWCpUqOQhCPKujRvfGEkQ+Cx9hBEEIT8sLBwxJIuJeOyxxzMRhO+/X2vuu+8+6xVgTkyb9rLtJ6xxXFKr1gUegoDHh+OFAQOetscYELuohixugkCM0gMPPGS/ljhyK2eeffaZSK9c+fIVHYKAHp99djknkBsvWLduXUzv3r2TiiMESwgCmzPeU7x6EELsczKCIDrHPEbHINlCEPh/NmcQFcZJCULwcOTZcpAWa8KIuFtYJsWoSbW3/u4nCKNGjbaL+ahRI21yJDI7YmDnzHnLxhJcc821plOnjqZbt66RIglBIEAL4nHbbf3Mf//7+D4lCBjcBx540AY4/fvfD2UpSyTEALc1CxqGCSIV5N4NA4gFaPHixfY7LFgYJHanqVbUxEXKDpsjkvnz55tHH/2vuffee0zLli0ix0Y+gNGCILBjY0eMgcSg4TKWmiCxOzPGfP/99zaYj513KkSFZ7AQQtxOPPEEu6ODKHz77Tdm9uzXUjqGYXw4R5ZkY/TNDjyOB4HPhhEEjhPwJrB48J77kiBA2iErLEp4FqK8UEEEgcWP2KR1636yY3bHHbebdu3axSYIjNd11zUwbdq0NsWKFTXPPz/YzJ//oaPXYR35CQJ2BftQs2ZNm+TtwQcfNHfeeacNuE3W3ASBY5Bq1WqYG2+80bRt29r861/3W68PieOSNT9BgPhxJIAOSWPHX7ly5dBuOK5BT9EPdENiVtA/yAVzHIKAV0kJghIEk6oHwQ8ZbikihYmM3bZti3n11dn2PCuVxm4C16YQlC+++NxWdPQ3P0GYPHmyufPOu83Agc+YevXqmalTp1oXZfv27Wzkcb16V5j7778v1i0CIQg8A/cagVrsOPaVB4EFHeNERsnOnTvZOhdxdpRBuGOgIQfsllkIg84ow8aLHRcLDIZH+mFXimsyKtI5rE92MZA3DNTAgc/GVhWMGO9A4CdeA1yuLDzsJFOJ/OeBcoaPgeT7qWI7deo0Wy9k9OiR5oILLrDkh9gTzsVTTffNe2GQGSPO6PHwMEZxriiGEQQIE2OG14cd4r4kCLwTBJFxw/sU1YIIAuMFTvTFvDznnMrmuecGhl5l9nsQnnzyKRvjBKH788+/LHkqW/Zs07Zt26Tj5ScIbtmZozVrnm/t3+OPPxabILCgQxjuvvsue1MDDwV1b778clnSq9l+gsAD2USgO+jv6tXf2GMPyGVQg5gwXyCgeJgkcFSCWvkOXiaIB2ROCYIShCwRhObNm1kD9tBD/zZ33nmHadasqZ1wGAB2hiNHjoqyATbqGtccwV07dmy3Z/8YO44GtmzZbJo1axEZg0C8AQWjmGhMUncjardv31vNsGFDAs9D/QJSGIqbB8jALgOXL7v3p59+0lxzzTWR7xP0gaweMSDDjBkzbdQ/iyiBkkceeYSN7E5lp4whwohhCFjcMQT0EXQ+HPaCv/76m9210TDQLGJ4D6QmfFxg/ve/D61xZzHeuBES19HqDWMXt0kMQv78BWx0O/0RfIVLNRVceB5GlTPbsOC9KJkkqPWhhx409erVNcRYPP74E1an4xxpSf+y8PFf5hCEDNINAYvT/ARBghTpDxJVuHARuzs95ZSTkxK6vXHEgAzozzffrLZkhUWJcYKAJyM/foLAsQLjRSDlL7/8aud8zZo17FFBWIE2P0HgiIuFmMYRBX/neADyfdVVV4VC7ScIb7/9jlm/fp09IoM4QwrxUt52262xCQIfrFXrfEPswF133WXuv/9+s2rVavP+++8l7cNPEJjTzAn+y/vIcUNYMCpHhXz29NPPMEWLFnGwIw4HQsCYlC1bznoY+FyyAngagxBndh4An0nVg8D56KRJL9rIXiYHO3TIwi23EKj1sGXn/D6x2Ic3rvVw/adly1aGoL6XXppsrzix05g69WXTqFEj88UXGcGP9OT3IGCAuBoF2fAvECxkRGWfeuopsXZiGKDGjZvYiF4mGIYWQz1hwnjnfnmqw51VgvD662+YPn36WCyJ3Oa9MYScb0cFILllhBC4i2nxtzguXv97SjwJY4N7Nys7doggR0IY+b/+2ml3KmPGjEoprwLjLeeu4IFxZBHMSgwCbn12StzGibNT92OC9wJ9wbCWLHms4YycoDP0OJXcDhh9MOXd0FkIHLv+uB4NIQh4UFiA+ZmFAH1mIeZnCB1BkMn6TEYQmjdvYYMdkwUpgo/EIOClkngV5hP6gyzyfMi35GwImlNugsD8JUiSWB6qxvI+PGfw4EHm8ssvC52SfoIAvnI7auDA58ygQYPNwoUf2/mVbPwHDBhgRo0a4wQpPvLIf8yIESPtGP/115/m0EMPs8HDUbd78Bg0a9bM3HVXIg6HIOxBgwbZ8YYYkmeBG1TJmp8g4BGApIhnT26P+McZjy62QDYLcjOB2BuIKMcmK1Ysd4IT0UNsX7KcJ0oQUl0N0vTzqRIElHDKlElmwYKP7Q6XXSAuKwIECQhkp9u2bTsnkCwMFnbppEFu2rSZzaFARDJuNna9ixZ9bK699jrz5ZfLPV/fm3kQxMDhhiToi0WQ4MSwyOI4w41XgvcheC2VxrkiLlFJKsR3MfK33nprSnkDMKYsFCyEGA1c16m64t1yQzZYEN2JWuK+F8YJI//++x/YxYFdGwtrVhqGkvdC7yBzcRdT97NY8JAp1dgDdx+QU+7ok1iL3Si3e1KNzQBT3od3ABfmVyqEhYWPxZC5IcSEcadP+kYe4jXieFiGDx9pTj65tLnsMu/CS30V7vFffXX4ThtckAWvDuPCP3SfBYzfuxvkMBlOzPu3337bnuvzOZ6NR3Dt2u9tsiVyDvBOUY25XLt2bVOxYgXPRyGHixcvNS1aNIvqwgb4kssAW8W48C4LFy602VvBu3HjRrGuUnNUWL16NUvUaOgfwdzMdUg/XtmocvXMY4ipXMdl4cfjhFzoTZjuoOe8h3/TBgEQ/UdX0CPejzkVNS+UIESqzoHxgVQJAoYMtztBOmPGjLWuMaLSUSrOyadPn2EX+qiGa3fWrBl2or322mtm27btpkiRwuaSSy6x54vszthZudveJgjyrIzEI1FvoX8/2BFAVzDAybIDHuwY6fsfeAgoQTjwxjTwjVIlCHQCu+Q+77nnnmOvK0l2s2+//c7ceeddTnKWKAi5nognQc5b2TETZMhZ4ZQpUzLtPHKLIETJrX9XBBQBReBgRkAJwkEy+lkhCEBToEB+SxTy5ctr8CCyi8Jtljjni1fkiFpIxDRw7Yi2e3cijSruLp9X0v49iCBwDofrLajhnoy6UsX3IDh+b4W7PwhMHDc27nd/jn/ph6MKUtBGtYR7eD0O28CPct0wLHmJ+wu4v93Xn9x/g9TFuYGAEcCl6XcRS1/0EZXjn89KLv6gF+LII04tBcnpH9QHYwMucXbxuFEli6K/r7j6IvUPwsYybkxEsjGKK0uU7uJGjnO8kEwW9C3O1VjGiPmYHX3hu/QRlk01Li7YBPrZm/qCPYpyxfP8ZLJwPIB9iXOslGwexZUlSnfj2jolCFGW/AD5e1YJwr54fT9BINCIyPGwhmHs1aun6dChfWgsAdd+unbtbq//hDUCdgiKoiBPUMOYEYBHYqZkCaJIyUswUhjZ4DyS3PfkLQhrZ599lo3eJggsqGGMONt86qmnPXfr/QSB83Kir8NkAQ9ugXCtMKxx35obFmTDDGoYo+HDR9hz+jCDT3Gjfv36mRYtmoeSDa5v9ep1sw20CmvUiHjiicfN6acH48LCQ/pcZAlbwCAYBIqRMz+MhCEDt13IpBjWEkm7ng8do0SQ3RArT5gsLBi3397fXoMLW+C5hUHWTwIkk+HyzDNPh14vhESSLZDz+jDiBAkkLwhXAsMWMnDp06efPVMPaxRje/rpp0JvaBCUO2zYMEMQoTv+xt0fBAFcKIAWhguBkaRNX7EimSxVzGOPPRpaAI15TBzQkCFDQ+c0OkI+BlIohxFlAq3RF4JrwxrXLbnuG3YFFH15+ukBNt16MlvHjaBksQzkECGTJLc4whpBu88+OyAy8FcJwr5YAffBM7NCEJikNWoE1wQgkyJVEeM0JkZQoBpV8ujHbzzdBOHxx5+0hVMI7OEaor8yMxOcTIjsIiAJBBn5G7smssRxNELqVe5I+xtBQFzRgyRwu4KoZ3/DiLAgU7SHglNBi+5rr822O4kOHTqYW2/NHK2M9+HGG5vYYCLu1Qel62X3O3fu+xYzsioGZcaTRZCdQFABGWSnAA3Po6Jd//63ZZKXxY/I8R9//MFe2StW7JBM74ynhGp03K9/4YXx9raIu+EJIbc+xInP1K59QaBKgC3v1aNHN1vd078AQZa48spYcZ0waMfGGFPDg0jycePG2oqB7oYekf1uwoQJNujtiivqZZIF79X//veBQfcgCZBKf0vcwW9mfvzxJ5tiOSjKm5se8+bNt7dFyPYXFIwnCw/vQsEh/zuju9xkYWEIk4XrnQ0bNrJBgWDrT3KG7MhCjA96TXEiPy58hgJrgwYNsQsCVweDGnVBduz406Y47t27V8AYrbKVTxlHsMUrGDTXyBWBXnMLyq+7kBOSno0bN94G4dWoUT1QFsaZdyfeiSBiP3aQppYtW9sEWtdee01gUC47cfrh1gdJ1vy4oLt33XW3IdcFXj9SuPsbY8RcZB5x1bt161aZPkN8VosWLe0tBYraBXkQuWn10Ucf2SuF6EtQoOJ99z1gdRdPW506F2d6jlTAZNH+17/uMU2bNs30Gd65QYOGdowuvPBCW1vD35j3FMtj8zF58sSk3hElCHFWuAPgM6kSBIqXDBw40EZtBzUmaPfuPewVw7AG82eXRlrjoIZhZMHlOpF7Rw5BwIiPGjXK7gSZ4OzUwsogs5vh+iU7CQgCu3e5lfDVVyttNTUMLItBz549Aicnk+/55wdZ9o6blQRKEonMJEnc3kjI8uSTj9v0pUGNxE08L4FPd9OnT0ZaVX7H31h4RJagHWxiF/ysGTx4qM3TgCeBojQ0doLIiKwYWHYBGJ2gxo4cGSBGZJnkn+zGuHNOAiCuPbFg87cgo4UsvDf/2L3z7uLVYPeHd4d/LNrkBiBvQbC+fGm9A5CRXr162ch12Y1xO4BsnpCEMJJHn+gLxIj3Rwa8GnhaaMjJgsw48bshQwaH7mDZYeE1IRsnHhbGQsaBCp2MkVxJC/MEoRPoLgG8FKUaNOh5Jy05fxsw4BkrS4UK5W0VwLDrcehur1697buTEpj7+kI8kROvF4sg40PBs6DjFRY63p28JImqiANs3gcaEfB4DcAMHWJn7y7h7h4rZBBPBQsznidZmCHyVD1kh0zxNuqWhEXjkyOF5xGEDDGRSp7oLnqLJ4M6HcgZlvqaWgzoCwseuJCJU96d2wnoC/oN8SVhWlCDqPP8kSNH22uujz76iJMbJJGg7AlrY9BrPIdBiyn9crPillv62kXX73kCF7wYEFt0Cb0O8r5wxfu///2vrV9DrgqSP8k8Ql+o8YEucdOB+U7xtqAmukvGSbwakH+Z08iJ54B5gp1DliDvC/OWMSIG7KyzzrTjEJaeWwnCAbD4x3mFVAgCWboo0Rt155cYAq4phpEEMs098sjDSc9GIQbcE+a+sHgS2JlwPY6MiRih1157JTKHPh4AdhTspiAJTFZh08QddOnSyeYcSHZOiyy4PTHuGP3p06dZsoCB5Xfs6MeNSxSeStZYeEj3inFu2bKlZftc16tfv4F1E99yS2+7K0oW74DRf+qpp+yuL3HldLI1LLggkQfD+vLLUyKvXkGMrr++oQ0KxchC1iAMrVu3tjEQ99xzl2nVqlWkLBwh4CkAD+6D4ybFqHGti6toU6e+FBl7wY7w+utvsGPEgsdRDAskN1nQJRYlN4kJwpgxYoHhyAmjxg6IHRs7QZLkoDuvvDIzsmIjuJCbgzwf/fr1MZ06dbJZOfE0iTcKI5tsjMQ9DUECj5kzp9v4GXBCRnSISoVRsQoszFQfZAFl8e3atavVlyuvvNoGAifSDQcvPIIRC95DDz1s9RMvA7rBuIgskANkiTpLZ+FhB4osECcyjJKAqVWrNnY+cU35xhsbR+oLOQ7AAH1hjCCz7JBffPHFWDtX3osFGe8JrnLmM/OaVMpNmjSzXroHH3zAHkFEzSPmNMQSe0a+E3bot956m5k16xUr3/TpUyMLb6GzeLiQRRZm8lCQ7ZEaG+CU7CiP90FfyK8AkWM8Zs6cYUkytUtIs443cNKkiVZvkjUIErJgX5i/2BiwatDgekOKZVKb4+lIFu8ASaDmxcSJk+3GC30JihFSghBndT0APhOXIOCm5JyMPPyyY4UdS1AerlQUSVyqTNhu3XpYoy+NCYuCiueAicHiwE4IxWTRx1Cx8LFgM9nZoWJQ+KzcQyYW4Pnnn3PIAROCfsJkYeL063ebzXlPAiYY9Q8/rLXufvEcsPDSB5MaWdiVkDdAsheKJ4HjBILzcIGy8LAr5exb0psiC7hIumkJqhK3K6QJDwteA+5Q447GuGBEMHTsWINk4V45soChnKdDoE466WTrepfFiCuoUt0NY86iJrIgA9jKGLEA9ejRy+6YMfrkbcDoU+yKxQgMZIxwpYIBY8R9fWRhPPg7Y4ShxbOCy5zxgixRgZIdoexY/biwgEteBvSFHfpPP62zu+U333zTUM6WBaBHj+62D55FH+4xEn0BF/QFo88ulYUZWTjiYDeEvrjvjyeThbgL9AUsONP98MN5dkGGpAiBY4zoQ1IkgxWySNIuDCi4jBw50pQseZypWrWKeeklCgxVsJ4D2SGjs6K74OkfIzxdN998s+G/yPLmm29Z0oSuiOdAZBFcWFzcuLg9CXgQkAFZ8Bg89dQTjucAWdzBisjCOMsYsfAlvG4/Wn0l2ycEHGLLbl30hT6Y03L9053fAd2FQEIssSUcpxF3gJ6wQxYPR5As6It4ACn/jIcFcoJ36aWXXrKeA9z94jkQffHLgjzoC/MDbw8LM54/YmpI3878ef75gY6nKUoWapX063er9QBi3zi+INsixJZ6EYyre4zAhTFiTjMfRRbI7fjxkOzS1rPBEQd1PpjTQiYZe/RFApD9Y0R22b59+1osWrZsbl577XU7L5hH4lXg+aK7QbIkPAmPmfHjx9u5w7j44yOUIBwAi3+cV4hDENj9vPrqLMfAsuiwwPkTbzARmGhyfo4S1a1bzwmiokQrrmiZMPQRFGnMpGGSshhhUGT3zv8zsajFLgaWhYvERv4AKwgGC5ZEX2PImjVrbuvJ01gQ5fydflmgMDb+hlESUkQmN3bvuENp7Mg4T5UjDiYd7+SXhffgfeRGBe7YevWutEGEYIEhkUUQTMNwwVjTD++GzOzGICw0JvCMGdOcSo24wt1luOW9/LhATq655jo7DshCpjcJRuM9cF2y8PgbCxC4yBghB/LQcIPOmjXT2ZXyDBYXv75ImWO5UYEhvuqqaxxSCS4QOBqyMM6Mt7+BizstLOODax2MIHnoi1ylZYzAxS8LuNCHnBOzCCbiDX60j2NBlnoYLDzIQl/+xrsIQeP57NQluAxdxKMixj5sHrHQ4t6WXT0Bo4yRFHQirS8kSkgThIZFI0gW3knmm5xl8zl2qsQlEDdDY4wINPTH/QTpLrIwVowfngOSpdGk3keQvvh1VzIS8j2OP/DKCXHFsycZGN3v5B8j4kWIP1q/PhF0h+cAEiX6AomAwPkbYwwuMo/wUj733HP2Y4wftk70IEx3+S5jJHOajRAeDIgkjSMHiZFA1xijIN3FhmCnZPMjGUfpg7+5vRhhsqAvzEUIB41EU8QzycbgrrsyikkxvuDil4XnY7fZ6PD/zLf+/W+3eW2Q4/3359qba9KUIGRSqwPzF1EE4a235ljPgQTHMPlR9rAoY7+yEsVL8BERzOw0ZNfJgoH7K6wxUSU9rOwMMex33323c56NUUSWsJsDfuPGM2HpnOexA+LvTF48CyyoYQ3DjiwYhZ07d5kRI0bYCodE38vNhjCiIn3yXRYOcddBEqhlgZHB2EsxJIx0MlmYrExiMW4szAQ5IYvEhWAUwcVdIdD9brw3z5V0t+xO2dWdd9459gxZYgCQJdkYEaQnMRcYFM7WFy1abF2tggu7NxbTMH3hWWStlCyAfBZ9IdiTMaIxvoxRWPS137ihL3hUli9fYTCOctbNgk7/YfqCLIyRLMycd7PDpPQ3u1IWRN4TXMKu0MkiI7orcSroLrgIsQ0jKm59wejLGOHt+c9//ms9ERwrSBrlMDIp/YjRl8I8kKelSz8xt99+m+M5YB7RT7I57SYsLECPPfaYxYUjKXBj4aGPZLrL0YbEOTDv8LCgp+z6pT4IsoBV2I0K5gn6Ih65Tz751J6b1617ub3xQUtG+Pk7+oIsUrSMhRQPGAHC1EaQYGU2DLxTmL4gC2MkukuBOWKECEjEvS8LLX0EkUmRhTGS4kl4BsAF+4DuSsZIcJWyzEF2ym938SQ8/fTTNpi2RYsW1tYlI9nSJ0QaXNAX9KF16zbm448XmgUL5nuuuipBODD5QKa3iiII770310aGE1RFY0KLcURJ+IcyMRnEFclOoGrVqqFnXew+WGBl4kE6cB1i2NnxyRkZxjrZfX0MiRgklJ8gHGThnwSX0R+uw7AYAz/JwIXHezBRZeIjD7KE3QXnPWDlLIY0MMEAYqiYuBJExa4EQxt2BohBYgETI8dCD5YYMNkd8G4QHN4rqEkqWNk9gCny8Q9DLou/2zMS1A/vsnTpUkcWcAIP8BGSw3tUqVIlMGpd+iS9suxWGB/GCRkxWOIu5l0o2RzWeCb6Irtb+mOBQI9YzAVP3LLJ8l7gDRFDLYWngvQFfMPOr/0kgzFCX8DZXYOBRSwsvwO6gSzZ1RcIE4uP6Itbd0U/0HveJ6w+BHrx8ccfO7lExHUt+iK6CzENC3rl+W7d5bu8G89kjITkgGn16tWT5vEgil7qhyALY+7XXXAF37DGs9E70RfRXb++oHNh84i+/borcxrdFfvCuyWr54GtZE6LLOgLes9ccI8JNiqsPgXPxb6IZ4bvgol4VCUoFPuEnQqzL3hm2CT59cWtu+gLsgguBIRyW0kJQoa25dmydVtwlpoDkDSkQhAw7vPnz7eLH/+PEskCzkLNoiTKCUEIuu4EhLBjzndpKCdBQhgiGCssXiYfbDasdCnfRRYmC99jsmHEeD5uPowLys6CiMKH5X7n/J0ALBoGhDNQns8CgptTJgou/LDgTN6BxRRZwIbvS/ITduAYBeTg9xjIsMWHXaLEbCA/z+N7vB94CQFjFxoW5c0YkCteDBLPlCMfjDhGBoMCNlztDCNO7NjFXcpYc4wiHhcwE6OEuzysfDR44N1AFnABSyFZLG7IKljUqFEjaa4KcvrTwIKx4PmMEbokpCeZLMjw4YcfWr3lexAJcSNzjEC/6A59saCG1axAV3h/GvITcY7u8q4cBYjRTzZG6AtxMEJSRHfpE1noSwgUBCzsVgD6SVAlDX1Bd0UW5pG8A7tzib/wmzAWY2QREsk8kSuTjJEUfQIX9CWsQVTEwwPGjBG6xf+DlxCNKN2FrNDQF0ixjBHziHcUQkeq97DEWG7Pl1sW8EaP5HsEs4blE+H56Au48D3kEPLJGImHg74gGmE1W9xzGn1hLBhPv74wdmG3sfgsxAkd5f+Rg3mETmMvkAWsGTtiFsL0BXIgCeHc+oI+oi9iI7G5ciSnBCGzxitB+AcTrgy5PQgoEgafhlJikGUxx5CwAMmCk4wRi6Ki4Ex491UaJpQY/ChGTBEZJjALu1w9FNLBgipVEGH4YTsFt5HFELhLIfO3OGSFiQ9BYAJjcDE67muKeDp4frJFGSxYlMWl75eFhZDPsIi5Xft+9XXv/BkjMBTvQ6LC5RrHQGJkwxICsWORc22e6w5SYlGSM/xkngh0gp0/jXFCbjGk/I3duBDKZLs58VrRh5AveW+/vuChCWrI+8EHHziLqZt4IguGE9kwrsn0xU2cwNO9wKDXsignIyvoC7ggE94Q3NSCg7jq0RcWHwhl2DVTFkJZlP36gv7L9yAHYSW+eT5jzXOZ33xWFgrkox/REe7Ph5FbSIbscP36wiIm3kLIqnuuuscKWdi10+gDoiJ4Mq8kToa/V6tWLZT0MxeZBzyT77tzikDi3NUMw2RhAV2wYIGVBWwZZxkj5gWyMp/BGFsX5qERLyey8Hm3rYNUyfeSjRGyQPrFMyMxUWLrIK1sxrCbEMqwpE1+j6sEhNKPex65SZwSBCUITu1vf7IVP0HAYMybN88aNowJhkR2JjBzYbJRE5jPSuZCJj1uMZSaiYgBFleb+8wyyOiLBwGCgCyyiGHUxL0f5UFwezPYGTDZxQUIa5cJHbUjFA8CDB9DIgaF3RPyYQhS8SCAC8YLWcAFl7SMD56FsKxrbg+CeBHks7yfuMQxbBCEOB4EvkOsAZ/FSGHYhHQkM2zIzRghh7hUZWfCosHfZRFL5kFgPIUgYZghAchCnyzKdEH56gAAFcpJREFUoi/JZEF/2BEKieNoQoIFMY4sGql6EMCTHRs6hhFnjOT9ko2R24PAeDHG4hFCFuYXCxu/j+tBwIMHLugYuLDoSyKnuB4Ev76AOfIxt1LxIEAU0Bc590ZfZIyS4eJelHkHdEwWd2SR20WQlGQeBCFxvA+yYF/4Dn1C+kV32bG7F0m3jXHbOuYvxxoii3sxRW8YozCijZ0T7xckFH3hO+AKLjKn43oQeB88COiubCrkyCPKg8DVYQm6RRY8ZaK7kHDRF/UghDrK7B/UgxDiQeDXwkIxcig4kwYFReEwUPw/ux8mgjBuKjUWLFjAWQzcOyiMPz9jWDFyMGEWZb5Lf+JiZGFigrtdv+LWRBaMM5OG57P4yJk2xoAdoSyEfJZJITshFhy+S/+42TBSvBM7Mz7HxEUWWLucKXObgVrwshvmuxJJzv+zm2Kx4v/ZbfNdPuv3iCALhkVwghRIamMxzhzh4FXg+8jiP1PGkLHQCi4YDXaniXoWf9sdGbhgXDky4ByZz7qj7RlXxgBZBCcMEaSHPjBw/IwBwcBg7GWM3DEIyMIYuY9z5NwfXDHcYAv2vBOyYCzpD2ImDYPM+4os7pgVDC64IQt98F2IJBgyzrIQBekLZ8F4uXhXcGaM0BfGCH2lQRyQRcbEry/umBUMLu+MkUcWIR18lzNycUkn3NQ7DWmlae6odsYOWRgj0ReeDy6MkdxCkN2iW1/cMQjoCxijY4wz8wjS4d/hQuL559ZdiLDErKA7LJy8N+/EHOSzfq+VEBuZR+6zdkgxsiC/W18YT3b+spjKcY9bX8QTIfrC2PI5Iczgwju6PUUSe+HXXfBEX8AYvcNGIRP/zxgx5uJZTMyjnbairDTRXfrH7oEL3wMXdI2GTXB7gJCb9xNc3PqCx4fvIwNjxHflKNKvu8xXwcmtL0Is0F1+D77YOp7nvhEh+uI++kBuSVcOURL5wQXdZU779UU9COpBSOpBID3q8OFDDTs8GrtJJg4LAYZAaogz6dgdSGSvTDyM6N1332suuuhCJ90xExcFRTEx/iwcTGIWZHbNGAwMkvvKDdeQqOH+738/ZMjmSMONyE6JiYIs9CcueDGOTF6JSoeMcNWL+AhS+/pvVCADiwjvxnuw8+C/TGjZQbNgEiGP+/Hee+91blSwgIILxgxjLUyd95DzWBYNWcAwECRCQT7uKDMxwQW8JIaCySyy8HxwcUelgwG3GLh3fd999zo3CsAUXHgfSI+cO/JdcAFnNy64KO+5515br75Lly52ceI9kYXvYiDlWityMkZ4RNweHt4bXEjt+8AD9zkubbe+gL8ElWIYwQUD5o5K5znoCyl75RaD+/iF/vAaYEBFX1gMkYWdMmPKexMJjlEnIZfsjMRYoy8sHHKtle9i/AUX0V3wf/DBh0ydOnVszgFZ3OXWi1t3eQ/xhPE8iUrnWSSx4jbPQw896GTCg5hCDPg7+MvRksgCzuAiu130+557/mVTnDNGLAjoi9x6YeFALtEXxggi6I5KR35k4abJ/fff59FduZnEGPllkZsmggs76H/9635z4YUXmPbt2ztXXeWIDH1BLnQCXYLkoLvuYxe5xYAsDz30gBPfI7deeA+3vvBdFjBwZjEVUsGco7z8tdde67nFIMcv9CdXbJnLQpBZYIX8JzIrPmV14pFHHnEyJ3IEJmPE36QQFd8VWRgjkYXsiXyfq5ckH6O5b724dZexQV/Ah3cT3ZUcBN999615+OF/OzFePFuu5yIL8whdRxb+0Q+4yJEFN3i4JUUuEG538Fkwpw/JASI3V5AFXBhnZMH7KfpFkjlsnQYpZhAF9SD8g8WYMWPMI488ahelcePGmFKlYNDGKhiLB5NYdqpyZoqii9sMA9ymzU3WcNFYCOVKH8rKxJXKbRhbDD2TGGYNOZCgOJLdcJ+c77DAUodAUgxj9JEF5o4sTAT6wZAQPCceCBbK9u072gWTRiKgm2/u6SyGyIi8LC70w6SXXT+yyDUxcjKw+NCYTCNHDvdc0eKdMDh+WehDdpRM8BtvbGrPMZGXzIHkuacyJu/I+yAL/YAL2DJ5eRe54oicJJuhQBSNa4UjRpCl7zj7M9+HhPE5jCS7KznmcOOCd6BVq9Y2VwV4kxuCNNgSNAouyMlYswjJWSekS3IP8IyxY8f+M0Z7rIEZM2aUIwvGjEWFz/E+LGzyTsgigYssTGTmAx9w4fobhpZ3F0MrssixjeDCgoz8XEMlURNXvMASPCZMeMG56oi+gYuMEeMqY00f4iVicerQgSyKiYBEkhV169bF0UnRXRkjwVbIpJAJSfPMzxhycJHjBLcsvA/vjCwYbMZZyCTGvnnzFs6tB64osjCLTjJGMo8YI2QBF2QBX8Ye7LniS/pyGmM3dOgQJzsf3ggZI8gu4+/GBd2FqIELmSbJzMdnyM5HBsUE9jvtXA8aI74vV4XRJYitFM5CFuaRBDyjB7LzZx7xnmIb3GOEpxDdJfkY7/jgg/ebhg0bOrrLYsiizPPc+oK+gYsEunL1kyyk6CWbnLFjyQKamEeiu/RBX8giY+2e06QF79ixk3OcQDI4dFdsGIQFu+mWRQKI5eonOk4uEeY1DdI6duxo55iTMQIX+pAxQlcYJzYQQibZ5HA9cePGRP4SijjJFVDmBMQAu0k/2E2Z09h5cEEPqb3x0EMPmYkTJ1ldJBuo+zgSfYI40F+lSpVNwUIJ79jB0JQg/DPKKCx5ublnjKElG53cb0e5MATujIEsGuLSYkJ0797TThiSAL377ruGPP8QBHKo05iQTDqUHYXD4KDk/JN7uOx4IAgYDzIGksIXAztixDBn4mCkWQSRBSOGwrtl4Z4/ef6ZxCx+FAhih88dbqrUCVtGFsnqiIFFDoyBnL2zGPN8FmqYOYVlWAypNSC4IAvvIwSByeuWBaOGIUGmNm1am7fffscaIYwJaVklGx19II/gQh8squK6JMUzO3aef+mldWzqZQwKOfXlSmrUGLFz7dKlm/V4QFBef/11uwCwWyYpkMgiuKAPGDy3LBgIEs0MGTLEUHzrsssus8YWWchGJ8Fx4IK+yDU6cGEBFDcqRg19wXtCkpmZM2faGhokSpJkSaIv7sx4jJHgwvuSAY7CNjyfIjuMF1n6KOwlhcHc+oIe+scIWW6++RZLDsiEN2fOHLurJkcExYpk8RfdFW+GWxawevjh/5iJEyfa59asWcv+P5np8IadfPJJth/BRW4Aie4KLiwIjBHjQgKrWbNmWT3n/0m/jG4yBslkYU6QmIgqn2BB4CN1CCDZ1OyQWyhRskCsqAHB3GEez5w5y/l/5rh4wdBd/okHQeY0C4/IQvZCzsApKMYCTRVO8q1ITIBfFr++kP+AKokQIxJHkaqZ7IGkx0aXxb74ZUF3mdPMI55Bzg0WQchLtWpVbd0D/h+vqRAWdBbd5fM0/xgRQCiZFMm2ie7+8suvdnwgcqIvMqdFX9yyMM/xykybNs3q7nnnnWsztZLbhHoQ4gVDFvTfnUmRftzziIqwzGnyZZCNkb5J2oRs4klw6wvfFVsnthCvzOTJUywWjIu/BoQShIOBChljkl1zFMUmiQhJcGDeo0eP9ET0BsGEAWG3jkHp1q2bLUyEgWvXroMlDBS6waCEXQ2iT4wLRoRFGWM6evRoW3WNnyEMLODk/g+LQha5qKiGS5YdMkaNZE2cOVOtEIOCG5sdfNiVKcGABZmFL7HDGG1d2uDCIo0hYTcWVg5aZGHXyQ4Z8kBKVgwbhqdFi1ZOQSKwCbumRD8sghhUPBnsSEeOHGFdxeLZQD7IU9i1NvrASIMLi8yvv/5m2re/ydxyCwviGosV/2WRhsCEBV/J4sYYkUwIl+vQoYMteWOM2KnyO3aGYQGVgkvCmHWwCzJpcyEEYMXvpBAOO6BksmCwKGJFITFICc9FX/GAQRggI+PHjw291iayoLMsyOgwegFZgki1a9fe7lTRW/5F6QsFf0ghzO4L7xueCYryjB491hIG/hZWmlpk4VgCPWUxkDnDLpKMoMiS8DxlFHEKmovoC0mwIAfU7KB6IePCGLGLR74hQwY5CXmC+pAjHryB6C5zhjECl06dulisKMFMye5kuPAezCFsCXrCIoyesgGByEFYwCWsIJHoLrYkUT3yZzufwYCjgE6dOttKsnfffadp1qxZaDS/6C5zBgyEEODluP/+B2waahZk5nnY1UPBCY+JlFC+887bbf0SdugdO3a2ZBePHAt1sjmNrWOMsGsc/aGnECJkmTRpsh0b9DnsarPIAmnq0KGjJTLoBs/F7uHxYWOCfJL6OWx547sPPPCgJQfYM1KFB1UBVYKgBMFBAAUmRzgTmYmDQQmr/CY16hPFbhKLjBCBRDEeMf432ckT1MQdyg6dxRdDIs9jF8mkxsCx8LAYhk0cvBjkjqcIEUYdBi2LDHn+2ckziUkVixsu6AoXz3v44YfNhAkT7RHBqFEjHFnYCWDs8HJgSJ577tnQZDKUUqXwD6SEoxYMrATCIUv79h1sYCRFZnCthxlaxgBDAhGgsqS8Oy5BFgEy3OEqRBYJpPJjnJClsyVrYkjEgGF82cmzc8XAMIZh1+yQBXco7k1kkRsfjB8y4l7nd+yAwhZDshUyRhABMg1i2AsVKmhFhjCwY0WWrl0pNZxRAdP9TiyC//73IzZ1MHhQQVHKT7O7ZiHgH94WCG5QmWb6I6CT/P4QSHST3PVyZYxjHzDDtc7vIXdBDZ2QneAxx0CoRzm7YnCRao7IgkcuDBcWHt4d8kSWzM6dOzr6yRyDOGzZstV6xPA8hY0Riww7ZJ6D50IKirFYM48gufwOzMJyjvDuLILMFd4bciuZPPmbECrxPIUthpTc5tjy3HPPsV43GQcWJfSIIwfR67DbBYwR9UPwHHC80ajRDc5cgbB07tzFzncp4hQ0RolF8CEzZQo75LPsDlmIAOOHHMxrFkjGLyxBGvE2ffr0tcd5xCM1adLY0Reqf3bt2s0eK0DugsrNC+G/8867zCuvvGrnCseEMkboC0erkCdkwUsXVJKefggoRncha9gyGSP+BnkiloC5wJyWlOF+bPj7nXfebaZPn+7ULwkrKKYEQQmCBwFIwjPPDLQMn90YKV+DGoE6GFhcWiwu/sbOlUnMZL7ggvMDq8ixq16w4GNLAIYPH+acH0tfLNri7ic/eO3aF9rYCHeT2wTkaxfPgV8WSAwLM7tGoqsx6P7GDpuzNllcJPWp+3NiUHBd4qb0Ew12YBxrMKkgTODi/wzGl10qZIE+grLwUXmRa6Z4VDAWQYuLFE6CJGCIg9rChYus54KFjuMev0FPeH66W08CwaVBSYNYlDkewbBCDvyLC4ZWSg0Tk0KJ36C2ZMlSS4wgcG7SJJ+F5GFo2QkRLFi0aJFM3YALY4SrHC+G36ihu7jYX3xxot2ZkSLY39AXUuWCC7tSCZB0fw6dJS6BOJaaNWsEjhHvAr6QJuIN/IsLukDKZGI2cOsy1kIUM/Qbffmf9aLhLpeAWrcsLARt2rS1JKpatermyCOPyPROuLlJPMSxAh6uoNK9jz+OJ2GIPXOvWLFSpnlEp+gu4w0mjJP/aixkBn1hPtWuXTtwjPA8zJ37viVuyOJPOoa+CC4sgu67/u4XA1sWXY56wMY/j9hFU8ocIkfK46CcAOgL+VzwHKC7fn1hnhKciov/6KOPcm64+O0LAZa4+/v3v9V64/wNIgfJY2NUu/YFgRVWmffoHcGOeJr8+RTQS3b0eBI4SsDu+vWFhZ0x4rMQfok3cMuDnkAqqUWD7gZlbSQgmTTcCY/KsEDPgfSpBCHQnB14v4w6YnC/MQZr3Dg8CY+G5m1nwrLosPiEHSGwc+3SpavNlR/WcD3iHTjtNCLTM3+KyYB7n0UoWWPRgcEnu6d8003tnYx0QX3hxWDyhmUMZLKwG8OTkKzhPg8ysPKdhNv/JucGRFBfEJXBg9khnxr4KAw5ngR2HpKcxv9BCAFjlMz1KccNxEqENYLLkrmn3Z4EyTwXJAseE7w4YQleMG7sYOVqVpA8HCuw8ISV3BZPAjtmue/v7wfDi+cAEhcmCzqLG1duhgTJws4YfQkfIzwJxG0kCm2FNYgki3KyXBW4/YOKjEmfkIMhQwaHusrZTbNbxsMShgv6cscd/W3MTpCXLXFktcoeN0hQZ9A7VapU0coSlj4d3WUDwkaE8QpqjIvfc+D/XOLosLOTITWoH8728eCE7ZDRV+Yz2IThwrhwe6hx48ahHj88CWyIkulLIhiRIPDE7Sx/Yx7JMUwyffF7DvyfxVvHGG7evCW0G4gtczrZESVfVoKQdOoeOH9MhSDw1kwWPAS4tIMaOzy525sMJXYU69YFF2uCELBTD0t3K/3KHX3uLwc1vp/sPFO+g7uVHdnfAQm248pCX+CyfXsikMnfMGxSNCgZLhhsdmJhRonz67Csbe5+eR/yTwQ1XPgYxrCsePIdguEov5wdWSApyBKmL8WKJa60/n97d7OTMBCFYbhBxI0saSRxgRvRjRu9/2tQ70AwgolENkgwLMzXWlKhnXYam7Sct1umMOeZKRza+dn/V7Rfbw2qSnbt23+t04k333GNaUn6rm4/5/34qC7JLBBXG8lFW/tmHYpDX/R5CUb6HCXKm8135vsolrzbyekTXH1X5dT/i66jor6r/qIfjKI20kwB/SPOuo70GcPhhXPfDpX5r/6iAYG6i5B1lO0vqose8Wy32clKv3/+Z5XGvD7jqotM9b3gGruRvK+SL83SyTrK9t3VStd0Xt9Vf7ncrdfhugZIEFw6R/Sab4JwRKETCgIIIIBABQEShApobTwlSRD03Cm9ZnkbY6HOCCCAAAL1C5Ag1G/ciE94fnqMBiC51gJvREWpBAIIIIBAIwTSG0jdPxwOzG5EJWuqhKmFkqaTl+i5YdFGHzVZ87YIIIAAAi0T0G+G1irp9c6Cu999KVoWQuXqmkoQNL1IdxGSZUaLFrWprMqJCCCAAAKtF9AdZ23qpccMgzAMRqOr1sfkE4CpBEEwr9NpMJu97XYa0zSkMqOwfVApiwACCCDQXgH9idSMDM2+0TRQ3T24Ho9LzZJpb9SHNTeXIMTTBSfB+3weaRRNZzqmxiYWBBBAAIFyAsmUZ03DvbmNt2u3dphLEJIGXi4/g8XHIlivv6KFkPLmv1vrEMSLAAIIWBc46XajBee0OVo4CIPTXrwkurXDbIJgraGJFwEEEEAAAR8BEgQfLcoigAACCCBgRIAEwUhDEyYCCCCAAAI+AiQIPlqURQABBBBAwIgACYKRhiZMBBBAAAEEfARIEHy0KIsAAggggIARARIEIw1NmAgggAACCPgIkCD4aFEWAQQQQAABIwIkCEYamjARQAABBBDwESBB8NGiLAIIIIAAAkYESBCMNDRhIoAAAggg4CNAguCjRVkEEEAAAQSMCPwAfGcdJljJE+MAAAAASUVORK5CYII=;points=[[0.14,0.93,0,0,0],[0.18,0.93,0,0,0],[0.21,0.93,0,0,0],[0.25,0.93,0,0,0],[0.28,0.93,0,0,0],[0.31,0.93,0,0,0],[0.35,0.93,0,0,0],[0.38,0.93,0,0,0],[0.41,0.93,0,0,0],[0.45,0.93,0,0,0],[0.48,0.93,0,0,0],[0.51,0.93,0,0,0],[0.55,0.93,0,0,0],[0.58,0.93,0,0,0],[0.61,0.93,0,0,0],[0.65,0.93,0,0,0],[0.68,0.93,0,0,0],[0.72,0.93,0,0,0],[0.75,0.93,0,0,0],[0.78,0.93,0,0,0],[0.82,0.93,0,0,0],[0.85,0.93,0,0,0]];" parent="1" vertex="1">
                    <mxGeometry x="153" y="40" width="520" height="475" as="geometry"/>
                </mxCell>
                <mxCell id="3" value="" style="shape=image;verticalLabelPosition=bottom;labelBackgroundColor=default;verticalAlign=top;aspect=fixed;imageAspect=0;image=data:image/png,iVBORw0KGgoAAAANSUhEUgAAAokAAAK4CAYAAAAY8WcpAAAAAXNSR0IArs4c6QAAIABJREFUeAHsvXeUFFW3/+269z7ven/r/f1x182XyTDMMEyQIEFAQARBJIMkCZKjYAAUBMmgSBpgwBwQiaKSJCkDM0OeQAYJogQBBVHA5z7x7nftGquprk7VXef01On6zlq1qnu6+oRd33P2p3ed8MAD+HO1Be799kfCARtAA9AANAANQAPQgFEDroYjVL7cAkZB4DU6CGgAGoAGoAFoABpgDYCTYIEH0BmgM4AGoAFoABqABqABswaASLAAIBGP2zHcABqABqABaAAa8NEAEAkWACSiY/DpGMy/JvEeEQZoABqABtynASASLABIBCQCEqEBaAAagAagAR8NAJFgAUAiOgafjgERA/dFDHDPcc+hAWjArAEgEiwASAQkAhKhAWgAGoAGoAEfDQCRYAFAIjoGn47B/GsS7xFhgAagAWjAfRoAIsECgERAIiARGoAGoAFoABrw0QAQCRYAJKJj8OkYEDFwX8QA9xz3HBqABswaACLBAoBEQCIgERqABqABaAAa8NEAEAkWACSiY/DpGMy/JvEeEQZoABqABtynASASLABIBCQCEh2ugTt379Hde7/53Cf+nwqHGS4C1cd8Hd67D0pwz511z4FIsAAg0eGAgE7TWZ1mtO8HA9X+/fuptLTMCxK///4SlZUdobIjzj6OHT9BP9/+xVP2n27eol27dtGVqz94/hdtmyI/d7cp3H/r9x+IBAsAEgGJcNYO1sDd3/5I+/Yf0MDq9i+/eu7VoUOHqLi42PHH4cOH6Ydr1z3lZrjdtGkz/Xrnjud/cNrWnTZsBVtFUwNAJFgAkOhgQIhmZ4C8nOt8Tp85o0Hi9Rs3PGBVUFDgeEBkiD148CBd+Paip9yHi4spPz/f8x66c67ucG9wb4BIsAAgEZAIh+1wDVy+cpW2bdtGp06dop9u3iSGxn379hFH6Zx+cMTzwIEDdOPHn4ghd/v2HcSgCAABgEADztcAEAkWACQ6HBDQkTq/I5V9jxiwduzYQV999ZXnvHv3blLl4Mghl5+Pr7/+WhtHKdtmSB/tBhqwrwEgEiwASAQkIqrjcA38+NNNDbAYtlQ/eNIKT7aBA7fvwGFD2FC2BoBIsAAg0eGAILsTQPrOdzSAROffI7Qj3KNY1AAQCRYAJAISEdVxuAYAiQCQWAQQ1Mn5ugYiwQKARIcDAjpS53eksu9RMEjkcX48qUU/eMxfRT2StlIWPG6GnmW3F6QvTmNAJFgAkAhIRCTR4RoIBonDhg2jFi1aeI533323QiCR4XT48OGecrRp04ZWrFjhUxZAojgHDhiCLWVrAIgECwASHQoIF278QFvPlNJn3x6h9ZdP0PorsX+sPXWQ1l4+5shjzTeHhZZr5bbNtHLVKkvHhx99RFOnTqUZM2b4HM2aNaO0tDTPwdDo7zrZ/5s+fToZy5KZmUmjR4/2KQtft2DBAkv1tmofXGdNR06x06rVq+mzzz+n7Tt20KnT39Cvd+7ih6pD/RAQCRYAJDqgcd7+9Q4dvfY9rT5fQi+UbqSGOxZRzt6l7jkKllDajCFUZVAHR9Y5c/1MqtK3rbCypb82nColxFOlSpVwwAau10C1atWoV69etGjxYios2uu1Q4/sSBnSDx6NBSLBAoDECobEwm9PU4+9K6jRvnfoQTeBoaGu6XNGUFxyoiMhMXPVFIqvnkZJTesKgUQGxLjKya4HAwAyfiD400BqairVr1+f8vKW0s1bPyPCWMH+CYgECwASK6gRHrxygUYf+kwIeCgbdSxcQmnTB3uAyWmRxMxPZ1Big5pa+URAYvrsYRSXlOiprz8nif8BnqCBcg3w8IW1a9cRj8lFxC94xE+WfYBIsAAgMcqQ+MuduzS3eDvV3/e2uwFx71JKn/usFzQ5CRIz10yl+IyqHqCzC4laBDElyZMeQAAwCA2E1kBiYiK1a9eOLl2+AlCMsq9i8AQiwQKAxCg2vMu3fqKXSzZRjcI8dwNiYZ5XBFF3lk6BxMy10ymxQS0voLMDiemvDaM4G4DIjjI+PnbGMCYlJVFcXJyXfXUN4BwanNxoowYNGlBR0V6AYhT9FSARgKhZQFaYGul6Px648ett6lOylnKKXDQhxTDu0PhIPH3BaKqUmOADCU6AxMy107wiiLpDjhQStUkqfuqqpxvsXKVKFRo4cCBNnjyZJk6cSK1bt/axWbDvO+0znvE8ZswYmjJlCo0bN47Y8TutjCiPcyGV28PXu/IBilEERWASLIBIYhQa3JWfb9LQ4vXujh4yMBblUdq0QQHBoKIhkR8xmyOIOjREAonaI+YqkU1SSU9Pp5deeokWL15MH330EX3wwQc0f/586t+/P3EkTi+XKud69eppy/gsW7aMli9fTrye45w5c6h9+/YxFSVV5X6oWs6aNWtSQWERQDEKfguRRAAiIolRaGi/3L1Lo4o/ByDuXUrVFj1PleIDP2asSEjkSSrx1VIDwle4kKhFEG08IuYI4pIlS4h3Mdm5c6d2fPHFFzR79mx6+OGHA5bTqc5/0qRJ9N5773nVZ/Xq1VpUsWrV+2M/nVp+lMs5EUaOKH5z9hxAMQr+C5gECyCSKLmhrfrmED1UtMz1kJg2NXAEUXfAFQWJmauneGYx62Uxn8OBRG0Wc2pKxCCXkJBAM2fOJIYoHRD1c15enhZ9M5fPye8zMjK0qOGGDRt86jN37lyqU6dOxLZycr1RNnlg2bVrN/rp5i2AomT/BUSCBQCJEhvZ2WtXXQ+HPBax2pIXLUFARUAiL5QdXz10JMsqJKa/PsJSXYMBROXKlen111+nTz/91Aeq3nnnHerdu7ftPILlL/qz2rVrE8Pgxo0bfeqzcOFCatq0qVL1EW0fpBcZTC5f/jEgUaL/wuNmAKJmAUww8Z5gIsoev967R+PKNrseEoONQTQ7x2hDYubK0BFEvYxWIFEbg1i1sm3gASRGBg36vcLZHfbjcbsnTp4CKEoERWASLIBIoqQGdun2Taq7x8UzmYvyKD33ubCAKZqQqI1BzK5muXxBIZHr+vpwy2mFghgdEtetW+cTeUMk0R0AFEoj+LxcBy+9/DLdvfcbQFGSHwMiwQKAREmN64X97p7NnDZtMFUKc+JGtCCxOkcQ69cIC+qCQaIWQUyzH0HUHT+viTht2jRatWqVDyQuXbqUOnXqFFbZ9XQr6ly9enV64403iCfe6GMr9fO8efOobt26StWnouyIfH1/IPAWftdv/AhIlOTHgEiwACBRQuP6/uaP7n3MXJhH6fNHReT0owGJHEFMqFE97PL5hUQtgmh/DKI/59+nTx9t+Zvt27d7wIoha9asWUpCFS/n8/7775NeH561zRDMayZidrMv/PjTBP7n304bN20CJErwYxiTCEDULCBqDB7SuT+2ccWZg66FRG0v5kgXjx7UQardqq+cTAn1HgwbENk5+4PE8ghilYjSC+Xw9XUSFy1apMEVP2bmqBuvk8g7sIT6vtM+52ghLwrOkVCGxTfffFOb8cxbrmH3Ff/w47R76NTyPPnkk4BEQCKITpYFAHf34U6ELe7+9keafGK7VNgx7l7imNcFS0hbG7BS5A5PZiRRiyDWyooYrrwgkSOIr4kbgxjI+fJ6cH379tUW1R47diy1atUq4vIHyiOa/+eFkEeMGEHjx4+n0aNHY8cVG20lmvdNhbwufvc9QFECKMriDqSrkAVEgBHSuA+av9y7R32K17oOEqtOHkBxSfYiXLIgUYsg1sm2BVhGSJQZQfTnkDlyGEvRNl4H0l898b/If2C53XabNm8BJAISFSIvhYoKwLsPeCJs8fPdu/RY0bvugcSCJaQ9YhYQFZEBiVoEsU6ObSjRIDFKEUS3O3zUH7AYrgaW5OUBEgGJCpGXQkUVAUZI4z5o3rp7h2rmL3YNJKZxBDHZXgRRdwiiIVGLINaO/BGzXi4+MyTyQtlxAmcxG9PHa4ARNBC5BiZMeAWQCEhUiLwUKioA7z7gibDFzTt3KKdgSexD4p7FlDZ1oO0IndExioRELYJYN7JJKsYy6a/jqka+zZ6eBs6RQwBsB9sF08Co0aOxXiIgUSHyUqioIsAIadwHzUsuWf4mbcpAiktOciQk8jqIkSxzE8wJ4TNACjTgXA0MHTaM7ty9h2iiYFBUCGVQVFkWAODdBzwRtjhzI8b3ay5YTAyIMhymiEhi5voZYS+ULaMuSNO5QIF7E3v3ZsiQoYBEwYDI/lAWdyBdhSwgAoyQxn3QjHVI5L2YRY1BNDtru5BYfdUUig9jqz1z/ngfe/CAe+qOewpIvO+DRPpjhVAGRZVlAZGCQlp/pJiFRJ7FPHmAlAii7sjtQKIWQXy4ptTy6eV02pmXyGncuDH17NmTunfvTo888gglJYkdChCsztnZ2dShQwfq1asX8eLYvA1fsOvxmTvALZr3GZAISJTFSK5PF2AntnHFKiSmTx9sex3EUE4jUkjMXD2V4qtXdSWY8JqDAwYMoNmzZ2u7mOTl5WmvGRZD2VvE52lpaTRx4kRasGABvfXWWzR//nztPe8YIyJ9pAGgtKIBQKJYP6ZzgesBCQZ4AHs3Cx7HEXOQyBHEV/tHxeFHAok8izmxgTsjiOw8ebu7GTNm0Jo1azx7PK9du1b7n+w9kXmB7zFjxtCyZcuI92LeuXOntjfzkiVLtJ1V4uPjo6IbKxCBa2IbNgGJgETwnCQL6L8YcBbTyGINEtNnDaW4pOjskBEuJGaumUrx6XL2TlYFKlq2bElz5871QBqDGh+5ubnUrFkzqZCWmppKr732Gq1evdoDqJz3xx9/rEUTeVtBVeyIcqoNkYBEMf7LzAGSsAPJqmQBsyjw3l5jixlILIxeBFF30OFAYua66ZTY0L0RRN1mTZs21UDtyy+/9IDatm3baN68eVSnTh2pkJacnEwzZ86k5cuXe/JmSHzvvfe0/Zn5c72cOKsNYU6/f4BEe34rkN9XiWVQVkkWCCQO/D+yRhcrkJj+2jCqlBDdx4VWITFz7TSKc3kEUXfaGRkZNHnyZO2R79atW2nLli20aNEiGjt2LEXjcW+nTp3ojTfeoHXr1mmPmvmxN7/nCSx6GXEGIMrWACAxMn8Vys9Lwg4kq5IFQokEn4fX+JSHxKI8SpsUnTGIZsdhBRIz10yjxIa1ACCGvbLr1atHo0eP1qJ6PD7xueeekx5F1O8dj0vs2rUrvfrqqzRr1iyaNGkSde7cGffHcH90W+EsD5YBieH5Kat+XSWWQVklWcCqWHCdtUaoOiSmzxlJleLiKsTJh4JEnqSCCKJ/R8uwxpFDPvh1tIFEzzsa0cto1w35+deck+wCSLTmn8L145KwA8mqZIFwRYPrgzdGlSGxoiKIurMJBom8zI2bZzHrNsLZ+cCCexT9ewRIDO6XIvXbKrEMyirJApGKB9/z3yhVhcRqc0dGPfpkdqaBIJEXyo7PcOc6iGYb4X30AQQ2d77NAYn+/ZFdPy0JO5CsShawKyJ837txqgiJFR1B1J2wP0jkrfYQQXS+k9bvIc64VxWhAUCitx8S5ZdVYhmUVZIFRIkJ6ZQ3UqUgsTCP0ueMqPAIou5UzJDIYxDjs7Bzh26fkOeEBIpLSdKirjy5J+mx+pT85CPyjicaUWKTOpRQozrFpaaU78hTAeMhQ9oFk0gc08Zl3StAIiBREiIhWcCd2MalEiRqEUQHOXUjJGoRxPo1Yt652XaacXGUWL8Gpb7Yk6oteZEYrHOK8ihn79LoHYV5lP3VAsp4fzylzxxKyZ0fo7jKWCPR9r0F3Fpu/4BEsX5M5wIQEiyAbfncuC1f4RJKf2245Q44Ws5Oh0QtgvhghuPKFy07WMonPo7iH8yg9NdHRB8KLQBo1pY3KLn9o4BFgF5U2jEgEZAInJNkAf0XA85iGpkKkURtL+YoL5RtBXwYEquvnEIJ9R6MimOxUiYnXhNXOYmqvvIMZW2fF71ooQUw9IleFuZRxnvjKalZPdxPwKJUDQASxfgvMwdIwg4kq5IFzKLAe3uNzdGQWLCEeC9mJ4IPlymlUzNKqJXp2PI5wW5sn+qfvOpsODQBZfaexVSlfzuqlBidPcCdcJ9QhuhO4AEk2vNbgfy+SiyDskqyQCBx4P+RNTonQ2LaqwMoLsm5jhrj2II71qTm9cvHHJogzCeC58DPs/MXUdWX++AHACKKUjQASIzMX4Xy85KwA8mqZIFQIsHn4TU+R0JiwRJKmzFYSueMiElwsBNln4SHsinzs1lKRRD9wWvqcz2ivie4qHuAdKKj9UjsDEgMz09Z9esqsQzKKskCVsWC66w1QidCYtrkARSXnAhIVDSKE1clhaovn2QZELO3zaOMd17SljeqOrEfyTrSpg6kjLfGEe+G4w8I/f0v++uFlNyuKbSoqBYjAbhofAeQaM0/hevHJWEHklXJAuGKBtcHb4yOgsQ9iylt2iA4ZJUdckI8pU0eGBLCsncuoGqLX6Dktk0qZO9tHitZdXxfyvpidsjZ1gyx8TWqQ5cq69JhZQckBvdLkfptlVgGZZVkgUjFg+/5b5ROgkSO9CCC6NxHZFYiLAn1a1D2jvlBITFr0xxtUetK8XEVC15x5cvyVJ3UP2h5OcLIS/dUcvD4WCv3Btc4p20BEv37I7t+WhJ2IFmVLGBXRPi+d+N0BCQWLKa0qYggKu/E4+Oo2qLngwJXxtsvUVzVyhULh36iSlUGddQW2Pb3yJn/x+DLi4Arf4/81B11ij48AhK9/ZAov6wSy6CskiwgSkxIp7yROgES06YPRgQxBpx34qN1KadwSUBIzNwwm+KrpToTtOLjKPW57gHLzqDIj9EBVNEHqli0OSARkCgJkZAs4E5s46pQSORZzJMHwPHGACCyI+cxfkEjcQ1qOvteJ8RrWwUGrMPXC7V9pmMRWlCn6MIvIFGsH9O5AIQEC2Bbvhjali9txhCKS8Is5lhw0LxmZPWPJgaExPR5o6hSfLyzIbFSJUp8uCbxpJpAoJjS9XHH1yEW9BTrdQAkAhKBc5IsoP9iwFlMI6uQSCJHEF9FBDGWHGF89TTK2jo3IFwlNa0bFK54XcWULs0puXNzSqiTLXTGM4+BTG7diFK6P05JjzcIuj8zT5zicZOBIJG3F4yl+4a6RDeCqNsbkCjGf5k5QBJ2IFmVLGAWBd7ba2wVAYnps4diy7MYecSsO72EWlkBl5LJXDstKPQxHGZtm0c5hXnawZNEUnq0FAJjcSlJlPHOy5S9e7FWvuzdi6jawtFBo5rBxiZWy30ei2vHmHZ1DUfzDEi057cC+X2VWAZllWSBQOLA/yNrdFGFxEKOIPYX4vyj2aEjr9DRlpQOzQJG39JmDgl4zxMb1iJesNocucv68g2Kz0wL+D1L9yQhgfgxtzltfq9tuRfnv15Jj9X3+x3+XvUPXwkaibRULkCWvfsaA/YDJEbmr0L5eUnYgWRVskAokeDz8BpfNCEx/fXhiMLEgIPzB0JV+jwZEKxSn+8REAoq92tLOUVL/X63ypBOAb/nrwzm/yXUqE7ZX/kCKMNe9lcLKC7N/1I8CbWz/ZZHg8QVr1JcaoqtcpnLiff+YT2W7QJIDM9PWfXrKrEMyirJAlbFguusNcKoQGJhHiKIMQqHuiOv0r9dQLBKHd09IFRVGdg+8Pee7Rbwe3q+wc4JtbP8Rik1SOSZyulV/KYf/2BGwDJVXzmF4lL9w2WwsuAz94FgsHsOSLTmn8L145KwA8mqZIFwRYPrgzfGaEBi+txng45JC9aZ4jM1nGvKUy0CghXvaBLoPiY90Yhy9iz2+W52wRJKqJsT8HuB0vP6f1ICZX46wydthkTew9nrWgPEJzWt4/c7WiRx+USKq5Ic8LuB0sT/1dBxtO4TIDG4X4rUb6vEMiirJAtEKh58z3+jlAqJRUspGCBEq0NGPvIddGKj2gHBKnP11IBQxUsg8fjA7PxF97+/ZzGljnk64HfCuZ9crsx10++nzeMKl0+k+JxqAdOv3C9wVDRj6Rgs22QA6nDuBa693w4Bif79kV0/LQk7kKxKFrArInzfu3FKg8SiPEqfPyqgI4bDuO8wYsEW8VnplL0z8J7N8Q9WD6qFxKZ1qdriFyh97khKbPxQ0GvDtVdcWhVKHdubGPBSRzxFPOM5YBrx8VRt4XNeUMkRRP1If2MkouKAxMD6sWgbQKK3HxLll1ViGZRVkgVEiQnplDdSWZCICGJsQWBAqPrdKfJkjuorXvXAlA5V+rl8NnGcbecaqhx2P4+vUZ2yNr0esB489tJuHvi+u9qGv/sNSAQkSkIkJAu4E9u4hENiYZ4WDfLXMeJ/Mewc4+MoffawgHCV9fmsoI94HaGNuDiqOq53wDrwLOyEWpmARIvRMkfcU4eWFZAo1o/pXABCggWwLZ/Dt+WrOqkfHsc51DHJdtrJ7ZsGAaw87TEu72giuxwRpR9XiVK6PV6+6Lbh8bIeCeUzP66OKG2X6gG2CvyjEJAISATOSbKA/osBZzGNTFgksXAJpb8+Ak7UxUAQl5hAmWumBQbFvUspbdogchwoxsVRQsNalLV5TsCyZ+9ZTElN6kDfLta3SOgFJIrxX2YOkIQdSFYlC5hFgff2GpsoSKzKO6kkxMOJutyJcjSRt74zRuC8Xu9ZTNVynyOe6CLS6UacVlwc8YLewfad1qKIb78UfMKLy+97xPZ3qd0Aifb8ViC/rxLLoKySLBBIHPh/ZI3ONiQWLKG02cOc4fBd6nCc5KC1vZLzXgwMib8/ys3ePo9SerXWtt6LS0qIrn7i4rRdU3h5nIwlL4Qu6+5FlNSqUXTLCC3HtL0BiZH5q1B+XhJ2IFmVLBBKJPg8vMZnFxLTJg+gSolRdvJwoI52oAl1son3XvaKIAYY55f1xWzKeHMcpc0cSqnP9yTeik/aMawLpb3Sj6otGE3Vl0+i7F25octYmEdVBnV0tL2d9CMBZQk8DtFoG0BieH7Kql9XiWVQVkkWsCoWXGetEUYMiQWLKW3mEDhPAKtfDXDkLXtH4HUTrQCkE66pNu9ZPGaGxv1q3Ah94b4GJFrzT+H6cUnYgWRVskC4osH1wRtjpJCYNmUgRf0xIZyVcGcVrnOzfH18PFV++glr0boAUcYKhcSipZS+YDTFpWGfZsv3HO3TcvsEJAb3S5H6bZVYBmWVZIFIxYPv+W+UYUPinsWUNn2w5c4QDsba46dYtVNyu6ZBZw1XKAgGgFOeyZz+2jBt3GKs3hfUq2LbJSDRvz+y66clYQeSVckCdkWE73s3znAhMW0qRxAdutYdIhnOg/e4OEqsX0Mbd5hTlBd6DGAAcIsWTGbvXEAp3VtC42hLUtsSINHbD4nyyyqxDMoqyQKixIR0yhupZUjkCOK0QVI7TkQ3Kja6IdP+cclJ2oSUzFVTKKdwieNgkZfASZ8zkuIzHbI0DyAtpvsaQCIgURIiIVnAndjGZRUS+REzIoixC3EyAdGYdnx6FUpu2ZAy3hrnCFjM2jKHqox4ihJqVMc6nwDTqIEpIFGsH9O5AIQEC2Bbvmhvy8frIE4ZGLXO0wgUeB3bUMo/Onjx7dTnelDVif0obdpgSp85lNJnDZNypM0Yomm56kt9qPKA9sRL9UBjsa0xp95fQCIgETgnyQL6LwacxTSyUJFEdtqIIMKROtXZolzQpooaACSK8V9mDpCEHUhWJQuYRYH39hpbQEjkCCIvlI1HULABNAANQANCNQBItOe3Avl9lVgGZZVkgUDiwP8ja3SBIJGXAMFOKojS4EcCNAANiNcAIDEyfxXKz0vCDiSrkgVCiQSfh9f4fCCxcAmlvdpf6K9mOBnxTgY2hU2hAXU1AEgMz09Z9esqsQzKKskCVsWC66w1QjMkpr8xgirFxwMS8XgNGoAGoAFJGgAkWvNP4fpxSdiBZFWyQLiiwfXBG6MHEgvzKG0SIoiIzqgbncG9w71TRQOAxOB+KVK/rRLLoKySLBCpePA9/41Sh8RqC0YhaiApaqCK40I5AVnQQHQ0AEj074/s+mlJ2IFkVbKAXRHh+96N88z1K4ggAg7xAwEagAaiqAFAorcfEuWXVWIZlFWSBUSJCemUN9Kzl76Hc4iic0CkJjqRGtgZdnayBgCJgERJiIRkAXdiG9ely1cAiYBEaAAagAaiqAFAolg/pnMBCAkWwLZ8grflAyTGZsQlOTmZqlat6nWkpqZSXFyccBhITEz0ykfPN17SLHk9feOZyyAjcpSSkuJTt8qVK0vJK5AdZdwzGbZCmtb7EkAiIBE4J8kC+i8GnMU0MkCi9Y5dJSc4evRo2rx5s9fx0UcfEUOP6Ho8+eSTXvlwvmvWrKE6deoIz4uByVwvft+2bVvhebGdXnnlFZ/85syZIyUvroO/umVmZkrJT7QOkJ71vgSQKMZ/mTlAEnYgWZUsYBYF3ttrbIBE6x27Sk5w7NixlJ+f73WsW7dOCiS2a9fOKx/Od9OmTVSvXj3hcMOQaK4Xv+/QoYPwvPh+T5s2zSe/3NxcKXl17NiRdu3a5ZNfVlaWlPxU0nOslRWQaM9vBfL7KrEMyirJAoHEgf9H1ugAiYBEuw4YkChGQ4BEMXa0q+dofB+QGJm/CuXnJWEHklXJAqFEgs/Da3yAxNh0TIgkirmviCSKsWM0wEulPACJ4fkpq35dJZZBWSVZwKpYcJ21RghIjE0nCEgUc18BiWLsqBLARaOsgERr/ilcPy4JO5CsShYIVzS4PnhjBCTGphOcMWMG7dy50+tYv349ZWdnCx/f1r9/f698ON+tW7dS06ZNhedVq1Ytn7w4vxEjRgjPi2HhzTff9Mnv008/lZLXwIEDffLiuj3yyCNS8osGDCEP//0LIDG4X4rUb6vEMiirJAtEKh58z3+jBCT678RVd255eXl04cIFr+PQoUOUk5MjHDhGjhzplQ/ne+rUKWrRooXwvBgSzfXi9+PGjROeF2uAwdqcX1FRkZT96QiwAAAgAElEQVSlhHhGujkvfi8DtlXXt+rlByT690d2/bQk7ECyKlnArojwfe/GCUgEJNp1uIBEMRoCJIqxo109R+P7gERvPyTKL6vEMiirJAuIEhPSKW+kgMTYdEyIJIq5r4gkirFjNMBLpTwAiYBESYiEZAF3YhsXIDE2nSAgUcx9BSSKsaNKABeNsgISxfoxnQtASLAAtuXDtnxSxp5FwzFEMw9Aohi4ASSKsWM0ta9CXoBEQCJwTpIF9F8MOItpZIgkxqYTnDlzJh08eNDr4BnHGRkZwiG7T58+Xvlwvnv27KHGjRsLz6t69eo+eXF+gwYNEp4XwwbPbjbbkXeukQEiPEvcnBe/l7FzjYzyI03rfQkgUYz/MnOAJOxAsipZwCwKvLfX2ACJ1jt2lZwg1kkUc1+xTqIYO6rUdqJRVkCiPb8VyO+rxDIoqyQLBBIH/h9ZowMkxqYTBCSKua+ARDF2jAZ4qZQHIDEyfxXKz0vCDiSrkgVCiQSfh9f4AImx6QQBiWLuKyBRjB0rBODiKlFc1coUn5Eq9IhLr2J7uAEgMTw/ZdWvq8QyKKskC1gVC66z1ggBiQo7wUqByw5IDGybcIAFkCjGjuHYXNS1cZWTqfr7Eyhn71Jxx+7FVLlPG0Ci4AmUovy1JOxAsipZQJSYkE45RAIS1XWCwZzpqFGjaNOmTV7Hhx9+SCkpKbYdnDnf1q1be+XD+a5atYrq1KkjPK+4uDifvDi/Nm3sO25zvfj9hAkTfPJ77bXXhNeL82rbti1t3LjRJz+erOOvbPhf8LYrHBIL8yi5c3OqFBdn+34gkmgtiBGun1aJZVBWSRYIVzS4PnhjBCQGdzRwxLAPNKCmBnRIzN45n6oM7EApT7XwHJV7tabUMU9T1vZ51qKMhUuocl9xP0QAicH9UqR+WxJ2IFmVLBCpePA9/40SkKimAwS44L5BA8E1oENi1sbXKD4zzW/0r/LTT4SGRI4gdmrm9/uR3gNAon9/ZNdPq8QyKKskC9gVEb7v3TgBicEdTaROAN+DXaGBitWAGRLjq6dRxpvjKHPNNKoyqEM59CXEU/bXCwODYmGe0AiirglAorcfEuWXJWEHklXJAqLEhHTKGykgsWIdme40cMZ9gAbEasAMiQk1Mynryzc0IMxcNVWDRL4me/ci/5C4ZzGldH5MaARRv8eARECiStylVFkBd2IbFyBRrGPSnQDOsCs0ULEaMENiXJVkqjygPVUZ0YUSmzxEleLjKG3GEP+AqEcQ4+TUAZAo1o/pXKAUzKCwciygiwFnMY0MkCjHCQAQYFdooGI1YIbESgnxlFjvQUpsUofiM6pqEUKe0JJT5L1ETnb+Ikrp2kJKBFHXBCBRjP8yc4Ac6kCqSlnALAq8t9fYAIkV68h0p4Ez7gM0IFYDZkhMqFmdsraUP27O2jCbEh7MoErx8VR9xav3o4lFeVS5z5NalFHm/QAk2vNbgfy+UjCDwsqxQCBx4P+RNTpAoljHJNOxIG3cK2jAugZ8IfH+mMScwjxKbFRbixZWWzBKg8TsXbmU0r2l1Aiifv8AiZH5q1B+Xg51IFWlLBBKJPg8vMYHSLTudPQOHmfYDBpwvgbMkBiXVoXSZw6hakteoMq9y6OFcUmJlLVlDuV4IojxgESH7qZixbcrBTMorBwLWBEKrrEOioBE5zu7SIAkISGBkpKSvI7ExEQpDjA+Pt4rH86X8+LdUSIpe6jvmOvF77kMob4XyecVbUeumyw7RmIPlb7jgcRNr5c/Wk6IJx6XqB/x1VIp/bXhlL1rIVXu0UqKfgLZC5FE6z4qHH8uhzqQqlIWCEcwuDZ0QwQkxiYk9unTh/Ly8ryO2bNnU3JysnBn+Oijj3rlw/nOnTuXatSoITwvBiZzvfj9Y4/JWapk6NChPvm9+OKLwuvFMMF18Fe39PR0KfkFAphY+b8Oidl7FlPGuy9TxtIx949lY6n6yimUU7C4PKrI8BhkL3TRnwESQ/umSPy3UjCDwsqxQCTCwXcCN0hAYmxC4tixYyk/P9/rWLdunZS9m9u1a+eVD+fL+ynXq1dPuONlSDTXi9936PD74siCHf20adN88svNzRVeL4aQjh070q5du3zyy8rKkpKfaPBxWno6JObs9Z69rL/nRbQr93yiQmwLSAzsk+z4aznUgVSVsoAdAeG7vg0TkAhItOvcAYliNARIFGNHXc9BIZHHIPZ6ovzRs+AfFnr+wc6ARF9fJMI/KwUzKKwcC4gQEtK430ABiWIdUzDHEM3PEEkUc18RSRRjx2hqX88rECRqEUQGxAqAQz1PQOJ9HyTSH8uhDqSqlAVECgpp/ZEAieo6Qd3h+DsDEsXcV0CiGDv606js//mFRI4gPl1xEUS9zoBEQKJS4KVSYQF2YhsXIFFdJ6g7HH/nyZMnU1FRkdexceNGkjEJokePHl75cL47d+6kRo0aCY/WpKWl+eTF+fXt21d4XmzXhQsX+uS3fPlyKXn16tXLJy+u20MPPSQlP3+6iaX/mSFRiyD2bu0IWwISxfoxnQtUYhmUVZIFdDHgLKaRARJjExJ5luyFCxe8jkOHDlFOTo5wJzly5EivfDjfU6dOUYsW4rc2q1Wrlk9enN+4ceOE14uBaf369T75MbjJWJZm9OjRPnlx3Zo2bSqlbrEEhP7q4gWJWgSxVYWNQTSXD5Aoxn+ZOUASdiBZlSxgFgXe22tsgERAotmBhfsekChGQ4BEMXbU9atDorYOIm+1V4FjEM15AxLt+a1Afl8llkFZJVkgkDjw/8gaHSBRrGMyO4OKeo9Iopj7ikiiGDtWRDvQIPG98eVb7UlabD3SegESI/NXofy8JOxAsipZIJRI8Hl4jQ+QqK4TDOagAIli7isgUYwdg2lV2meJCZTYxJnjOQGJ4fkpq35dJZZBWSVZwKpYcJ21RghIVNgJBnl8BkgUc18BiWLsKA0Eg7QBJ+cJSLTmn8L145KwA8mqZIFwRYPrgzdGmZCYkpJCPNGAZ2caj9q1a1NGRobtMUKcvjFd42vepULWfr5Odj562XgLvr1793odW7ZsIRm7dwwYMMArH86Xd0GRMeGCt/oz14vfjxgxwraedNsZz++++65Pfp9//rmUvAYPHuyTF9etYcOGUvIz1tOpr1NTU4n7C2Pb1l+LmKnPfUjNmjX9pp+ZmSnN7oDE4H4pUr+tEsugrJIsEKl48D3/jVIWJHIHe/r0aTpz5ozfgz9jpxipc+LZpStXrvSbNufJs2ufe+65iNOPtFxO+R6vk8hbvBmPtWvXUuXKlYXbhHdcMebDr3m5HRnb8jH4m/Pi97xbiQzb8zqJ5vwWLVokJS99xxVzfjLAXoatRKfJgBiqD+HllyLNt1q1avTVV18F7EM4b/4BFGn6wb4HSPTvj+z6aUnYgWRVsoBdEeH73o1TFiT269fP73IexmVZOLIVabSPv3fu3LmgeWzbtk1KBx+s83fKZ1hMW8xjUiymLcaOkbSL559/Pmj75r6E17GMJG3+TsuWLbUfk8Y+yfy6uLg44vSDlQuQ6O2HRPlllVgGZZVkAVFiQjrljVQWJPIvcIa4YMf27dspMTExok5Yh8Rg6RcUFESUdrDOXZXPAIli4AaQKMaOkbSbl19+OWj/wW0/Nzc34jbeunVrDRKD9SFlZWURpx+szoBEQKIkREKygDuxjUsWJCYlJVGVKlWCHnYffYZKPzk5WUoHH6zzd8pngEQxcANIFGPHSNoFjxcM1ca5n4kkbf5OQkKC1PSDlQuQKNaP6VwAQoIFHtDFgLOYRnb5ytWIO1l/nSAPst+0aTOdPHlS+5XOYwMr8igtLaXhw4cTj2/yV95Y/d+LL76obY3H2+Ppx+rVq4kdr+g6t23b1pOHnhdP7qhbt67wvHgsqp6H8dy+fXvhebGdeHtDYz78esGCBVLy4jqY8+L3MidQiNaC3fT4CUHjxo1p8+bNFdpvGPusw4cPU58+fTSgtFs//ftDhg6lO3fvEfyYGD+m2xGIBAsAEn8T26hERhIHDhyodezmcT1OeM9Ox03OlmcBN2vWzOt45JFHIh4Dqjs3f2feT9mcV5MmTaQAKedvzovf8yQEf2Wz+z+eWWvOT8aEHC4nz9Y158Xv7UTL7NY/2t/nXWd4wogT+gxzGfhHlqjtGBFJFOvHAImAQ48FdDHgLKaRiYLEqlWr0rFjxzydO0cSeZbmhk2bqKCgkL755hvPZ+bOV+T7o0eP0bbtO2jDxk108NAhOnf+vCffzp07SwGJaDtS5Fdxj0Bhe3m25/HJ33xz1tNeT5w4QV999TVt2LhRWxro7Nn7n4nsM8xplZaW0dZt22jzli3EE1d4zKJ+TYcOHYT0IYBEMf7LzAEeUMAL91rALAq8t9fYREFig4YNPVHE48eP06Chw6hR02ba8cijj9HLEyZ6dbZ6pyvy/Nlnn1PHp7p58m3Zug3lLl5CunOZOnWqkA4eoCAPFGBb99qWI7R6f7B33z7q06+/py03e7wVvTplqqct69eJPq9as4bad+7iyffxJ56k9z/80FOuMWPGCOlDAIn2/FYgv+9eMkLNPRYIJA78P7JGJwoSGzZq5IHEF8eO83SyOijyefnHKzydrejOnR9RPTNwkE++rZ5sS7v37NHynTFzppAOHiDjXpDBvZd37xs0aODpH16a8IpPW+Y+5ONPPvFcI7oP4ajhE23a+eTbpkNHD5zyhDARGgAkRuavQvl5DyjghXstEEok+Dy8xicaEnkh6+Ytn/DpaLmDH/HsaGkd/NGjR/128BzFXP/Z54BERbcvE+GQkYY8sBNpWyMktmnf0W8fMmX6DGl9yJYvtxJHLI0/bPXXX329S8sXkBief4m2P3YvGaHmHgtEW3Sxnp9oSOTxO63bdfDb0Y59eby0Dv7Y8ePUtmNnn3ybPNacNm3eDEgEJAqJAImEIqTlDa9GSHyqe0+ftszA9tqcN6T1ITt3fkWP+fmB27hZc9q/fz8gUfCkSRm+1QMKeOFeC8gQlpvTFA2J/Ajok5WriDtW/Vc4nx9v/STt3l3+2DfYYyJ+bFxSUko7v/qatm3bToVFe4nHOBoHj/v7Po875HGPxjz5ddceTxMPROfv4HGzt1MGpMAeTtKAERKXvfW2Tx/StPnjlL97d0hI5OVrDhcX046dX9HW7dupaO8+4kkwxkls/voQfgoyaOhwnz5k8LDhnjwRSUQk0b30pUjN3Qx0MuouAxK5A16Yu4g6PdWNWrVpR9179aZVq9d4OlpzB80dOHfoM2e/Rs8MGEQ9e/el7k/3pm49e1GPXn2oV99+NPzZUfTR8uW0f/8Bz/ggczo8u/qFseOoXcfO1Lpte+o/cLCXUwEkAoqcBEUoi7cejZDIPxZnzJpNHbt01fqQp/s+Q1u+/DJgH8Jtn4Fw6vQZ1PuZ/vf7kKd7e/qQEaNG0+o1a+jgwUMBf3QeP36CnnthDPHj7ifbd6SBQ4bSnoJCT76ARECiIqjk3mLKACU3pykLEs+fP69FBAsLi+ioYWkcI9jxNfwoeNz4CdSjd19q8cST2pggYxSSxxQ2eawFNW/VWnucPGTEszRvQS7xr35jWvprjjgeOHCQivbupdOnva8BJHo7ZUAK7OEkDRghUW/PPJmkoLBQe5qg/8945j7k8y82EA9l6dqzFz3eug092qIlcb+hP1Uw9iHtO3Wh4c+OpsVL8gL2Ibxc1759+2nfvn0+P0gBiYBE99KXIjV3M9DJqLssSDR25P5enzp9mj74cDn16TeAnmjb3tOh6x17oDN3+J27dqeRo5/zzFr2l76//wESAUVOgiKUxVuP/iDRXzvW/8fRxqVvvkVP93lGizYG6jPM/2eIfKrH0zT+lUm0/8ABvz829TzMZ0AiIFERVHJvMWWAkpvTrAhI5F/qixYv0Tp37rDNnXio9wyKHHV89rnnqbCoyHIn7yZI7NSpE02ZMsXr4K36ZOzewVsxmvMaP348ZWVlCZ8swjtemPPi940aNRKeF0Pc008/7ZMf7ywkA/C4Dv7qxgvVy8jPaWmGA4k87nDmrNe0ISn8pCFUn2H+nPsQfpzMfcjevfss9yGARECie+lLkZq7Gehk1D3akMiPh1Z8spJ6PdPPZ2C6uSMP9Z5nUfOjI95ZxfyL3997N0EiO7P8/HyvY926dVK2ymvXrp1XPpzvpk2bSMb2dQyJ5nrxe1E7YZjBadq0aT755ebmSoG2jh07arsUmesnA7bN9XTC+3Ag8d333tfGGhqHpoTqL/x9zisi8IQ3425R/voO/X+ARECiIqjk3mLKACU3pxltSMzP3039Bg4OuB6Zv4482P/adepC8xfmAhJNS9wAEr0fZUYKQYBEMXa0Yn+rkPh1fj717T9QG6scrG+w+hlPjsldtMRSHwJIBCS6l74UqbmbgU5G3aMJibxMDa9zxmBntQMPdR0/Nurdrz/t2VMQspNHJBGRRCuwYrwGkOgsSOTHzGNfGq/NPg7VN1j9nIe88IzoXbvyQ/YhgERAoiKo5N5iygAlN6cZTUg8cuQIDRg81GvmodWOPNh1PLZo8tTpxI+y9cdC/s6ARECiEQCtvAYkOgsSeaksjiLyj8NgfUK4n/Gs5/m5uQGXxtH7E0AiING99KVIzd0MdDLqHgoSeQwYT3bgczCnaty7We9QzeflKz6hjk91E9q5szPgSMCQ4SNDjk10EyS+/PLLtHXrVq9j5cqVlJaWFvQ+BrvHgT7r0qWLVz6c72effUYPP/yw8Lx4Eoe5Xvy+e/fuwvPi+s6aNcsnv2XLlknJq2vXrj55cd1q1aolJb9A97Oi/m/lcfPb77wr9EmEDpO8UPeYl8Z79p839136eyuQmJiYSAkJCUHvGfZulgObimAMiinTAjJAyc1pBoPEKlWq0K783XT1h2tUUFhEmZmBZ6tagURecqLlk22FQyJ39LwMxrbt2xFJ/H1s4uLFi7U13vgRv37w1mI5OTlBnVckgDBixAhPHnpePBGgefPmwvNiYNLzMJ7HjBkjPC+2BU/2MebDr/fs2RPyR1Mkdhw1apRPXpxf06ZNpdQtkjLK/I4VSJz46hRioNPhTuS5zzP96ciRo0H7kFCQOGz4cLp85Sp9e/G7oJOpAImARJmc5Oq03Qx0MuoeCBI5YrMrP5+Mee7bf4BSU1P9OqxQkMjOrv+gIdSiVWspHTyvnbju0/VBO3g3RRLz8vJ8bHHo0CEpkDhy5EifvHjsWIsWLfxqxQ5oMCTqUR3jedy4ccLz4nKuX++rqaKiIimQOHr0aL91AyRe8NiFnxg0aRb+kjdWYLJzt+60Y8dOT15GfemvA0EiP2mZMOEVr/7y7r3fqGfPp/3qEpAISHQ1yMmsvBFa8Np+QwsEifyr/uatn706PbZ39x49/HZ6oSCR91/msUTNHm8lBRLbdOhEy1esCNrBAxIBieECKiDRWWMSeYKJ3WVvAgFj+85P0afrPwvahwSCRP7xzHtEm33Sho2b/P6gACTa911mW/N7meyBtBWxgD9h4H+RN7hAkFi/fn268eNPPp0eL9Lsz9GGgkSetCITEnm9sw8+/ChoBw9IBCT6026w/wESnQWJvI+7TEhctXp10D4kECRWrlyZdu8p8Okv1677lOLj4336TEBi5D4rmL9XBGNQTJkWCCYQfBZ+wwsEiSkpKbR9+w6vTm/3nj0+nZ3uYENBIm+hxZDIO6UE+iVv5/+dnupGK1cF7+ABiYBEXa9Wz4BEZ0Eir7HapFlzKX1Il2496IsNGyKCRNbTs6NGET9i1v3Qnbv3qG3bdn77TEBi+L5Kt2uws0z2QNqKWCCYQPBZ+A0vECRyp/dgjRo0adIkeu/99+nl8ROCjmcLBYm8Fd+IZ0dTK0kTV3r37UfrPwv+qMhNkMgTV9jmxmPfvn1B76FVcDJfN3z4cK98OE+ZE1eMddJfy5q4snbtWp+67d6926/jN9sl3Pc8cUWvj/HcpEkTKfmFWz7Z11uZuDLquRekDVnhKCWPw9bHH/o7B4oksm14XGK//v1p6bJlNHfePOrQsWPA+wZIDN9XWfHvimAMiinTAlaEgmusN8BgkBiOUwgFibyG4ZSp04h3N7ATMfT3XV4CZ+CQYbR9x46gHbybIJGdmXl7N2zLF35UDOskhm+zcPoN47VWIJH7kA6dnxLeh/D+z/wjllcA8AeH+v+CQaKxLqFeAxKt+6hw/LlM9kDailggHMHg2tANMVqQyJ3sBx98qG3J11jwQrg8HvH5F8eE7OABiVhMO5TzNn8OSHQWJL79zjvUd8AgYVvy6T86O3XtThNemUgnTpwAJP4W2m841bcqgjEopkwLOFWcqpYrmpC4fft2emHMOOrQRVwkgAex82Oihbm5dPRo8DXOAImARDMEhnoPSHQWJG7esoWGjxxFbTt0EhZN5BUXeLz0m2+9pT3u16OG/s6IJDobIGWyB9JWxAKqwphTyx1NSORxagsWLqT+gwbTYy2fENLJ82Dzl8ZPoFWrVoXcUguQCEgMBYXmzwGJzoLEAwcO0IIFC+iZAYOELarNa6xOmDiJNmzYEHJrT0AiIFERVHJvMZ0KW6qWK5qQeO7cOW1x4mnTZxCvd8bjgPTHPZGc27TvSEOGj6DFS5ZQcXFx0MdEHBVwGyTu2rWLjAdPwuBZ62YQsvu+Xbt2Xvlwnhs3bqR69eoJz4snBxjrpL/u0KGD8LzYLlOnTvXJLzc3V0peXAe9PsZzZmamlPzs3nfR37cyJpEn9Hz88cc08dVXqZfNPoT3f+Y9m0eOfo6WLl1KvNi8v+ih8X+ARECie+lLkZqrCmNOLXc0IZE725KSEnrrrbe08T89e/eNeKYid+6Dhw2nBQsWakBi7MgDvXYTJDKgMbwZj1atWvlds82us2eIMebDr1u3bk28raPdtP1935wXv5cFUg0bNvSpm6wdULKysnzy4rrx3un+7BBr/7MCiXofsmzZmzTu5fHUo1efiNZNfKRpM20SHf/IZOjfsmVLSEDkvAGJgERFUMm9xXQqbKlarmhDIne0O3fupHfeeYdemTiJBgweqi2LY2WBXO7YeSYzPx7icUnzFiygDz74IORYRB0a3QSJsQYQqE/0HvtWlK2tQiK3523bttHbb79N41+ZSP0HDqZWbdoRRwatPJHgoS7devaiZ597npYsWUKffPIJnTlzBpCo8IQV3f+6l4xQc48FdDHgLOYXnUxI5P17eRyiuQPmx86ff/65FlGcv2ABjXh2FPXo3Zc6PtXN7zgj7vwff+JJrWPnsUiTJk8m3pv4vffeo9LSUq/OnZfa4RmKnO/Zc+e8PgMkxj5oVBTgIF/72vIHiSdPnaKjx475TCjhPmXNmjXaZJN58+fT8GdHUfdefbTHx/yD0wyM/L8n2ranrj17aT9Mp0ybRnl5S7Ufq/x0Q/8hyWfun3gbUT74tfEzRBLF+B1Z/tsDCnjhXgvIEpdb05UBiWfPnqP5CxZ6ftXzL/ePP/nEq7NlmOOB4u+++64Gi7Nff51eGDOWho18VuvEn+k/kPo805/6DxpCg4eNoFHPPU8vT3iFli1bpkUQPvroIzp48KBXmoeLi7XZ07qD4EdRX+/K9wxGByTad+SAIdhQlgaMkMg/9KbPnOXpQ3hv9s83bPS0ZR3c+McmP5XgqOKMWbPouRfH0LAR5X0Iz1ju02+AVx8y6dXJ2vhDvp7HNpaVlXn1IYcOH6YRo0Z7IJP7EN5pSs8PkAhIdC99KVJzt8KcrHrLgMTFect8JqUwKG7fudPT2eq/2Bn0OCLInTYfHCHkcYYcHZg3f4F2zl20iN58803PNQyX5vXMeED7C2PHeZyK/tiJZz/rA9IBiQAcWYCDdO1rywiJuYsX+4w15D5k6/btXn3I2bNniWc887ATvQ9ZsoT7kAU0f75+zKdFixZrP0b5GoZKflx98uRJr7S4T+nV9xmfPoRBE5DobDjU/aMiGINiyrSALgacxTRa0ZDIj2d41rEOacYzr5God7bGMwPel19+qS1jw8CoRwb0Tp/ff/jhh9rMaB34jN/n1/x4uU0H33x5BvWmzZu1fAGJ9h05YAg2lKUBIyTy4tbGvkN/Pfv1OX77EN4b/osvvqCVK1dqTyf89SH89OGzzz6jw4cP+01j244dAZfmKtq7V/sOIoli/I4s/y2TPZC2IhaQJS63pisaEhn4Hm3+uN8Onh/jmOHO+J6/y7B35MgRbRY0d+b8mhfJ5l/5/IjaeL3xNV/zRJt2fvNd//nn2vcAiQAcWYCDdO1rywiJ/n7wMShOmT4jYB/A/QGPVeS+gPsNXhaLf1Ra7UO+3Lo14GoLPGyF0wckAhIVQSX3FtOtMCer3qIhkTvSKdNm+MAaR/SWr1gRtIM3Ql+4rzmSMHDIUJ98Oaq59/coACDRviMHDMGGsjRghMRXXp1MvJqBHkHkM481XrN2nbQ+hMcn8soJxjz5Nf9P/4EKSAQkupe+FKm5LFhya7qiIPHhhx/2jPFhYBs2YqSns+XOfcas2T4zBcMFwVDX5+/eTa3atPXky2D64UfLPflOmTLFFevNyXLiSBeAKFMDdevW9QAgT0Lr0buPpy3z7OQFuYuIxyCG6gfsfP71rl3Uul0HT75NHmtOq9es9eT54osvCulDhgwZSnfu3iO3+h1Z9VYEY1BMmRaQJS63pisKEitXrkwFBQWezpQfHa9es4bemDefvvxyq+f/djpwK99lQH373Xdp/sJcbUC7/h0uT/v27YV08DIdJdIGiLlVA7ybTmFhoaev4PHNK1aupDlz59HOr77yRPP0Ni3rzBHFJUuX0eK8pdqjaj0fBtTGjRsL6UMAiXIikjLZA2krYgG3wpyseouCxP/+7/+m5s2bS/+lr3fY4Z55RjSDrFsccHJyMlWtWtXr4B1Q2BGLtkFiYqJXPpxvamqqlN1duOzmevF7LoPoenF6vCH7e/oAACAASURBVI2hOT9ZOvJnR85bxj2TYSu7aXIfwjvMyI4Whtt36NfzTlH/+Z//KURngERAoiLIpV4xZcGSW9MVCYn/8i//Qk2aNKHp06fTrFmzHHO88MIL9B//8R/COni7zjAa3+exU/n5+V7HunXrpO3dbM5r06ZN0vZuNufF72Xt3Txt2jQvG3JesvZu7tixo7Z3s7l+vF1fNDTjhDy4D2nTpo3j+hB+zMwQC0iUA3ei/K96RIMSC7eAKDEhnfLGLgoS2cH867/+K3Enzwe//vd///egx7/92795rte/F845VPrG8nC6//Vf/+UaZwtIFPPYGpAoxo5WAdTYZmX3IVbSN5aH+xAGRat1CXYdIolyYFM4cCBB9SwAuBPbuERCIkOYDnn9+/f3jC3SH9eYz7ygbaSgmJ2dHTL91atXe8rD+QTrtGPtM0CiGLgBJIqxo9X2ZexDWMPmPsP8nhfN1vuccM8csTSnZ37PfZSeLv8otVqPUNcBEsX6MZ0L1CMalFi4BXQx4CymkYmERL1j5M60X79+ITvgrVu3ao+BGeDCPaxA4qpVq7SIpqhf/3r9VDgDEsXADSBRjB3DbTPch/AjXjO0md8zJIbbd+jXt23bNmT6vMg/Xy+6DwEkivFfZg4QDhxIUD0LmEWB9/YamwxIZIdQs2ZNWrFihbYINi+EbT52795taxwZD+bnfZzN6ervi4qKqFu3bsJ++Yfr5Cr6eobEr7/+2utYu3atlMk7PGvcnNfGjRuljEmMj4/3yYvz5vF8MmzOkGiu26JFi6TkxXUw58Xv3TQm0XgPa9SoQfw0QG/T5jOP3WzdunXE94J/aC5fvjxo+rJWRAAk2vNbgfy+ekSDEgu3QCBx4P+RNTpZkGjs7PE6+tEY3gPbHHXh3SdycnIidqqB7uPIkSN98jp16hS1aNFCeF61atXyyYvrOW7cOOF5cX3Xr1/vkx//AJEx43j0aP87EjVt2lRK3QLdT/xffnsFJEbmr0L5eeHAgQTVs0AokeDz8BofIFG+Q6gIpwtIFHNfAYli7FgRbcDJeQISw/NTVv26ekSDEgu3gFWx4DprjdCpkBhfLZWSWjyMCEqlyJw0IDEyu5nBApAoxo5mu7r9PSDRmn8K148LBw4kqJ4FwhUNrg/eGJ0IiYkNalLWxtcoueOjgERAopcG8LgZ0BYLgAlIDO6XIvXb6hENSizcApGKB9/z3yidBonxWemUvWM+5exdCkiMEBDZiSKSKAamEEkUY8dYADuRdQAk+vdHdv20cOBAgupZwK6I8H3vxukkSEysV4OyNszWABGQaM85AxLt2U8HAkCiGDvq9sS53J6ARG8/JMovq0c0KLFwC4gSE9Ipb6ROgcSEGtUpe3t5BJEBEZBozzm/9NJLtGbNGq/jnXfeoYyMDK/HtyKcdvfu3b3y4Xx5+aMGDRoIz4uXLTHXi9/36dNHeF5sG95e0pwfL70kwm7mNHr06OGTF+ddt25dKfmZ88d7e20uHPsBEgGJwuEICZZbAHAntnE5ARIT6uRQ1hf3I4iARPvOCotp27chO30spi3GjuEAlBuuBSSK9WM6F4CTYIEHdDHgLKaRVTQkJtTOouzt8zyPmHVARCTRnnMGJNqznw4qgEQxdtTtiXO5PQGJYvyXmQOASLAAIPE3sY2rIiExoVam3wiiDoqY3Ry5gwYkRm47I8gAEsXY0WhTvK5EgESxfkyHRSASLABIjBFITKyb4zMGUYdD/QxIjNxBAxIjt50RYgCJYuxotCleAxJ1qBN9BiLBAoDEGIDEhJyMoBFEQKJ9x/zMM8/Qm2++6XW8/vrrlJycLHwSRLNmzbzy4Xznz59PvPeuaCDQ9+w216158+bC8+KyDx8+3KdusrYA5DqY68Xvq1WrJqVuou8N0rPebhFJRCQROCfJAqJ/ebg9vWg/bk6sX8MTQcxcP5N4Z5XExg9R9s4FPuMSEUm07nTgoGEraEAdDQASAYmSEAnJuh3qRNc/mpAYn5lGWRte88Bg1ZfLly2Jq5xM1T+e5Pk/IonqODuACe4VNBC+BgCJgETQnCQLiIYkt6cXLUjkrfaMs5izdy8iXhsx6bH6FJ9RlaoM6wJItLHDChx1+I4aNoPNKkoDgERAoiREQrJuhzrR9Y8GJMalVdH2YtYjhHyutnSMNs6q2qLnqcrgThSXnko5RXleoIjHzXDiFeXEkS+0J1MDgERAImhOkgVEQ5Lb05MNiYkNa3lFEDVQLMyjlJ5PaBHEzHXTKSPvRaoUH0fp80cBEhFNxCQNaCDmNQBIBCRKQiQk63aoE11/qZCYnERZm+d4gR9DIj92Tqj3ICXwMji7colBkR85p3Rp7nUtIomI5siM5iBt6KuiNABIBCSC5iRZQDQkuT09WZCY2Kg2Ze/w3otZf9yc8e54qpSYUA6FhXmU9eUblFAnm+IfrO71WBqQCCdeUU4c+UJ7MjUASAQkSkIkJOt2qBNdfymQmBCvgZ8OheZzcqdm5Y+TEuIprkoK8ezmSnFxVCmuElXLfc4TTQQkwlHLdNRIG/qqKA0AEgGJoDlJFhANSW5PTzQkJjaqRdnb/O/FzLDIj58rJSZSXGplSn22K6WO6qYdKV0f18AxuV0TQCLGpMX8mLSKghPk6wwwBiQCEiUhEpJ1O9SJrr9QSEyIp+wdgQGRITFtYj8tapjcvqkHBvn/2V8vpErx8dpn2Vvnap8hkugMhwawwH2ABsRqAJAISATNSbKAaEhye3qiIJEjiDy20Pxo2c57QGLkjmnYsGG0evVqr2PZsmVStuVr2bKlVz6c7/vvv0+1a9cWHhHkbfnM9eL3TzzxhPC8GIxefPFFn/ymTp0qJS+ug7+6ZWRkSMkP4Bd5+7JrO0AiIFESIiFZt0Od6PoLgcTEhHJA3LOYcgQeHG202xm79ftjx46l/Px8r2PdunWUkpIi3Kbt2rXzyofz3bRpE9WrV094XgyJ5nrx+w4dOgjPi7Uzbdo0n/xyc3Ol5NWxY0fatWuXT35ZWVlS8nNr23BCvQGJgETQnCQLiIYkt6cnAhLjczK02ck8Q1nkEVclGc4xwvGJgEQxUSJAohg7OgHMnFQGQCIgURIiIVm3Q53o+ouARCd1vihLuVMHJIqBG0CiGDuiXXrbEZAISATNSbKAaEhye3qARO/OO1acGSBRzH0FJIqxY6y0K1H1ACQCEiUhEpJ1O9SJrj8gMTad4IQJE+jTTz/1OngySWZmpvBH+E8//TStWrXK6/j444+pYcOGwvOqVauWV530Og4YMEB4XgwEc+bM8aoX1/Ptt9+Wklffvn391u3hhx+Wkp8o4EE64fchgERAImhOkgVEQ5Lb0wMkht/Bq+AU8/Ly6MKFC17HoUOHKCcnRzhwjBw50isfzvfUqVPUokUL4XkxJJrrxe/HjRsnPC++z+vXr/fJr6ioiHgCjWgdjB492icvrlvTppjAJdrWFZ0eIBGQKAmRkKzboU50/QGJgES7DhOQKEZDgEQxdrSr52h8H5AISATNSbKAaEhye3qAxNh0TIgkirmviCSKsWM0wEulPACJgERJiIRk3Q51ousPSIxNJwhIFHNfAYli7KgSwEWjrIBEQCJoTpIFREOS29MDJMamEwQkirmvgEQxdowGeKmUByARkCgJkZCs26FOdP0BibHpBOfNm0cnTpzwOvbs2SNldvPAgQO98uF8i4uL6dFHHxU+uYN3HzHXi9+PGDFCeF4MHR999JFPfl9++aWUvIYMGeKTF9dNxixxlYAqFssKSAQkguYkWUA0JLk9PUBibEIi1kkUc1+xTqIYO8Yi6NmpEyARkCgJkZCs26FOdP0BibHpBAGJYu4rIFGMHe0AVSx+F5AISATNSbKAaEhye3qAxNh0goBEMfcVkCjGjrEIenbqBEgEJEpCJCTrdqgTXX9AYmw6QUCimPsKSBRjRztAFYvfBSQCEkFzkiwgGpLcnh4gMTadIEPirl27vI61a9dSSkqK8EkX7dq188qH8924cSPVq1dPeF6804m5Xvy+Q4cOwvNiOJk6dapPfrm5uVLy6tixo09eXDcZWynGInipVCdAIiBREiIhWbdDnej6AxJjExJVcpgoKzToNg0AEgGJoDlJFogUku7cuUtnz52jo8eO0ZGjR3H8boM9BQVSoiJu6/RRX4AONAANWNVAz549qbSsDH7I4ItPnjpFN2/dokh9PH9PEnYgWZUsEK6Afrp5i06cOEn5+fk4/NiAHwta7dhwHZwgNAANQAP2NdClSxdtaAH8kq9f3r9/P1387ruIYFEllkFZJVkgHEi8e+83KioqAhz6gUO9c9qwYQMgsZL9Th+OEzaEBqABqxro3LkzIDGIX2L/9M3Zs2GDoiTsQLIqWcAqJP7y6x06cOCABoh8vnnzJuHP1wI//vgjIBGQCA1AA9BAFDUwdOhQ+vvf/+7bIbv8P3/5y1/ozJkzmt/mHaKu3/gxLFBUiWVQVkkWsAqJ331/SRNaYWGhy5td8OoDEhH9sBr9wHXQCjQgRgOAxOB+6ejRo5r/LigoACRKYqmYTdYqJJ44WT4O8dy5c8HV6PJPAYliOn04T9gRGoAGrGoAkBjc8f75z38mjiTyY+effrppGRRjFnxQMesWsAqJZWVlmsAuX74cXI0u/xSQCMdm1bHhOmgFGhCjAUBiaMerDxe7+sM1QKJ1RMKVViGxtLRUg8SrV6+GVqOLrwAkiun04TxhR2gAGrCqAUBiaKd78OBBzYdfuXoVkAj0s24BQGLoxhXOFYBEODarjg3XQSvQgBgNABJDeylAonUuwpUGCwASQzeucK4AJIrp9OE8YUdoABqwqgFAYmgvBUg0gA9eWrcAIDF04wrnCkAiHJtVx4broBVoQIwGAImhvRQg0ToX4UqDBQCJoRtXOFcAEsV0+nCesCM0AA1Y1QAgMbSXAiQawAcvrVsAkBi6cYVzBSARjs2qY8N10Ao0IEYDgMTQXgqQaJ2LcKXBAoDE0I0rnCuiAYlxlSpRtfRkysxIoYSEOOzsYNjZIbN6CqVVTYJNDDaxAiLJyQmUk1WZ0mG7sLVTOSWBWHdxcWKAx8r9UuEabodsl6Sk+LBtGm79AImhvRQg0QA+eGndAoDE0I0rnCtEQ2JmRjK1fDSTJr/QhH4oHkzXS4fQjbL7x/WyIdr/Lu4bSHMmNqfWzbMoJzNFeqccbicu+vr0tCRq2SyTpo59lC4U9adrJYO97MI2ul46mM7k96PpYx+lx5tWp+rVkmPeLlbsXP+hqtSuZQ59tLANXT40SLOTUVO67fZ90ZMG9apLzR7JoOQoOHorZa/Ia+Lj46hJg2rU4Ykc2rWmm6Y5bn9G2/F71uLmj7pQq2aZ1LBeWsxrjn+oNm1YjZ7p9hAVru/h3y6lQ+jSwYGUv7YbdWtfQ7NLosAfuIDE0F4KkGidi3ClwQKAxNCNK5wrREFiRrVk+nBBG9q/oacPGBqdkvk1Q+Shzb1o3qvNKSU5ISYdVN6sVlT4WY+w7PJDyWDNlrnTHqeqqYkxaZdQAJVZLZmW57alU/nPeIGNWUPm9+zcd3zSlcY/+wgxKIXKJxY/796xJm36oDNd3DcgLNudLehHn7/XkZ5snhWTdhv4dB368uMu9N3+gWHbZeMHneiRh9OF2AWQGNpLARIN4IOX1i0ASAzduMK5wi4kVqmcQF3b1aCjO/qE1emaHTu/ZwfVv0cd4jRVd9wJ8XHUr/tD9O3e8Jy0P7uwQ+veoWbMQrT5XjMUz5vcIiyo9mc3/t+OlU9RY0GO3VxOJ75vUDeN1r7ZwXZb5AjjikVtqW6tVOXbIg934Qjp8kVt7duldAgtndWK6ti0CyAxtJcCJFrnIlxpsAAgMXTjCucKu5C4Zll74qiXPyf9Q9kLdKpkFR0v2ULHSr7UDn59umQlXSmb4P87JYOJ01R5rBk/Wl7/dge6WuzfLlfKXqaTJevomMcuW+h4yebf7fKyX7tcOTyItq14KuZBkR/J7/2ip18b3CgbSt+XTqfjJRt8bPdNybt0rexZv9/jHx+vv/KY8rATCkpH9KtPJ7/2H3W9XjaSzpcu+r0t6u1xC50o+YK+LV1A/Lm/NnxsZx/q81RtpW03pHddOr07kF1G0IXShXS8ZJOXpsrtMs+vTdhObJceHWtGbBdAYmgvBUg0gA9eWrcAIDF04wrnikgh8cGsylTwaXefTvRK6Xj6tnQ+lRYXUXFxcdCjpHgfnS9dSpf9AOOeT7sTj0UL5Rid9nnd2qm08YPOPna5XDqRzpa8TSXFh4LahG1WUnyAzpcupitlL/mks3VFF6pdo4pydrFyn9o8nk3HdvY11ZnBcBqdLllFJcWHQ9ruaMlXdLF0Dv1Q9rwpnSHEj+6tlEO1azhqPWZoI7p0cJBXnRmaL5a+TkdLtoW0W3HxYTpWspm+L51KN8qGeaXz/YGBNLJffeVsl5gYTy+PfMQnIn2tbCR9XzqDjhVbs8uJks+0HyfXy4Z72YWHNXRrXzOiiS6AxNBeCpBonYtwpcECToTEn3/+WeuEDx8+TIcOHdIOfl1SUkI//fRT6NZQgVdECokMceZJKd+UfEilxXstOCRveOTvnCpZ6dUB86/1XWu7KTXzN6t6CrFdzBGZb0o+oNLifRHYpYhOl6yg6wanzTY/sLEncbRSNZgJVt4nW2T5jBO7XjaCTpZ8ZgmsvX+QHKay4t10sfQ1r3vBE4N4jGOwcqj42YRRjX3a4uWyiXS0ZGfYmispPkhHS7bT5VLvSD9PGBrSp55StntlVGPiCLyxPV4qnUpHir8mhmJvzXj3Sb6fHaKjxdt9Iq4M0D071grbLk6HxD//+c906tQpMvo09m38/sKFC/S3v/1NutcCJBrABy+tW8ApkPinP/2Jzp8/T7t379Y2Ic/Pzw96Pnv2LP3xj3+U3rDCzSBcSOTxYps+9I6UXS17kfjXtm/HGqrj9f6cH0lfLRvr1al/+nZHJR49pyTH06dve48Fu1o2RnuMbNcux0s20tVSb7t89k7HmHn0zJHRki97e933S6WTqaR4vy1NcdT2m5L3vB5DM2QzVKkIg/7K3LnNg9osXB2EONrFj0/DhyDvtsiw+F3p614/UHhWfvtW2Y63HS/tM+jpuiZwHqrZxb6mDtLF0rneWj04UJtR7+/+BPqfEyHx73//O12/fp32798f1Jfpvo6h8fbt2+G6HMvXAxKtcxGuNFjACZDIkcO9e/d6NaSTJ0/STzdv0c1bP2sHvz595ozXNUVFRY6LLIYLiS8MbuC1fAsD4pHiXbacuRGi+DG1GYhmj2/m+DXd8ma29HIcHAXjaJaxbnZeHy3eSTzGU4cBHgc6dngjxzvsQE5S/39SYjwVb+nlqRfX71Lpq7YB0WjrkyVriccz6rbj6M9jjTOUt92jjTJ8JkadLX03gsirNyDqtmNQPF+yxGM3th9PUNPvnVPPaamJdHKXcQziUC0ibxec79vlAJ0vWeRll0Obn6aaOZUt28ZpkPjXv/6Vjh496hX0OHDgAF27fsPj027eukWXL1+hgoICj1/bs2cPHT9+3DL4hXMhINEAPnhp3QIVCYn/+7//S9euXfM0koMHD9HZc+fp7r3fKFC57t69R99evKjBAv8C4wZ2+fLlcNqK1GvDgcQ6NVPpgmG2LoMQT7jQO09RZ44oXisb5emEucOvXcO5syx5RulpwzIt18pG09GSHcLtwoPrOW0P7BwcSI82qmbZMTnRqfNYN+OakfyYVJQzN+rxTMmHXlGxAxufpox0ddeh5HGI77zR2qMFhmAex2qss4jXDIrfl84y5FM+ttOpSwuxXVYuaedV3gulC4jrIcIeehqcHo/31NvitdLBNOn5JpbbopMg8e7du5ptdP90/PgJ+vn2LwF9Gvu6Gz/+qMEhQyJ/j0GRQVPkHyDROhfhSoMFAsGY+f+lpaWaeK9evSpMtwxU+uPlw8XF9Oudu0EbkrFMd+7eo7KyI1qZOA2R5bJTwXAgcfVS7873ZMmnQjtevQPm85mSjzwdMHfEHy927liyJaYoIo9BNNZF5GuewGGcWPD2nNZKrwV42BRF5B8IIu11P63D9G3p/dmqPD5xqGJj7IyQXy0tyWu8HQ9tiGQ88H37+I8m8uelxYV0pfT+rHueKezURbe7tK3h1W9cLp1ExRYmi1mxg/kafuphnBXO4x8zq1v74eEUSPzLX/6ijTNk0GO/xE/CjH4r1OvvL132RBV5vCIHUkT9ARIN4IOX1i0QSrT656Ih8X/+539o3759WoM4cuRoWA1JLxOfj584oaXBj57v3bsnqj1FnI5VSDRHy0I9EmT785jNS5cuaccPP/yggbH+/ty5c9rEHnPHa3zPMxD1X+q8bluLptUt/1I3OlSZr+vWrkqXD91fmPeS5pQCO1yuH9ddtwP/WOBDf882Y9sZ7WB8zSBgXD6II5g1sq0/5pJpi3DTHtirruf+8n0+W/p2wHqzDcrKyujixYseW3FU/8qVK573p0+fDvp9ju7qeuLz1hVPOU5PVm34yeL7P9h4HCJHmY06Mb8+ceIEff/995qt+EkG247Puu6OHTsW9PvlP07u79YybdyjjrMdj0V8b96Tnntc/qRjY9B68TAh3S6sJR6Tp9vlu+++0x7Bmm1pfM8/lI2znhdNb2nJLk6ARAY6jgAyIBYWFdGPP/0UkV+7cuUqFRQUaumwzUT9ARKtcxGuNFjACFzBXouGRD09flx8J4wIormMHH3ksR7cMI8cOSKqPUWcjlVI5KiL0cGeKlkTsPO9desW8SDoYL8q+TO+hvM3drrG17wenrEDnvGS8xwTL6titMuxkq0B68N1DWUXvpF8DduQZ8cb7aG/PlHyuVeeE55VcyKGcQF2joQFivgwHPIPKrZLsD/WFM+6ZEel28p85kkd+v3iSSwPKgjYHMUzbq/3XemsgPVlcOZoUbC2yDblz/lxIc9oNdus/P1hr0ll54v6W4Ihq9Ar4jrec/mUYSzi5TKOIvqfxfzNN99oWrFiF56kyBr0ZxdeteBy6SseTfHYRF7lIFR9nACJN27c0PwQ+6KrP1yLCBB1/8Y/fDkdfvwcqp0Ga8PGzwCJBvDBS+sW0EUZ6qxDnYjHujyDi8XPBw/kDZV3qM+vX7/heWzN4FCRf1Yhkbek0p0rT1Yxj/HhTpR/gfPSCeH+sXPi+2SOoHHU7Iey5zz5bv24C/G+q6E64Gh9zgt+G5e84Qifv0d+HKGIZMkIdu4c6fHnoHhBbv1+lG3r7Si7WLH/Y49keG0ZVz4j1zsCywPpI11CiqGSl+owO3ae3crr5Om2m/tqc8foyYrd+JrnBzf0lJ+XR/I37OPMmTP066+/htsUNVjkHyj+YJEXwdftxmfeaclqmaNxXe8utb3Kd7Lkc5/7z5H6SGfkBrLL2dJ3PPnypCgrTzwqGhK5P9J9JEeZQ/msUJ//8usdz6xojkqHgm8rwgQkWuciXGmwQCix6p/rDUAEJH777bfar6TS0rKgk1T0vK2cjx49pqXJjzsq8o9/TVrpwI1rIn5T8r5P5/vLL7/YrgY7djMQnS+9P7vyQtEASk6Kt1ReK3Wye0292lW9JqxcKM31sgtrkKMQdv/YLmbY+ab0fY9jYoet2vZpfbrW9tqp50TJeq86crsQ4Wi4/Xvb7rC2kLIOOye+7usYPVnRo/ZIde79R6o8kck8i17EIz+2vRkUOR/jDPs3JjoLsHmnJv2+cjm973uxNvzFrqb4+7ycmTFtXo9Sz5fPLw4NverAkCFDhEXcIulfuF/ioAc/GbvxY2SPmc1+7odr1zWfVlhYSDw8y+4fINEAPnhp3QJmYQZ6LxISuUPgUPrZc+ds/+LSy3vp0mUtmsiDfUXPCguncfIYrwceeCDo8XiTKoZOcCidKLk/zofHtPz222/hZBn0WgYi/mWrd8I8kcHYAWdl/HfQsoaqi8jPa+dUoiuH7i/We9IAOhwF47qI+mMbc5q6XTgv4wSWJ5qlOsYuVmw8fuTDXve1rOT+ckH8KJCjqKL+OBqp243PPAtY1xRv2Zec8M/K2O4f//Ef6PN376/HyRFl4yNVjlqLetzHQMTj9XTbmR+tfvFeB/rDH/7REbb7wx/+4LXjDM881svNwzZ4TLSoP7avcUgDr8dp3OHn3TeeCGmTNm3aRPR0QVQdWCfs03icfTgTMHX/5e/MkzP37t1XPgHm5k3bRQUkWuciXGmwgD9x+vufSEjU14W6du26MEj88aebVFBYSDyBJZJHtLZb4O8JWIHEPl2yPE6Vt/o6UsI7FhRrY+ZERBDNdeElGfSIIjsm3aHzuVfn6iE7YCuQIuKalk0re5VNX/aGtSfil7Q/u+jjFHnso/Gx6TNPZTnGLlZsmzu1mcF2Qz0OXVZk3RhRPFv6nifvb/f2p5yMf1fGdv/0T/9Au9Z09ZTfCEPclmX83Z8QxFHY6Z68d3zSmf7v//f/OMJ2//LP/8dTLu4nzpW+6dEUj5cT/cegyD9mdBDlcaF6P7X1484hbVLRkMhRYoZEXu7Gn/+M5H+8FBz325yuiCd4gEQD+OCldQtYFa8oSOTOgEXPBy+QbTX/UNfxUgMMiAygIh5JRtoJWoHEIb0e9HSA/IuZHzvJ3nLQOKHletmznvyH9X4wZAdsBVJEXPPkY8YI6xDP1ns8Q1LWH9uFbc97FDOw645p5DM1HGMXK7Z9f+79xcevlo3zOFuR0VfzPeBhI+zUedKVbreL+wZQrez/VMZ2f/inf6DCz7p5yn+udJlWJ4ZrkdFXo+04XT26f7H0DU/eBZ92pX/55//XEbb7r//4v55y8b3lJbT4XjPIiYqsGm3Cr7nf1meFXzBEp4s+7x7SJhUNibp/ZPuE8lVWP2dIZHuwrxQx5AGQaJ2LcKXBAlYFqzcCu79oOMqnQ+Ktn28La1A/376tQSKvTWUVHBxPbwAAIABJREFUErnhde7chRo3birsaNSoMT34YM2gR52HHqJGDev9ftSnhg0bUcOGj1Djxk2ElcNfnTgPPho1rO/Jn8sSqrzR+vyh2rU95WL73LeLuPvja5cmmk04Ly+71HGOXazYv369ugbbsaYeoUaNWFPybPfII7rtGnrybtigHtWqVcsxmrJiuwYPG23X4HfbNZZqO+4nyttjA4/tuBw1agTvO6zUR8Q1NWrU8pSrvC021MrL91ympgLZJVSdateuI7z/nDdvnuUfCjzMif3a+QsXhPk09s36Em88aczuHyDRAD54ad0C0YZEHpejL6AtaoAv14GjkjzAlw8rj5t5XFWDBo2IO0McsAE0AA1AA9CAUQM1a9amDRs2WGIzPeJ36vRpYZDIkUReQ5jhk1dlsPsHSLTORbjSYIFoQyILXd/w/NLlK8IaFC+Dw7PLOG0rj4l4XI2xQ8BrOAhoABqABqABowby8pZaYjN9XUMeumLVp4a67u69e8Q7kTEkihhyA0g0gA9eWrdAKKHqn4t63MwtTh/ke/LUKWEN6sKF8mV1eEFtK2NmAIlwBkZngNfQAzQADZg1YBUSeQ1Nhrm9e/eG3KdZ96mhzjxLmsfY8xHJGp1mugUkWuciXGmwQCih6p+LhETewoob1IGDB+nOXev7NetlMZ85LH/o0CEtTR5Mb+UPkAiHYHYIeA9NQAPQgFEDViGRn17xUyweSnX5ylUhwY9z585rPo3TjWTzALMfBCQawAcvrVvADFyB3ouERF7OhGciMyieO29/oO/58xe0tLiBWl0qBZAIZ2B0BngNPUAD0IBZA1Yhkcfa8648WvDjwEHbkMhj7Hfv3qOlx2swivgDJFrnIlxpsEAgKDT/XyQksuB5IC43KD6uXP0h4kZ1/cYNbbIKp8ML1Vr9AyTCIZgdAt5DE9AANGDUgFVIZL/DC/TrawDzrGReDNvsR6285++V/r4+Ii87JOoPkGgAH7y0bgErouVrREMi//LiHS8Y7jiqyIthWy2Lfh3PjuYV7jkNbkzh7LQCSIQzMDoDvIYeoAFowKyBcCCRYY6HUvETLT7OnAl/zUQeflVSUqr5NE7jpoCdVnTIBCRa5yJcabCADlyhzqIhkYX7xz/+kQ4cOOBpEN9+e9HSry8e0Pv9pUueCCKP2Qh3KztAIhyC2SHgPTQBDUADRg2EC4kc/OC9qDlwwQcvYXPr559DBkB4XP2NG7ywfzkgckRS1GNmQKIBePAyfAuEgkP9cxmQyOLlha95RjI3KP7ldODgIeKFQ/V8jWduSBcvfkcHDx6i/N27te/whJVwAZHzBSTCGRidAV5DD9AANGDWQLiQyL6FV9e4fPmy5s/YrxUV7aVjx47T7V9+9evX+Ckab7/HS7jpcMkRSdF/iCSGz0f4xgMPPGCEsGCvZUEiNwR+TMzbVOmTWXRg5F9TvE5UcXGJNtaDIVJvRPwZfyfSWV+ARDgEs0PAe2gCGoAGjBqIBBJ1uONIoL7qhu63GAT56RlDIS+XY/RpfA0PmxKx3I1eBuMZkAjki8gCwcDQ+JlMSNSFzI+fOYpobjh6A+Mzf8bhfI4ecmg/0j9AIpyB0RngNfQADUADZg3YgUT2Tbw0Du8Pr4+dN/oy42sdDsMZVx+u7wMkRoRI+JIRBIO9jgYk6qJn+GNg/OGHH+j06dPa0gK8ZzSDoZWFsvV0gp0BiXAIZoeA99AENAANGDVgFxKNPogBkCeinD9/XttQ4uLFi3T79u2In4YZ07byGpAI3ovIAsHA0PhZNCHRiuDtXgNIhDMwOgO8hh6gAWjArAGRkGjXZ9n9PiAxIkTCl4wgGOw1IBEdqLkDxXtoAhqABmJZA4BEMJLrLRAMDI2fARLhDGLZGaBu0Dc0AA2YNQBIdD0iwQBGEAz2GpCIDtTcgeI9NAENQAOxrAFAIhjJ9RYIBobGzwCJcAax7AxQN+gbGoAGzBoAJLoekWAAIwgGew1IRAdq7kDxHpqABqCBWNYAIBGM5HoLBAND42eARDiDWHYGqBv0DQ1AA2YNABJdj0gwgBEEg70GJKIDNXegeA9NQAPQQCxrAJAIRnK9BYKBofEzQCKcQSw7A9QN+oYGoAGzBgCJrkckGMAIgsFeAxLRgZo7ULyHJqABaCCWNQBIBCO53gLBwND4GSARziCWnQHqBn1DA9CAWQOARNcjEgxgBMFgrwGJ6EDNHSjeQxPQADQQyxoAJIKRXG+BYGBo/OzI0aOUn59P33//vd0tJB3xfezdDOcWy84NdYO+oQH7GoglSNy7d6/mw69dv05G3x7stesBCQZ44IFgAjF+duabs5rAjh496gjIs1sIQKL9DhROCDaEBqCBWNZArEDiTz/9pPlvDvT8fPsXQCLgz7oFjCAY7PW1a9c9Irty5Qr9/e9/t8tpFfp9QCKcWyw7N9QN+oYG7GsgFiDxt99+oz179mj++8iRI5YBkXnAOkngypi1QDAwNH52995vdPr0aU1ou3fvpuPHjxOLT9U/QKL9DhROCDaEBqCBWNaAypD4t7/9jS5evEgHDhzQ/Daff/n1DiAxZmlOUsWMIGjl9bFjxz0RRQ5dMzA69eBfT/v27aNr167Rn/70Jy+eBSTCucWyc0PdoG9owL4G/EHi7du3qaSkhAoKChzr+9gns3/WDx6PePXqD2EBIvOAJOxAsipZwAoYGq+5c/ceXbn6g+fXiS5Cp5/5VxQ3bv0PkGi/A4UTgg2hAWggljVghMS//vWvxI9r9Ue3Tvd5evnOnPmGbv18O2xABCSqRHISy2oEwHBf37l7l369c0cLYXMY24nHufPnaf/v4Xb+dXXnzh2NEwGJcG6x7NxQN+gbGrCvASMk6sOtOIJYVlZGN3780ZE+T/fDv965SzxMLFy/brxeInogaVUsYBRErL6+/cuvdOjwYS30zmMp+Q+QaL8DhROCDaEBaCCWNaBD4q1bt7RHyxydu/jdd7bASyU/qwrHoJwSLaCSYO2UlR+RcwPnX4E8oBeQCOcWy84NdYO+oQH7GtAhUd9Mori42DWAyP5WInogaVUsYAe8VPouj6XUx2j8/PPPgMQa9jtQOCHYEBqABmJZAwyJHFTg4AL7j2vXbwASVYEblFOMBVQCPbtl1Wd8/fjjj4BEQCLFsnND3QBv0IB9DTAk/vnPf/ZAYqQTQOz6ror6vhjKQCpKW6CixFcR+eqz0m7cuAFIBCQCEqEBaAAaCKoBMyT+HOEs4YrwdyLyVBpuUHgxFhAhJFXSACTa/2WN6ARsCA1AA27RACBRDGcgFYUtoArgiSgnIBHOzS3ODfWE1qEB+xoAJCoMNyi6GAuIgC9V0gAk2u804XhgQ2gAGnCLBgCJYjgDqShsAVUAT0Q5AYlwbm5xbqgntA4N2NcAIFFhuEHRxVhABHypkgYg0X6nCccDG0ID0IBbNABIFMMZSEVhC6gCeCLKCUiEc3OLc0M9oXVowL4GAIkKww2KLsYCIuBLlTQAifY7TTge2BAagAbcogFAohjOQCoKW0AVwBNRTkAinJtbnBvqCa1DA/Y1AEhUGG5QdDEWEAFfqqQBSLTfacLxwIbQADTgFg0AEsVwBlJR2AKqAJ6IcgIS4dzc4txQT2gdGrCvAUCiwnCDoouxgAj4UiUNQKL9ThOOBzaEBqABt2gAkCiGM5CKwhZQBfBElBOQCOfmFueGekLr0IB9DQASFYYbFF2MBUTAlyppABLtd5pwPLAhNAANuEUDgEQxnIFUFLaAKoAnopyARDg3tzg31BNahwbsawCQqDDcoOhiLCACvlRJA5Bov9OE44ENoQFowC0aACSK4QykorAFVAE8EeUEJMK5ucW5oZ7QOjRgXwOARIXhBkUXYwER8KVKGoBE+50mHA9sCA1AA27RACBRDGcgFYUtoArgiSgnIBHOzS3ODfWE1qEB+xoAJCoMNyi6GAuIgC9V0gAk2u804XhgQ2gAGnCLBgCJYjgDqShsAVUAT0Q5AYlwbm5xbqgntA4N2NcAIFFhuEHRxVhABHypkgYg0X6nCccDG0ID0IBbNABIFMMZSEVhC6gCeCLKCUiEc3OLc0M9oXVowL4GAIkKww2KLsYCIuBLlTQAifY7TTge2BAagAbcogFAohjOQCoKW0AVwBNRTkAinJtbnBvqCa1DA/Y1AEhUGG5QdDEWEAFfqqQBSLTfacLxwIbQADTgFg0AEsVwBlJR2AKqAJ6IcgIS4dzc4txQT2gdGrCvAUCiwnCDoouxgAj4UiUNQKL9ThOOBzaEBqABt2gAkCiGM5CKwhZQBfBElBOQCOfmFueGekLr0IB9DQASFYYbFF2MBUTAlyppABLtd5pwPLAhNAANuEUDgEQxnIFUFLaAKoAnopyARDg3tzg31BNahwbsawCQqDDcoOhiLCACvlRJA5Bov9OE44ENoQFowC0aACSK4QykorAFVAE8EeUEJMK5ucW5oZ7QOjRgXwOARIXhBkUXYwER8KVKGoBE+50mHA9sCA1AA27RACBRDGcgFYUtoArgiSgnIBHOzS3ODfWE1qEB+xoAJCoMNyi6GAuIgC9V0gAk2u804XhgQ2gAGnCLBgCJYjgDqShsAVUAT0Q5AYlwbm5xbqgntA4N2NcAIFFhuEHRxVhABHypkgYg0X6nCccDG0ID0IBbNABIFMMZSEVhC6gCeCLKCUiEc3OLc0M9oXVowL4GAIkKww2KLsYCIuBLlTQAifY7TTge2BAagAbcogFAohjOQCoKW0AVwBNRTkAinJtbnBvqCa1DA/Y1AEhUGG5QdDEWEAFfqqQBSLTfacLxwIbQADTgFg0AEsVwBlJR2AKqAJ6IcgIS4dzc4txQT2gdGrCvAUCiwnCDoouxgAj4UiUNQKL9ThOOBzaEBqABt2gAkCiGM5CKwhZQBfBElBOQCOfmFueGekLr0IB9DQASFYYbFF2MBUTAlyppABLtd5pwPLAhNAANuEUDgEQxnIFUFLaAKoAnopyARDg3tzg31BNahwbsawCQqDDcoOhiLCACvlRJA5Bov9OE44ENoQFowC0aACSK4QykorAFVAE8EeUEJMK5ucW5oZ7QOjRgXwOARIXhBkUXYwER8KVKGoBE+50mHA9sCA1AA27RACBRDGcgFYUtoArgiSgnIBHOzS3ODfWE1qEB+xoAJCoMNyi6GAuIgC9V0gAk2u804XhgQ2gAGnCLBgCJYjgDqShsAVUAT0Q5AYlwbm5xbqgntA4N2NcAIFFhuEHRxVhABHypkgYg0X6nCccDG0ID0IBbNABIFMMZSEVhC6gCeCLKCUiEc3OLc0M9oXVowL4GAIkKww2KLsYCIuBLlTQAifY7TTge2BAagAbcogFAohjOQCoKW0AVwBNRTkAinJtbnBvqCa1DA/Y1AEhUGG5QdDEWEAFfqqQBSLTfacLxwIbQADTgFg0AEsVwBlJR2AKqAJ6IcgIS4dzc4txQT2gdGrCvAUCiwnCDoouxgAj4UiUNQKL9ThOOBzaEBqABt2gAkCiGM5CKwhZQBfBElNMIiadOnaYWLR73HI8/3pLsHs2b30+P0+7QoSN16dJFOzp16kwtW7b6/9l7D2g5imv9d1687/9/7913fY2xyUFCIggUCEKBIAkRJBASSCAJIQmJKCGyCEIZAQJEtAEDxoFkcMAEE4zB8iUbsDEmmJyjycnZt9769dEeVdf0dPfMmXMmfb1Wr+6Zrtq166vdVV/vSsX0LO3x4yfEwtj/dh01anTxObL22mtMiYw99xwTCzNq1J4lYfbZZ59iGHQZOXK3hDD7BmHi+Ql12XPPvUpklOoyuiQM6Rsu5N/yaldw8sOAY6jvHnuM8mQk4zJmzN6xMMSxNOzqlxE6hWW02257xGTsvffYEhlhGNI1+XYNdSGOPbOrr8u++5bqgn2uxm28GzdunxIZpWVUai/YkC9njz3iZUQ6yLYwlAX/mZ52RUcLw739b1fs0J5zTbKXLF2Q5b8jSekk20tou3Fdkt4jv4xIJ8lefFzIU4jL7rvv4Xxckuxl992zbXfvvVfXHR3plNYdWfYCLj7+SbqE9pKFC/LQ38qYa2gvYBTiEpZjRx0UL6PRo+NlxG8/He79MkKXsIxIt7PniBEji+l+61sXu7/97W/u3nvvdStXrnQfffSxq0Vb1CwympjaSPVaIdAsxloLPX2S+Oyzz7kNN9y4eG633fZu+PBdOnUOGbJDUV6PHpu4o48+2q1YsSI6ly1b5gYM2Kb4nLQ32qhH8TnhFixYGHtOGCqsc845pxhu8uQDSsJMmLB/8TlyIFR+3tBl/vwFxTBLlix1vXptGguDLvxv+p522mmOeL4cSLA957r//hNjzwm7335xXXbddfeSMIsWLSrKIW9+Gtz37ds/pstxxx3vevbsFQs3ePDQogx0mTZtWuw5cg46aEYxzNlnn+2GDl1dPpbmcccdVwyDnK226heTQ5n5eT7qqKNjz5EzcOD2sTCka/LtevDBh8TChLaw8cY93bHHHlsMg73grbH4XDfbbIvic3SaO/fE2HPC0JD69jJx4qSSMFOmHBiTs9NOw2JhsI1TTz21GGbhwkVu0003j4UhrTPOOKMYZunSpSXPISA+dhADPz/cT5p0QCwM9h6GOeuss4phTj/99JLn2MvSpacVw1Cmob0g19clyXZnzpxZDEOaQ4fuWJLWKaecUgyDvBCX7bYb6LA1S2vWrNklMpBrz7lOmTK1JMzs2bNjYfr02bIkzAknnFAMQ1mEtov9+OkcddRRJTIgVL69JOES2u7AgYNicsBg3rzV9kJdg62G5ejrMn/+/JLnY8aMjekLYQ1lTJ06LRbGt13soLN1OPH9em/FinNFEmtFNiSnORGoBflqFhkiiR2EVSRx9ceBSOIK5ze0NMoiiSucSOLqd0QkUZ7E5mQ30romCDQLwauFniKJIomhZ0IkUSTRbEKexOTeAZFEkcSakA0JaU4EakG+mkVGPUki3be9e/d2//mf/1k8v/rVr8a6TuiC8Z9zP2jQ4Fh3EONwwjBjxoyJydlhhx1iYb72tTXdvHnzimEWL17s1lprrVgYdOF/6xJasmSJI56f1pAhQ4rPCTd27NjYc8LuvffesTA77LBjSZgFC1Z3fdPV5afBfY8ePWK60G3/9a9/PRauX79+sXQmTZoUe46cAw6YUgxDF2D//gNKwvhDAsjTRhttFAvTq1fvogyez5o1K/acdLbYIt4NTLphnugON2y59urVKxZmjTW+5ubMmVMMg7307LlJLMy6665bfI4MCG6YztChQ2P2Mm7cuJIw++23X0zOtttuGwvzjW+s5U4++eRiGMprnXXWiYUhXbp+LU94p0Ndhg0bVnxOuFGjRpWE2XfffWNhBg8eXBLG724GlzAd7AV7NV0o0zXXjNsLcu05V+w0Luer7sADV3fDL1++3A0YUGovJ554YkzO2muvHZOz+eZbxLqbDz300Nhz0kSurwvlEdflPx3x/DAbbLBBEOar7phjjimGoSw23njjWBjsx5eRZLsMwfC7mxm3GOoS2m6fPn1iYdZee52YvVDXrLvuerEwyPTTIUyYDl3fvr677LJLSZiJEyfGwvi227v3pupu/vLPNR0z2ZysRlrXFIFmIXi10LPeJBFi8JWvfKV4Ukn6lSIk0X/O/aBBg2KVK41qGGavvfaKyYEo+GG+9rWvlZDEb3zjG7Ew6BKSxDXWWCMWJokk+ulwn0RYwzAhSQyf09j5unQ0+mvGdOnbt28sz5DEUM4BB6we79ZBEvuXhGGcll8GG264YSwMZeY/p6EN09l8881jYUg3DBM2tKEtQNJLSWLPmByImq8LJDFMhzLyG2NIYhgmJInbbLNNLAy2EZJEyFAoJ04Sl5Q8TyKJoYyQJGLvYZiQJIbPsZeQJGLzfrgkkug/5z4kif37l9pLSBL52PLlbLbZZjGSeMghh8SeExa5fjlSHr4M7pNIYhgmJIl84PhhevbsGUsnyXbDjwrIsy+D+9B2+Sjyw2Abvr1AALFVPwz3vl0SJny+667xMc+QxDBMSBJ92+WDTmMSRRJrSpAkrFCoBflqFhkiiR3dzRAwkcQOsi6SuML5DS2NskjiCocnUSSx4x0RSVR3s7hSGyPQLASvFnqKJIokhp4JkUSRRLMJeRI7uuEND7uKJIoktjFFUtZrQb6aRYZIokiiNXx2FUkUSTRbEEkUSdQSOPHuajEkIaDu5lVrJXb1OokMuA/HoWlM4oponJI10nbVmMQVrmPiisYkYhMak7jCMXHF3g+7akxi/ANHYxLjBK8WzhtRJCEgkiiSGDU+mrjS4WXVxBWNSWRSicYkrp5gp+5mdTeLKrUxArX42mgWGepuVnezeWHsqu7muDcGXDRxRSTR3g+uIokiiW1MkZT1ZiF4tdAzjSRuuWVft/XW23bq7Nevf3EbqXBbPnU3r/ZMaAmcjnUS/YZYS+B0fMBoCZyO90RL4KxwlS6Bs+GGG3Wq/rb6ny0ybYF1bcsnjtT2CNSCfDWLjDSSuO6667u11163U+c666xXrFxEEjsafRb29skQ9yKJIolmE1oncYXTOokdxLiz6ySy+H9n63Dib7DBRsV6XCSx7SmSAGgWglcLPUUS1d1s5MSu6m5Wd7PZgmY3N/fsZpFETVwRo+sCBGpBvppFRqORxKRt+azBsmu44wrb8tkzu3bVjivhrhV5dlwp3ZavuTyJ4a4VeXZcKd2Wr9l2XNk2ZlOtMCZxzTXjO/Rk7bjCxK1akER232F3H9tRpV13XGELSauf7NoVO66wLZ/JF0kUSewCiiSRzULwaqFnvUniVlv1c3RJ20kXtzUmXBcsWFh8ZmF23nlYbDuriRMnlYTZd9/xMTnDh4+Ihdlggw0dW/5ZWmxhtvHGPWJh0MXf2mzp0qVu/fU3jIUZNmx4UQayxo+fEHuOzqEuI0bsUhJm4cKFRTk0HJZXu26xxZYxXY499tio+8eecx04cPuiDHShgfefcz9t2vRiGBru7bcfXBIG2YYL18022yIWZqut4tv/sXVemM7WW28Tk0G6YZgZM2bGwiDXD7PeehvE9uJdtmyZ69Nnq1iYTTaJbxF4wglzY8+RR9n7jTFdmX463E+evHq7QvI8ZMgOsTDYBtumGS6UF/sAh3LOOOOMYhjsJXy+2267F58ji32BwzD77x/fixd7D8P4S+CAS/h8iy36ONI3fSlTugz9cDvvnG677DV80EEHFWWQJvum+zK497efIz2GlfhhBgzYOkYSDz/8iNhzwiLXdOVKefgyuD/iiFmxMJtuulksDPoed9zxxTCUBftG+3L69Nmy+Jx0jjyy1HZ5P317SXqnZ86M2+4222wbSwcMTjlltb1Q12Crvi7c+3k+9dRTS57vuWd8e9FRo0aXhJkyZfX+2shj72lLpxZdzepujhNNMSQhoCVwVi2B09VjEmncBgzYpjjWhYHRG23UI1ZxQhJtwLRdR4wYGavEaVDsmV0nTNg/JmfkyN1iYajE589fUAyzZMlS16vXprEw6ML/VpEz0YZ4lgbXXXaJ761KA+8/536//eK67Lrr7iVhFi1aVEyHBiqU0bdv/5guNIY9e/aKhRs8eGhRBjozAzOUc9BBM4phIIk0KGEY9j+2PHOFyPthKDP/+VFHHR17TtiQsJKuL4P7gw8+JCYntAUGy/uEFXvp129ATA4E1tdl7twTY89JZ+TIXWP2wkdFqEvY0O6007BYGGyDRtzSWrhwkdt0081jYZAZksQwHRp5k8F1n332LZExaVKcsGLvoRyfJLJfdPgce1m69LRiWpRpaC/I9XVJsl2fDJHm0KE7lqR1yimnxOSEuGy33cAYSZw1a3aJDOT6ukyZMrUkzOzZs2NhIHxhvk844YRiGMoitF3sx0+HoRWhjF133S1mL0m4hLY7cOCgmBwwmDdvtb1Q12CrYVq+LhDJ8PmYMWNj+u6115iSMFOnTouF8W2XD61aEEWNSVxNFEWRhIBIokhiVBGLJHaM1wwbWpHEFU4kceMiWRFJXOFEEleTqFr0cDWyDFEkISCSuIok8hVq3RaVXtdaax3Hufba60RdtHTTbrTRxg6vk3094xnq339A8Tlh+GK151zxJPK/f4bdh5MmTY49JyxdRL6cXXYZGQsDAYx3Ny+NPC1+OugS724+LcqDH4auKT8dvIb+c+4nTNgvFgbPVhgm9CSGz+mK9XXBM9SjR8+YnLDLburUqbHnyJw+fXX3IZ5EvI9hWqEnkS5ePwxl5ucZb4z/nPttt90uFoZ0wzAzZx4cC4OXxw+DV+WYY1Z3fWMvffv2i4Why9HXZe7cubHnyAs9z3iG/HS4P+CAKTE5O+ywUywMXjjfM0R3M97FUE7oSQyf77HHqFg648aNK5ExceLkWBjsPZQTehLD5yxf5Xc3U6Z0mfvh2G7Nx45ueP859zNmrPY8k+aQIaX2EnY3s8uHL4euWH9MIt3G/nPukevrQnmEYWbNinc3b755n5Iwxx8f9ySGtssHj5/OnDmltht6npNwOfjguO3iLfX1xTb84QnUNb17bxYLQ3hfF8L4MrjHc+iHofs5DHPggVNjYXxPImErrbuTwsuTuJoEiyIJAZHEVSQx7Pqo5Peaa369OHjaBlGvscYazu8ySlonsVYTV8aMiVeuQ4cOjenDBBS/El+8eHG0YLLpyjVpxxVNXPlKtJWi33DRePu4cV+LiSvYC+MdLa2kbfmYDGDPuUKGQl2YXOSPMYOYhWEgAr6cbbbZJham2Sau9OjBUIklxTwdffTRrrsmrqy99tox7PJMXBkwIP7hQXmEZZS1TiLvayNvy9ddE1d8klhJnZ03rJbAEUlqewQa2dVda93SJq7krTSSwlVLEqno/caar+uwsQhnN7OuXBimq2Y3Q1z8tPLMbg4Jq9ZJ7FgDLty1ItzHW4tpazFt/13LIomEbWSSuM50Tw8fAAAgAElEQVQ668TqDvT1P174aPXzy3016ySKJK72+tW6vURe2xMkAVCQJ7GOnkSRxBVRwxE2FhtvvLHD22kEOskz1LdvfNbxpEmTShqdAw5YPSmCLsD+/fuXhNE6iVon0eyvFkvgbLbZZrHu5nZdAkcksWvJW1cQwiSZ4khCQCRRJDEiTkndzfIk5utupovRCC1XyKkRD7vKk7jCjRo1qgQX7biiHVfsHZEnsfGIZacoUhLrbNT/OpXRFo/cqGXWFXqpu1k7rliDZFd5EuVJNFuQJ7H5dlxRd3PXEstO0Z+uaMS7SmanMtrikbsK80aU290k0Z+hmDRxpdm7m9ldxRpYu2pMYmN5EseOHVtSRvWauLLHHnuU6JLHk7h8+fKip5b3yGzNrgxPCCeuhJOuGNvre3uTbLdeJHHChAkledKYxBVuxIgRJbhMnBhffF0kUSTR1YJstDjP61T2aoFvs8joTpIIAZw+ffWOHyz7sv7668cqvTwkcauttooN+KZLxhpHu2ZNXCEdn7CedNJJJbM/CeOPA6TRDbub/W5VBqHvuOOOJbrkIYm+LizabPmwa54xieutt57zycOwYcNK5OQZk8jSOUYeICDhrNg82/Ixu5ZFnk3O6NGjS3TJ6m4Gf38xZ8oinCHKOC9Lg2vS7GbGXfpLxiQ1tFkkkUk0Rx55ZDEtFm3++tdLZ/D7ecZerPzs2q/f6iVYGBMKUbNnds1DEv1lirBdi2vXPCSRcvSXptluu+1K5OQhiYwxtDJYsGCBAyvTg2ueMYmbbLKJO/PMM4tyksooD0n0dcFe1lprrZguPXv2LKaBzkkz87feeutMewltl9n8fp4h5L5HnvJihrwfhvusiSsDBw4s6osNJ5WRSGLXksKwLe8UuThx2UVumz2mlj33P2JeRPCmH7ukbBjiv/unD2JEcLvR04vhb7jlruKzt9973y0+93K32+Q5bodxh7jpxyxxD/32D8XnH33yqTvjm99zu+w/2w3Ze6Y79MTT3R9feCV63qmMtnjk0Cha+Xd3kkQqRSrpww47LGpwt99++5JKMw9JpBFiLBeNNqQzaUB4FklElw033NCx3hlyyumSRRKRA0llqZbJkyeXNEo8z0MSIXjowhJBNFLE8888JNHXZf/99y8htDzPQxJpsGmQjzjiiMSJLXlIImQaYmi4hF4sdAkb2nB2M2H4Dz3AJVyWhud5SCL2gveQcoYAh8QBOVkkkTCGC3L8/XF5ZmcWScS+zXZp3JOIQx6SuMEGGzgIEbgkTT7KQxLRGU8mZYTnLiR3PM9DEikjsxc+4AwLu+YhidgL7yy6UBbhxxiy8pBEPtrABJtJ0iUPSSRtyoBynjJlSslHErqEthuSRMKQ78MPPzzShyV+DA//mkUS0QUPr+GSZC8iiU1EEt9461333EuvRecDj/4+InY//vndxf9efu2tiKBBEo9bfH7xf4tj18+/+LJI9CAoz6+SCYH0SeKhJ57hIJ6PPP60e/7l192iFZe7nfY51L325jtR/GUXXunGzZzrHnviGffK629FhHLPace6jz/5TNO4U4huK5PCMG/dTRKpIGmMkhoBnuUhiVbJQjySGjae5yGJpksSgTFd8pBEdE7TJQ9JJD0wKadLXpKYpUsekmi6lCujPCTR8CM/6MTv8Awb2iSSmKVLHpKYR5c8JDFLF55nkURfl3K2m4ckZumSlySavZQrozwkMUuXPCTRx6WcLnlIYpYueUhiHl1C200iiVm68DyLJObRRSSxiUii3wC/+MobEUn81f2PxggfYSCJ88+6tOR/P37SvU8S33v/w0jOw797sigH8jdwz+nu1rvude9/+LEbtNcMd9d/Pbz6+aefuWHjD3c3/+K/RBJFEiO7qAdJpOIrd9JAWNcV16R1EsvF9f/PSxL9OOE9uuQhiWG88HdekhjG83/nJYl+nKT7vCQxKa79l5ckWvhy17ChLUcSy8Xn/7wkMU0Gz/KSxCw5eUhiloy8JDFNTl6SmCaDZ3lJYpqcvCQxTQbP8pLENDl5SWKaDJ6FtluOJGbJyUMSs2SIJIokFkmeTxKTSOQnn33uBo2ZEZHA+x/p8GRCJv2wR5yy3J12wZUiiSKJIokpZJWKWSQxmcyLJCbjgs2IJJZiI5JYiokRP5HE7iV4Pheq9j6FOmQ/8hPN8iRC1iBy4fnM8y/HSJ0vM4skfv9HP3c7jz88GtN44+0r3dCxh5TIWnD2t92R888RSUwpTh/zVr/vKk/i17/+jagrmC61Ss411vhaiSexkvgWNsl7Z8/yXuluDT2JTOLIG9/CMabI944yucWe5b3iAfF1YTFtxifljW/hGGNlujBpgbFS9izvtXfv3kUZyGLwf964frjQG9O796YVy2Esp+WHKxME/DTy3jOG05fDBIG8cf1wPklk72T/Wd778ePHx3QZPHhwxXKwl3B2MxNt8upg4fxJTEyKYrysPct7xcvmT5DBI5g3rh+Oscx+GW244UYVy2FcqS+jVra75ZZbVqwLeQtJop/fvPcsmu/nSbObu5Z4plCH7Ec+ocgiiRC40VOPKTnPufTqEmJnctNIIt3KQ8ce7O5c+WAU//qb73LDJxxRIgsvIhNYsnPTviEM73a4dhVJZEP4ak62+PMrvAULFlYlZ/z4+F68I0fuWrEcdFmyZGlRn6VLT3Mbb9yzYjkTJsR12XXX3SqW0bdvv1ijf9xxx7uePXtVLOeggw4q5oeGe8iQHSqWMWDA1kUZlBWzOKsp64MPXj0rFjn9+29dsZzNNosv2j137okVy0D3KVMOjOVpxx13rkrOGWecUZQDSawGl0mTJhdlgMuIEbtULAd7wV7tXYI89+ixSUVyIGEzZswsymB27dChldvLttsOjJFEiFk1uDAhxfLDdYsttqxYTt++/WMy5sypje0OHLh9xbqAgZ8fhtZUg4tP5JEnktgiJLGzYxJ9AvPDm34REcRbf3lfkRT+7A48iQcXf1t4PIlz5ElMZcCGVTtcu4okJu3nnOe/jTbqEas4IYl54oVhJkyIe4ZGjtytYjno4pNEloOhoQ3Tyvq9335xXXbddfeKZdC4+boYScxKO3x+0EEzivhCEmn0wzBZvwcM2KYog0bpqKOOrlgGaYQkEblZaYfPN9tsi5gukMQwTJ7fIUmstqENSWKetMMwkyat3joRfEeMGFlxnrCXkCTyURGmlfXbX4KogyTuWLGM7bYLSeLsimWgZ0gS+/TZsmI5/foNiNkLHzhZGCQ9D2134MBBVckJSWJSWln/TZ06LZanam03Kx17vmLFue5vf/ubu/fee93KlSvdRx99XMIzWrntTCUPWQ99YLI8iZWSRGY840lktrSfzpU/vDma0Xzfbx6P/f/gY3+Iwr8TLKfDjOjTL/quPIkphenj2+r3Iokbl63cRRKTsRFJTMaFRlQksRQbkcRSTFYTro4dnyCLeBLt/0quIold6zkMOUAKdch+5AvrLEmk23nWvLOKxO+lV9+MSN+9D68mg7ff80C0PuKjTzxTDGc6fPjxp5En8fZfPVB8xoxn1lMkXnZu2jeEYdgO13qSxLXWWtuF59prxxdHZnHeMAy/CUdFuu666yc+32effWJf18OGDU8Mt/76G0ZykBemw3+LFy8pyqH7cN111ysJt84660Yy1ltvg5JnyNxnn32LMmgMhg8fkRgOXehuStKFblV/jNkxxxzr1l+/NL111llvlS7JuPgNCp5EFusN881v6/ZK0gUPju8BYT25JBmmSxJmhPe9mshDbpIc0yXpWY8e8cWRjz/+hEQZa6/dUUbl7CUc1zV48JBEOWYvSbrwX0gSk8KZLuutl1xGoed5xx13StGlvL1gr1ZO2EtSeqvLqFQXyt5f/J4xiXSrJuXJyijJXvr16x/rbmbtwCQZpgvXpOeHH35EMT/ka5NNeieGo5scfZJkbL553PNc3nY77KWcLqHtMrY3Kb0NNuioX5Ke8Z+VD1cW0U8KZ/ZSznb9FQuQk2W7lRDQpLDyJHaCG/mkIoskpq2TCJn7xa8fjkjhd6+/xT3+1HPRuoqjDzzGsUA26Xzw0SdujylHuwuvvN6Rln++/e77UZhzL7vGjZl+nPvN409F6yiy2DfrJn762RciiSnl7Jdjq9/XiyRSidsMP/+adwkcBnVTga211jqJcvIugQOBQQ7yfD24zzu7mQkuNEw0kKEMfidNokkKhy7gkqRL3iVwmFhDfr7xjfhOE5ae36BAEpMWYiYsZIgTDCyuXfPObl5zza9HujCJyeL613DiSrklcCDDNLZ+XLvPuwQO6zWm4ZJ3CRwaauQk4YJO/sSVpB1XCNNhL9ju2ol5yrsETpa9+B8VTHRKWoMzy17yLIEDFpQRZxIueWc3r7nmN1bZS+lONuCWdwkc3iFs12zEv+ZdAsfsJa/tllsCB2Jerq5Dr3Diiq+r3Zsu5d7pcAmcpEXnkWW2i/125hRJTCEPWY98QpFFEuk6LncynhBZV/34Nsfi10xymXn8ae7JP75Y9AraYt1JMpaed0UUjiVxzr7kKjdiv1nRjit4Jl945fXoWVZe2vm5X46tfi+SKJJojZF/FUncJpFkWEObRIbATySx9KNCJDH5gxh7EUns3q7iWrTnneJGtVCgu2R0KqMtHrm7yqAR0hFJFEn0yaHdiySKJGIL8iTm84LLk9h8ZK/a9rdT9KfaROsRr1MZbfHI9SiPeqUpkiiSaMTQv4okiiSKJG7s1N1c2jWt7uZOEKB6NfTVpNuJbLZ81GrwbNY4IokiiT45tHuRRJFEkUSRxKSxiyKJLU+BlMEsBJqV8FWjdyOSxDzjdCqduDJkyJAyY8zSSeKiRYuKMxCZCMCkAyNSdq3HxBXWd2PSgelg16yJCJMnr16omXXv+vXrVyIDWWkkMWnXCkvfv2ZNXAkXAWZSgR/f7tMmrqy9dnyG6LHHHpsoI2vwfzhxhZ1FLH3/mjUmcdmyZUV7YYccP67dZ01cCWfmDxo0KFFOJRNXsJdqJq74O/QwuzlpolN3TVw55JD44uvrr79+Ii5pE1d69Iivw3rEEUckyjB7yetJ3HzzzRPlZE1cYfKYzXA++eSTE2WYLuUmroS7BWniStd2fWfxh7LPq2mg6x2nbGba/EG9y6U70280kkhDOmfOnGhANxUoS5NY4+pfs0gi5OfMM8+MKmAmE2y0UfLg8azZzewOQSUOcYXU+DrYfRZJ3H777R0NLHLQZdNNN02Uk9bor7XWWg4CZLowozFp8kQWSRw2bJiDHCIHAgzhs3z41zSSyPZuLNcBJpzjxo1LlJFFEnfYYYciLix1hFxfB7tPI4lgwG4i6IG9jB07NlFGVkO77bbbFnWB3K277rqJcrJIIrOIwRZdIOSWB/+aRRLZhs/sBdJZjjyn2Qvk2bcXSHA19jJixIji8jULFy5M1CWLJKILcc12me3v42H3WbObR44cWbTdefPmRdtSWlz/mkYSwR4yZmU0atSoRF3MXsqRRD467T0ib0kfbOiURRKPP/74oi7MavfzYfemSzmSyHtkumAvG2ywQaIcs90k72Al/8mTWCVB6s6GvVZpVZnVlo9WK3ybQU4jkkQI3a677uogNOxPbJWlf80iiTxnDcA99tjD9enTJ1EG8tJIIs/xPOy+++5u5513LqtLFkmkkscbhC7s8ZrUWJsuNHDo7ufV7lkGZ7fddotwoeG1//1rFklEV9Nlq622KqtLGkkkvQ033DAqo+HDh7vyuqQvgUM+IdA01ODi58O/TyOJhAMX7CWtjLIaWh+XcpMQSMsa2nJlCKGjnHfaaadEzx0yOuyl/BI4lCEkBLvDQ1UurTSSSDroYrbLRwb/hWeWvYAbuth7lKQL/1FGnEnPSdPKCHspr0v6EjjYi9luWhmlkUR04Z3GXiijcvWL2Us5kkgZQubBhdnbIa72O4sk8pGGDPZzR6bF86+mSzmSSBkOHTo0KutyH6DIM9uthBAmhRVJrJICNQMhCHWsMqstHy3EqZV/NyJJ9CvIcvc0GFRg5dZJLBcv/D+LJIbhk353NPrl10lMipP0X1ajnxQn/C+r0Q/Dl/udRRLLxfP/z/Ik+mHT7rNIYlpce5bV0Fq4rKs1tOXIUFZ8nmeRxDwyCNMo9pKHJObJU5YnMY8MwmSRxDxyzF7KkcQ8MgiTRRLzyDFdypHEPDIIY7abRPwq+U8ksUoKZESCbfOmzFnoho0/3A3aa4YbOXG2O+KU5e7h3z5ZXOPQwlZ7Zd1EW0sxSQZrJ9529/2Z6VWZ1ZaPloRpq/4nklh+TGLeylcksdRDBXYiicm4iCQm4yKSmIyLSGLXjjGstG2vmgCREPsoQ+B+8vN7HNvovfXun9wzz78c/X/Z1Tc69l+uVKGk8Fkk8b8e+q174+33MtOqOrMtHjEJ81b9TyRRJDGJDMuTmNxgmzdGnsTV+MiTuBqL8F2SJ7GxCF4t2vGq6Q+JHzhnoVt87uWZ5KyzikYk8c5fdzqdqjPb4hE7Wz7NFL+eJJGu0WpPJjnQRcK+ydXKIB6VOHLwelUrh3FNbMvHPq/VyjBd6Cqji6taOWz1Vgtc2AYPotgZXEwXhgRUmx/iWXdzZ2R0lNHGjn1wOyOH/bk77KUzttsx9q7ztst2hRvVpIzYUrJ6XL5enA3fCPZi3c3V52fNaFtLyhkb7oycDtuljKq3F7qZ0aVWtouszpzqbq6SAEEMZs87O+pqtv2Vy5EFPIzzz7o02nt5p30Pc1OPXuTuffjxiPThbaS7+Ee33u0OPfF0N3jMTLfXtOOiLfpMHiTxup/dGe3nPHTswW7kpCPdJT/4cZE0+t3Nb7/3vjt1+SVu+IQjHGlNP3aJe/CxP0Rhq8xqy0cznNvhGieJz3aq8uhMxaO4nau4hZ/wkw3IBrrDBkQSq6RAEAr2Ux6y90w35qDj3XmXXet+df+j7oOPPi6SNyMdM09Y5jhfef0t9+HHn7rv/+jnbrvR093vn34uCss9ezY/8OgT7r33P3TX3nhHRBxXPvhY9BySOG7m3Ej++x9+7K5Z9dz2dvZJ4pz557gj55/jXn/rXffxJ5+56276RUQ8X3rtTVdlVls+mpVTO1x9kvjMM38USezkV3Z3VNJKQ2RANiAbqJcNnHPOCve3v/3N3XvvvW7lypXuowSO08ptZ9UEyEB5/uXX3fKLf+D2PeTEiNjhCZx72oXRGEXCQOQgcY88/nSMPEIsz77kqiJJPPeya2LPIYXLLryySBIv/M4Pi8/xPg7cc7q79Zf3Rf8ZSXz2xVejtJ5/6bViWHSYNOvUyPNYdWZbPKKVZTtcfZL42WefubFjx7kePTYRWRRZlA3IBmQDsoGYDQwYsI27//4HRBKr4UBJhOKNt9511998lxt94DHRidfwzpUPRsTt3T99ECNus+ad5Y5eeG70H57EG29fGXtOV/bRC1dE/+FJ/Ontv4o95z8mzKCHkcRf3vub6J7f4Tn/7EvlSSxT0Ell2ar/+STxz3/+s3vggQfcLbfc4m666SadwkA2IBuQDcgGijZw1113uTfffFMksQx3SP07jUT87slnI5JGd7SRRLqR/ThHnLzcHbPovOg/SGJIAiGReCSJAyEMl8BJIol33/dIlO6b77znPv3si9iJ9zE1Q2380C+XVr8PSeJjjz3m7DzrrLPd4MFDGubcZ5/x7sEHHyrqZ3rqurrMhIWwkA3IBrrSBkQSqyRHaWTi8aeei8gaayU+/dzL0f1vHn+qSBIhbIxBtC5mSKLfnYzsfQ4+0Z1z6dUVkUS6mfEg3vvw74pp+XpWmdWWj+Zj1Or3aSRx0qTJ0YxdZu02wrnJJr2jcTBdWQFKthpY2YBsQDZQ3gZEEqukQMxYnjx7fkT0HnviGcfEkBdeed394tcPuwmHnRw9++zzLyKydthJZ7qDT1jmXn3jnWhiC2sosvA2BBJSAklkRjPjFj/57PPIqwjZwyPJ87yeRMIycWX/I+ZF6zXiTWQW9Zjpx0Wyqsxqy0drdWLo5y+NJE6cWJ4k9umzlTvooBnumGOOc8cee5ybNWu2GzFipGOJkLyEkrCjRu0ZxT3++BPc0Ucf46ZPP8htuWXfRBk9e/YSSfQ8vWrIyjdkwkbYyAa6xgbeeustdTdXw4JoeB/+3ZPRsjS7H3CUGzRmhtth3CFu/CEnuW9970fOH4PITGO6jnfa51C38/jD3czjT4tNZIEkfu+GW92hJ57RMVt6+nHuhlvuKnoDKyGJb7/7vpu3/OKOHWDGzIgm1LB8DvpWk892iOOTqFa/90niP//5T/f73/++2J2bRhKfffY5949//MP993//d3QSlzGNS5aclkjwkojj7Nmz3RdffOH+9a9/RTK4IvOpp55yffv2L5Ejktg1lb4aU+EqG5AN5LGB3/72t+7TTz8VSayGCNWSTEAS82yr19k0q8lnO8TpLK7NFN8nic4595e//MXxpfjGG2+4mTMPLi6SaztwcJ0790T3wQcfuKlTp7n+/QdEhG7IkKHuxz/+cUTwIHN++KT7jTba2L366mvu+utvcEOH7uC22qqf23rrbdyECfu7jz/+2B1yyKElMjbbbAv33HPPRbqh3+OPP+4uuOACd9ttt7lXXnml+D/PdAoD2YBsQDZQWxv48MMPow96LYFTBROqJTEQSayiAGoYpZZl2eiyQpIIUbSD7t+NN+5Zcl5zzTXuiSf+EBE7//n48fs5KpHNN+9TEscPx32/fgMiD+LBBx9aEvaBBx50F198acn/EMnPP//c1HM333xztFwPpHSnnYa5n/zkp8VnuhECQkAICIGuQUAksQrCUUsyIJJYRQHUMEoty7LRZVVDEr/3ve+7P/3pfXfddT903F922eXRecstt7q3334nF0nceuttI5J4zz33uB/84Cp3+eVXFOW8++67bvnyszJJIl7Pu+76pVu8eEk0thGyuO22A93s2Ue6a6+9zr344ktdU0NKqhAQAkKgjREQSayCcDQ6GUjSr4pstkWUJKxa9b9qSOJ+++0fdTf/9a9/dX//+99j59133+2YhRx6DpN+33vvfVHXcijjs88+d/vtN7FERuhJ9OtoxkY+88wz7rDDDo+lf9NNN/vBdC8EhIAQEAKdREAksQoq1IwkoopstkWUZizLanWuhiQmEb7u+K8cSXz//ffdj370Y3fyyae4HXfc2eFR3G677aPfjEnSIQSEgBAQArVDQCSxCipUbSNdz3hVZLMtotSzTLo77UpJIlv2zZlzlPve936QeB555JxonGAWaRw4cFDUvZwk55vfvNjRHR3KCEni22+/7WbMmOmY0AIxZFmevfce5+6++55olnS1VSIztfFMNsLRKHo0Aha+Djar3v+vHvfoYbP865F+WpqynTR0GuOZrejQKGWVVw+RxCqoUHc37rVIr4pstkWUWmDbLDIqJYlMSrnyyu+6++67v3gy49iOG2/8Way7NyR69psua18G94wx5GDyy2677ZFJEh966GE3dOiO7sQTT3Kky2xpKt1qjw8++NCde+557vDDZ7mzzz7bvf/+B9WKivLCeM0f/vD6qmS89NJL7lvfutjNm3dqpNNrr71WsRywwMvKbHUItT/pp1JhLHvxzjvvVBqtGJ70zzvvfMcuPpwXXnhR1fp89NFH7oUXXohmumMrlR7MzAdP//zTn/5UqRj34YcfuTPOONMdcshhbsWKc91f/vLXimUQgWWgXn/99ehkGalKDggqixuzIoAdNOCvvvpqhBFy+Z11gOMFF1zk7rjjjlhQ9PnOd650P/1p9qQw0iG9Tz75pCiDISnohz2/8cab0dCU4sOEG/Jz2223uwsuuDBaaoUg2C3v0cUXX+wuu+yKaImuhKixv+hBoEweffTR2P8PP/ywu+SSS6PlumIPEn6gy89//nN38cWXFD8a3333vUiu2fH5518QjcNOiF78C13ID8uL2cG7yRjuY4893jF5j21Qsw7sFlk+kfvss88izLFl7ssdDOnh/X355ZejejKsC7AfnvFe5XkXRBKroEKQgunHLnHzz7q0uJ5hSBR4Hu6h7P+2tRT9cNuOmhatpTjjuKXRWonszhLKrfZ3FdlsiyjV4tmM8SoliUbyuEIY8Sp++eWX0UQWunv953nu8UzusMOOjj1BqcgefPBBt8MOOyXKCT2J5SrEav6nkhw0aHDklezff+sofTaz9xu8vHKfeuppN2zYiEjG4MFD80YrhkMXPKPgiw69e2/m9thjdESei4Fy3NAo/OY3v3GPPPJI8VpNfmiUnnjiCfeHP/wh1kDlUKEYhElO2AMLpbMGJvl67bXXi8/z3kBmaOhp/FmzDQJS6cHYVeLbibzf/e53Dg9y3gPyM2bM2Mhett9+UFRGeLUrkUFaNOyUkenCfVpj7+sHaaBs0f/ZZ5+NHpH+k08+WZTJM8hJuY8nyhYcBw0aEpUPH0h2vPjii5HdUW5jxuxtf5dckUG5sM4e6UE0OPjoI1/oyDPyRlqQr6QDGRBu6gQmoNnEMz4oevXa1G2xxZYR3uhzzz2/ShIR5fOXv7w7si/CnXnmWcVwEJspUw50w4ePyPwApAxYhgtdsFfD74orrohw4j9O9Lz//geKafg34AIR7Nu3XxRn0aLFxcdMuCNPyGBozPLly4vPwhvqRcoXbDn5zQHRM3w77Oex4od2KAPcwZ9yoDwIb0QRO0KuyeI+a5iOSGIVVAiCkIckHrf4fPfcS68lnkYAkXP8kvPdi6+8Ee3a8ugTz7hLr/pptPj2kfPPifZgrgUhqSKbbRGlFtg2i4xqSeK4cftGu5/gBfnud78X7bZCpVzJSfcwDQCerqeffjraeYWu43IykkgiFfEzz/zR/fGPz0YVOZXXnXfeGXlE8H7lPW6//Y7IA8pM7bPPXhHpQANx88235BVRDHf44Ue47bcf7IYP38VVQxLJA54FPDCPcRsAACAASURBVKV4Zs45Z0WkG5V8JQeNMV43GjxrCJBX6UEZ07Dgaaj2MJL461//V+QBRA9rePPKJDyNJQ0eOpE/yr/SA3z5sOHE0wquWY1imAZEE3tcuvS0SJdTTpkX2QzrdeY9Omz3mWi9T8oIeyVvkKysfPEc0g55p3E3kkjDT354p/AmGrEo5x0CR4jOsGHDI0Lkk0R2QxoyZIfIltNIIniyZikndmIkkfIiXfIFqQZj9AHzpAPvHESQDyyfJL733p+iVQzI589+dlP0oUHvQRJG2DkfVXvuuVdUHj5JxJsNGT7yyKMybe+ii74ZpTNq1OhEkkjvCSflXY70QpKxEdZ+3XTTzZ1PEo84YpbjY5R6j49CI35JuPCxR94h/+BnYV944cXof2yHcuRD5/nnn08SEdUD1AWUAz0mRgTtnSKuyeAZdmXpJAmkzO+99163cuVK99FHH9fMcdUM7WbVJIjM5SGJaZ5GA6icHPaAHjxmpvvOdTfVpFCqzmyLR7RyaIdrpSQRD9c3v/kt949/dHhd6Oa4/fbbi+fChYsiL1g5omf/001M9zAHlenKlb8uyvjhD38YfV1bWLuGJJFKjTGIPIfQsfg3X+X2e//9J6VWdH7lx5I5xHvssd9GMqjU+X355Zf7wXLd//nPf4nSnTXryKpIop8IDeFFF30rwpSGopqDhoCG2hqGSmW89957UVwamWoPI4nXXHNtRCSq8WjSGOMV44R8UP7krdoDbGno8a5UKufll1+JvFXHHHNsRH5YdglywvJNeQ+8fhA9dhgifX5DtCCgefQBD+KAh5FEcKGcIcDIhTDyO+3jwAgqqxL4JBF8OcePn5DqSSS/EAoIiJHcJAwgO+hSjiRCPOjOPfvsc2Ik0WTR9f3ww7+JPHMLFiy0v0uub775VpRf3l+fJP7yl7+M3ukHHkj2/IWCIG/okuRJpL7CbrLeCUg75QT59Uki9R87Wt1yyy3uj3/8Y1kPIDphp8gw/Iy8Ub6cdkA4IXtZxyefrK4LzPMMKSS/lA82gxzKs9whklgFCeoOkkgai1Zc5sbOOEEksYoyyhulHcih5bFSkkgXyTnnnBMtZM1i1uGJZwUiSQWddo4cuZu74YYbSuIj7yc/+Ulil3NIEhk/RRrsHQ1xte6oSy+91F166bcjPfAQ5jmMJDKOkMZy2rTpkWzkVHvUgiRC0NgTm7OaMZI0rJAOGm+8PBCCSg8ICA0ijQiekyQPTpZMZp+bPfTsuUm0xFGlRJHGET1oyKwxq6a72XSFSCGnEu+fxaXRnjz5gMhW8AjxkcL+45VgQ1g8P+QJDxhlTRnR2OchiehSjiRCXviogEQgP40kIgdCEJJEy2sekmgyypFE8mpeTwhG2pFEEl9//Y1okhoeeuwIWWkHZJ1wPknko5GhLL/73ePRuMK0+PYsJInf//73i3ZMme+999hMbJHlk0TsmLj2PoD7+eefb0mWvYYkkQ907AXSzcl9Fkk0m7O6wCeJeICxFWxGJPHPZTlWXh5REi4vSTzilOXu/kd+X3I+8/zLRaXKeRJJ4ye33RONa/zgo0+K4a3Br/Rakgn9ESFQKY7NHL5SkmgVWz2uIUmkmxtCyqQXGh4mwwwcuH001oZB8ngAGHSe5zCSCLEjb9/+9rejaz1JIg03E1fwUFW7mwwkEW8VlT4egnJenHIY0YgQj4kHkClIFeSq0oOuRgj4008/E02EoGG8+uprKhJDGUN8GCtHviCv6IaO1RwQJ+JXSlZJi4YUe6Q7cv78BdFEq969N624S558UDZGfLnm9SSiRzmSSHkhC+JZb5II4YUMQ0yyPG/kKYkkMtSBblvGL/ORceWVV6YWeUgSKS/e6yVLlroVKzqGk4BNFhkPSeLHH38STaKhF+T73/+B69GjZzSRL1WZgCTyQYAuJ588L7JhyCvd61lHSBLpgYEs+7aDJzrtoOsem7ehI0YSIffIoksbsiiSWEeSOHTsIW701GNKznMuvbpI+tJI4h2/ejAiiW++814xfLUkRZwwGYFq8WzGeJ0liTvvPDzqRlmy5DR30kknRcvQVEog6dqdPXuOQwbnhAn7RZVoKCckiXgi+SLHo8gXMh7IK674TnT/yiuvRgPD884uNpJIGiy/Q4NG+vUiiXiqmDmL55YZ11mNWVrDQFwIJwSr3JilcvEZ20YjRONDQ8I9jUm5MW7l5Pj/U1aQK7poKzkgiRAe8x5CeNEHolXpgQ6QZ/JVDbY//emNke3dd999UdJMluCDpRoyT74gDpAA8kcXOPrlOcqRRMqa/EHo600SKS/KiTGSeY4kkgge2DDkF0J16KGHlR0LSBohSeQd4n3eccedHMtvcc+4xazyCkmirz/v6DbbbBd5kP3/k+59TyL2Svp85HIwBAPbQV7aEZJEwoIJ7wGTfh599LHisIMkOdgYBJHubbN5I4n8z8m4TQikSGIdSWJnxiRCQq698Q7Htn2fff6FSGIyx+v0v81I9qrVuRqSiOeErfTwBuEdoqLCU0Qlt2zZ6VEFSCWYdjK7lT2aGRzPbEPrbuNLl4bAxhb6MkKS+Ic/POl22WVXx2SI8IDQQGBtEH34PPx9552/iPJDengbyB8E9NZbbw2D5v5dbXczFTckhEk84PPss89FpIz/KzlojGxQO1cagbx4WDp0ceNd4DSSCPmolCTi7b3++huiSUYPPfRQNHP7tNOWWTK5rtgX4++YPY4XBY8iZKhSXEgMPCAulebDFLWJTjfc8KPIE8nHBPaSd3iDyTHyQ37wbKITDXXeg7z7YxJt4gpyeCcpv9/85pHMfPIO17q7mbyxfSd2h47YI4Q4iwCHJBHvM2MR8QYyFpDu/VmzZqeSqpAkMtyB8cucNpObyTi33XZbKtQhSWQN1muvvTaaKMcMZcqcCTdZh08SCctKCgcffIjjY3b69IOibvAsGSFJhOiBJ7YDAQfncvbM2FLeX94XvKHEIz4nHnnshfiff/5F9K7zIZhGWomviSsVUg0a6TQPYJ7n1tCnyTlm0Xlu6tGLOk0QSavCLLZNcCuHdrhWShJZwoTuMPOc4IF75JFHo1mQeFWoRGlsfHKXdH/CCSdEkyn22mtMRPTo8mPQ/J57jnF///s/ooHyYbyQJNLYQC6TSALjflhCI6tBsooZ0mBrM+JpoFJn2RnG4VV7VEsS77jjTrfZZh0TZ7beehu30047uxEjdom+7ivRhXLCI+qfebr7wjSsMWEMFI1JNZ47Ph5oUFkOBPK76667V7zuImVpjSENHo2aeRVDnbN+403Bi5jXPkJ5eG/4COnXb4Dbffc9InvBfmxZkTB8ud80/HhtjIDj6QXvvIeRRLyPHPxmTCPlhEzKHnKVJTONJE6aNDlz4gppI4M0Ie8cvDukb7qAN2fWO+WTRMpn6tRpbqut+ka9FLb6AQQt7QhJInIgU5ysFkDdwjqXWeV/wQUXxCau4N3vsOP+0TtKXWFdt2n6UJ8sW3ZGMch5510Q1ZPm1USnrCMkidR94Gm2gw0klbN5kykHysPKwT5GII08433CFrmSVtohklgFHYJQpJG7PM+NlJST88CjT7jtRk1zP/n5PSKJVZRR3ihWDu1wrZQk0hVLpUg3LpUlXkUqdSrdn//8tmidQ7pIQ4IX/sZbRyW3yy4joy97SCfLbeBhpOIePXrPEhkhSUyrxKp5RiNHt9RBB81wLJJLg9KZA+8kS3ZUelDZswc16+7ZyU42la4rCGGgQabCZ/xVNeTO1x0ChHcqq2H149g9Xgm8GODLYuzvvJN/FrDJsCv5gUxBBJIaRQuXdsWzUs1YRF8mXXzMWJ08eUo0NKCasZpgincX7znyKsWW8ODhk1PKHfKMhwjvJL/zHFdccaVjBnB4UEfwbmcd6IJ92NJT2Bu2jB7+mYUTS1oxEc3CsZc7vQXXXHNNtP0mQyDyHCxG/8QTfygJygfCNddcV/J/0h+Mw0UXKxeukCgWx2aRcctrUlz/P3pc+GizA/tjUW9mx9Nrkea1szjUR+BrB/hgO5DyNNtBNuH8MuDet3/sBzmE8/+3tMKrSGJeNuGFMxKYtA7iS6+9GZE6yF/Sc1s38f0PO9YbIpytk8haib978ll32dU3OsYznrjsopoQRPT11Neth0A7kEPLY6UkkbEz7EJApcQOGowlZEFtZjXjjbvqqqtLyF1IEPlNNzGV3q9+tdKdcMJch9eN2aHstsAXLoQxjNfVJNEqQmsQ7LeuQqAcAtiKLUlSLoz+FwKthoBIokcY8t4aSfR3ULH7cTPnFkmi/Zd0/dkdKxPD7TDuEHfAkQvcdTf9wtmC29bId+aaN2/tFq4zmDZb3EpJIsSNMUEsMs1XLR4qPBl0A/K1z+LRIbkr95ulaxirhAxOvB9PPvlUNOsPL2UYr7tIYqtV6MqPEBACQqCWCIgkVsGKmo0coG8V2WyLKM1YltXqXA1JhLyx3Md22w10gwYNcmxLts02264aR9ejhNyFZM9+s3wEY42QwYk8xqzxv4Xxr0kkkS5ryGXSmXf8HV2WSfHtv7xdmnTtWpzwip55jo6uwrfKyqFLPM+BpzfUwX6XG9weyqUhoGvP4oVXnuc5GL8XxrXf6JnnIN8WJ7ziec7rzaOLOoxvv/PaC913Fifpmic/hEkro7y6ZNlu3q7mNF0ovzwHZdRZe8Ezm2YveXGhlyKpbPivVvaSp1sW3NJ0Aa+8PRdpuOTVJct289Z1IolVUKFqG+l6xqsim20RpZ5l0t1pV0sSffLWXfchSWRMT1raTKBhPBGVdLmDcTgs7J0mhwkKzDAud9A4MruVrvg0OYyRSquEGb/FhI40GYzVtIkBSfqQV7YWtB1jkmTxDH3TdCEN280mSQb/7bPP+OKuOUm60CCRjk02SJKz+eZbREuBpBHOl1562Y0e3bHNWpIM/mMfZbYpK3fQELMFZJKH2mSyHiVLKKURccaVMYnI4iRdGUqRVkbIZ0xbmi48Q5c0kscEFSY1Jelg/4FL2tIzjBu0vZEtTnjFXr773e+mkhlw2X33Uam6sI6pTZZIKqe//vVv0ftKOYQ62G+28mTJmDRcGK+6xx5Zukx0TMQqd/BuMJkk7Z3Grhlek2a79IxQf5j+SVeW4kkrI+xl+fKzUmVQ12WNbWTGsi1GnqQH/7HdKkQ66xBJrIIKdXfjXov0qshmW0SpBbbNIqMakkhFffDBByee2267XWpl5ldOVI5JcvbZZ9/EBtQnieecc260yDSzBk866RR38snxk71dWeqCSTSQs6QD7wnL76DTlClTS2Qgk5mVPKeiZ4/SpOPb374s0gVPKOmGuvAb3dGFfaGTDryQI0fu6jbZpFc0cSZJBhNq0GXw4CFld3lgz1kaNnaWSJLBfywvhC7M1Ewiimw5t+OOO0eLFs+ZMydRDuNQ0YVGBxIXHjTiyKfxYnxpOV3YnowwF154YSIJYSA9a9GRFvvdJsk55JBDozxD9tnWLTwgiIsXL43yzGzkJBlz52Ivg6NyhJwlHTSeQ4d2jJVl2ZIkOVOmHBjpCtm3iRehLCbvgD/r/Z100sklcrAh7MVIaxif33jUsEmwY3JTOV0gmxDJJFyQc+6550bY7bTTsEQZyMW7jy7MyE3yekHOrRyxiyRdWNeQMuSdTNr9hQ8KJrNhu+QrSQb/MRsY7PhATNIF4sxwGNI6+uhjEuWw9Ay4sHpBEi7YLuUCtth3ki6UEbqAC+Qs6WB1BZu9jI0myWHSE7qyqgMYJB2LFi2JdEFWkgzGdGMvkHm2NE068ELyHoLvjBkHJ8phUW9wwXazPJMiiVVQoWYhBb6eVWSzLaL4GLX6faUkkQaHr+NyB5X0zjsPiyo+Kr+kk8qXiS7lDr6czzxzeVSh+fGpCJnpaB4hKvk0bwCeORZtpuJjko3vUXzuuecjD+Lmm/eJnpWroPmf9CCjNKT+DEUqSl8XZk2WO9ihgYaA/Jx7bnwLLjAbNmx41ODgvSjnyerwhl0YeebI+/PPv1BMDo8Q3ika0OHDd4mWQSk+DG4gdSzbQqMCqfS9MqxJh9eOXS3IWzlc0IX0yA/eKt9zRtcvcZGPnjSW5Q7SY8tBlvzB6+h7Zcgf60SSp3JEH7ngBW7YFd4sZsfagZ4rVnQQIZZbSvNk4WnBC4gc0vPLgbUZIS/YQZpHGP3x+uBl4gMEG7SDZ7YSANu5pS2dQjyW1MF2IUQ+mUdPxv6iCzsKletqp1xJj3LAA80MajsgsDyDNOB18/W0MHaFqPMBgxw+iHxy9vvfPxGVH5hdcsklZe0FWeYN23ff8bGZ+tguZQThoozStklktjLvIXlnMWo/77x/u+22e1R+zDwud1APnH56x5JMeMPJnx3Y+xlnLI9k4FVj3dZyB0vP8DFlZN63F3BBT5YMQxcfM18e+7wvXrwksnF0998j7AXizDu2774THHtSlzvMdrEX0vPfafTkQwtdLr/8itgzXx5YsnYp5Tx27LhEMm/h0U3rJLYFHVImkxBodWLo568SkohHIa1hswqE5RTSiOLcuSeWrahMBo3it771raiRNKJIJYfXkAaJRjitMTE5jPkZNmxEFAdSw2Ff1cg9++yzc+kC6SH8kCFDi1vbQRbQha3CIIFZB11KEF0aZjxbHMwIhyDyHw2+TwaS5FH5s3c2unQsR/RKFIwle5ABycmzLAdeMby+HbosidKFPJI/Ghr2qM2jC6QBXfBOQkLQjzURkUsDmmcsJl4xGlTSxcvGAWkBK2SHRDYJF3RFF9KlvCljGuZTTpkX/ccWjf7yIUky+A9csF3K9bLLLouCUbZ4/dAFG8rCheeQVsKjiy1Pw6LL6Ie95OnSg7yAgREwlMFe8AgZGShHPix/kB48UeiCV4z3gcN0gSBmeY0Iz3tvuhCXdCE0eAbRjyWxsnDBNvj4QxfshfeB/+bPXxjlJ48HC10YVwpJBktbnobF3vngQzZrt+bRhbIER94ZxumiC5PpkAtWpJN1YFN4UfmQYZkbDpaXwWONLlnDOgiPrrYJAUQRAsaBN7PDXnZyb7+dvm4h4SHJpIsuV199dSSDPDBmHF3YRjDLXiCK8+bNi8LzUVRuzLBIYhJz0H9tg4BPolr9Pi9JZDsrdtqwg69/Gjoac04qS797jQV8IQlUTnZS4fkeRCpHSATkgoqVRofGncqagy9+a8yQQYXOlYbNJ4ikm6YLlSfeMeJDMumWZCwc3kXzlJEmaZsuXK3hQBfCQRRpiCA0VODogocG3e1AF7DwcWFNNDtY69A8isigWxhPBOTIPBFJuqCbNXxU9B2eus0ibxP5oKGmsQN3OygjXxcw8ssIEoK3Cs8BnhxwASO6fs1DY2VE2VgZUWbW2PAcgtqBxV5RPpBHY4e31o4kXNDPDvSGnIEF+cHTaSTAwpBWWEboYrhgL+ZRBAvr7sY7BQ52ZOmCnUNYSH/hwkWRp8y8dpYWZYR9+PaCLma7NKLogocUokj3JBjhofFtF9tAN7DFZsIyAkOwIC5rkkKusEHfg2i6UEbYOjr5uPDcPIp4ZumyJG/ck6Yd6EJXsNkuuvhlhI6sa8oHGmUOiYCQQIR8e6GMzF7QBaJh9sKVciE/jHll2AgyGHpCWDuSdPF7AlgVgfoFLPg4QC9k+h5Es5dQFytD8nb66WdENk/9cOqpC6L3aOzYfWIe5yxd2PYQ2yUfkD084336bOm+852OLULJk19G4Ajp9ssIXagbkYHXli5k8jN+/H6xDwo+ONLKiF2oiM97vGjRoujjxryZZpvUZawmYbiEunR4FE+P3kU83knjJUUS24YOKaNJCLQ6MfTzl4ck4kHwG1kqN+tqWLlypbPz17/+dezrm4rEH1h/zDHHFRsLKiwaY4vrX2kAjLzRqOBJMoIIAfEbWcbysdOLH5979KOxsgMPCkSXipfTH49HGngiQhn89onxv/7V0XVpMvA2+N3dNIZJuvCfPyuTOOQDOeQLb4gdabjQpWQVPTpDoE0XiAheJjsgMEn5CXGhsTAvGbr4ExQoA7qqkuSwM4NfRhAF0wVPme+dIo0ke8H20NMOGmP/w4Jyt4O02CkiSRdwMV0ID4Eye8GD6HcxU0ZJuvAfdm0HXXt4iCxPkHgjF1xJM0kXn6RTRtbFihwIHsTLjnLv0f333x/Dj8bc7AU5kCI70IX3pZwu6MCB3eCxs/xA4j/55FMTE5EG3t9QTpLtQjqQA9G87rrVY+AgF+XsJbRdyJnpAqnxP14oL6uXfH3CMmLHFMaRmhw8iHZgD5A3P77d80777xHDP0wG4/58Oyhnu+jiv9PUj/7yX/6YSdIqZ7sMNbEy4kp3r+kSejPL6YK9+L0HDLdg3LjJYfF6O0gjSRfKng8M0wX8jjvu+EgGerALln+IJCYxB/3XNgj4JKrV760ypgIKDwZ+86XOgtd2UBlRKVmFG17DCovxi5MmHRB5mKwComFjbF8Y1/9NY2uNsnmImCzgj2+jkjb9/bh2HzZwfMEzaB0SYaSCCpy0LE7SFQJpjQqVJYQIOf6M53Jk1eTRqPhdNxBFBrPjETQPIvnN0oVGxXQBT3SZNm16bJwoZPGBBx4omydwQV878FYddNDMqHufyt+OrDKiUbEDPCG706YdFMMFsphmL+hp3bHIAmu2gWOGth3gQr4Ny/AaNnDYC97IQw89PDb2DfzT7AVdfHLL+Lfp02dE47jMFslnuY8b08u3XfCkjJm44X/clCOrJgN78csIr+/MmYdEBNG8dthBli6UoelOeIg3Ze17EHmP0sqIZz4ukBAmUV1xxRXFrlFsMct2/TTRhTJCjj8mEF2wT8MhvD744IOOjwk7Hn/8927ixMnR+ET7D13KffQhD3thBrQdEFTI/OGHH+HeeGM1iecjM81e0MW33cce+230Ll511VUxslXug8J04T2yMsKjiC7sTW1DA9CTj6k0XcJ6F48iE5oYNmJ1HdckguhjTB1pumBnEydOioii/8GNPiKJbUOHlNEkBFqdGPr5s4qnHEnEE0OFY4ffKP3iF79wt956q7vtttvc7bffXqzY2bbKCKHF869U8pYuFdTNN9/sjj76aLfbbru5X/3qV0U5vpfJj2/3fqPUt29fxz6r6HHnnXcWZeBNMFJl8fxrSDTJz9133x3lyypPGpWwkvRlUKniWbPw4IIe4HLXXXcV/we7NFxIw2SAA7iwTRpX+x/cfI+hrwf3yAd/C3/HHXdEepAv9LL/0SXtgBRYWHT56U9/GsXnav+Di99gJ8nzGyXKhd160AW9TA5llHbQEJOWhf/Zz34W4crVtxfKMu3wG2uwQJcke7FGMklWSDRvueWWqIzIk+nH1f8gCOVgj7WwF95ZSxMcTBeu9j9k0ycyoS7k9aGHHiqGBw9OsPFtF5Kedvi2e88997gbb7yxWEamC7ZrH0TlZLF1o4W3dyi0Xcox7cB2fXvxdfHtJe09Qn5ou7zP4OLXL4RJe6fxSvq6UDbgGtqL/0EQ5g178T20pG/YUD8YXhDjNF3w0FpY3158XbAXHxdbxSCs/0QSk5iD/msbBHwS1er3RtbykES+RKlEqGionNgUnnFEnNz7FXAaecCLZpUVZIGvV2Yb7rfffrEKmP/TDr7kkUOl27t3b3fTTTdFuuARgujxjHu/KyuUx3gb04UGAM8L+eHr3m9s0ybs4LkyXUgXTwhdhMjhfyNn3KcREDwqpguNADogAxz4bc98j1SYH/LqN0qkiQxOyKM1KpRjGnkmbUuPOHiBkIEHxmTw3PfIhLpACEwXcCF90wViApmwNPzxZqEcsLRwlLXpgo6GbZYuNJ7moSLOI488UtSF/812sRd/HF6oC3ZgukAaKBvyhN34jW1aGZFX0kEO+aGMyCMn5WL4gpF5gUI9+A32pgv24evi24s/VCSUA4G0OoDyIE2/jNCPNNA37fA9veiPbsihrEwGctJwwXYtP9iLX0ZgZPaCvuZNTdLJ94D7umAvvi7gXe7g3TBcsBc+ZAwXsyN0xYOXZrv+O429mO2G9uIPWwl14j0yTy8E0d4j9Of9srqO/9PsBfswfH17oezQzZ75wzNEEv9csg1y2xAhZbQ8Aq1ODP38WUWYhyRSGVpFQuVrhIrKk3FRVlkRJu3L2CorGmYqOeJDEidOnBhr9LO+jE13yF2fPn0ijxuyqPSswaZC97+MwwrYb2hpDKwh4Op7DNC53EHjZpU46fq4IMfIZhoxg8T4jVuoC5gakaGxK3f4HkDKCE+H5Yk8+I1kmlfHH+dGuiaDq30ooFOaRxLczV5o4CkXk4N8yw9h0srIvNfIAGeTwRWcLA3spdxBo2/haCB9Gehins0se/HJM1j6cnxilkaesRfDEG8ojb3J4d7shbyWa/SxF5+YhfZC2Vt+/e7cEB/eUyPyYACGpgt58N+BtA8c39MV2ou9p+iDjZc70MV0RgY9BaYL3kPfXsCw3GFeWuzF/0hClm//abrwoWC6gK1fRhBGq+uwlzRPrfV2oIvVdZYnq6NIJ62M0MUwtA9hk4ENUP8hAyLvDxcJ8TFdCIt9mAyu/nvkE3mRRJHE8kypjZ/4JKrV763yyUMSaWitcaNBIa5VNP4XLZVQWiXO7DzCcP7kJz+JPGbmSaTRtGd8dacdNACEpZLs1atXkSRSAVpjQMWZpovv1bz22muLRIYGhLFFpotfcYY6QZ5NFxpVv1GhYbPGgDBpDa3vdQAXI1UQkxtuuKGoS9JsQ9OJvFqjT9qcVkY0aEZkuM/rSYS0mGcIHf3u77TGjQbLdAEXn+BhOz6RSfPGoD/lQF7oOjRdKCPfXtJ0AR+fyGPHhgvlhWzSwF7yehKxF8oGOTTA1113Xa4yIq+kQ3p4cCAQvi5WRpV4En/0ox8VP07AhUWVzXbzehJDezH9DBezsaSrT1ixD/OYcfXLKM12fWKGvfgEDx3sncZ20jyJRuTJD6QKuwBfkb+yvwAAIABJREFUcPFtl//KHX5dR/3i6+ITKmwq7WMLcmnlgH3woUa6kHH/nc7rSUR/s11ko5sR+SxPImXh6+Lbrm8v8iSWEkOfB7QxNVLWDQHfIFr9vhKSSIVqX6OQRHZruOaaa9z111/vzj///GKjz5e2Pzbmyy//HPOIQGSMbF555ZXum9/8pjvssMPc0KFDi8QMcuHPMoRchY23NUzoss4667jTTjst0mXFihXFyhAPh0+GaKB9oob3wjD43ve+Fy0IzLi7Sy+91KEblSq6+GPMmOXskxrkmeeNBp91DKl0IRGsw4h+yAk9o8jwcSK/Von/4Ac/iHSALF588cVFXcDN91yQNx8X5Nm4LhrJ8847L2qMKCdwMQJCOfoHZeLjxAQlI3iQZdasRJeLLrooVkb+sALih4TcxgGSLrqACdgwftQafbyd/oFMXxd+WxmxrIjpAi7IszLyvddJ9gL+hIWYLV++vGi72LHhjhfKL5PQXvwxrKyjyALSVkZgbLr44yPR5S9/Wb3nNnmz8W4QDsrFtxfDhTIKdfF/+2MSsZdvf/vbkS7ggy2jS+jpwjMZ2i7kwvKPLhBOyhw7NtuFUPgH5ey/R/7YOyZL8P6E9oLt+oQKXUJ7MY+k2Qt1C7iyLJPhQjn6B++Dby9mu9g/k2uwE3ShnkGelZHvvSY+C1v7h9kuH3nYCyTPbNfwIoxfJryLPi6+vWArhgtlZB8VvGeh7fo4+faC7Vr9Ai7UL9Q56EN96OvilzP5Ys1E0/vyyy93nIaLfRCH9iJPYilhNJ6gaxsj0OrE0M+fNb7lPImsD4dHww4qVr6eqZhYLuXMM890Z5xxRkRiqJTxkPiVL1+vEybsH9sxg0rUupz5EqZhGjdunNt+++2LY2NolKzCozGBVBx44DT3+uur17ujaxX9SXfDDTd0s2fPjvTxG0jC2MEXPDIuuuhbRdnogoeBypMGG8JAfrjaFzqNtTVC6MTsaLbr82da0zBRwSKHBhtcONEF/dDTbwjeeeedaCYk6xNalyK6mBeERtLXxcYMoavfCLEcCttp+Y04pMo8VaRPfqyMKDf09HFhnN0BB0yJCKB5aMinlRGN5FlnnRXJoFEyzyhlawd5YOYsM9l9j55vLzTYpovhgofGJ5o0dOx04c9uRhcrI7yaNJLIwW7AhUYW76LZCx5M1ihkNjw422ENtpEHKyPKi3ILbZc0mWnNLhV2YAf2oWS2iy4QYPMwURZWRoSnjJkl7e+YgS3Yh5K9R+hjulBG2JQdeOCwXQiPyeZquoCDby/2MUAZWnhksb7hAQccWGK75mXlw8jKCLIHVjzz32nKl+3kIKVmu34ZYR/YCXIoK7NdysgOcGF2M3L88b7YpdUvvr2AC7pgLz6xhKSNG7dPyexm+4DEk2i2Cz6QXuwFL5zZC2SKJXmYDezvsMKHIWF5ZyBUlA95MkJFvejrwi4r++8/0V199TWWzQgfGy7h2y4f1UZ6fdvl/TvttNOj1RP8iXuQcKvrDBf0YdFsbBfM/I/HP/7x2aicWf7G8gnmRnwpE3uP0MVsF13MXrjyPrOUjiaurCaLbUyNlHVDwCdRrX6fRhJpJFjcmLXr6A5ZteRa5FWjgqQCpaGkUeCeRtYnm1QsLNhr63X5y71QYVGR01DS7Thr1iw3evTo6DcNnzU+hGMvXRaLRs6AAdvEtqOj4WfSDN3NVHboQ6WJfr4nku5itqszXVjE1ydEEAJ0YawRDQsVOL99UoYuthUdclgI2ydE6EK6pA8mvi48s4MGinwgg/X8IJ3//Oe/osekYbqgA1116IQu4MVzDogQ8Sw/LDDudxOBPQ0q5UIXFbpwH+JC17+tZclCvjQqhgtXGjgrI+SYLjQ2VkboQsPFvtPow6Lcvi40dqYLjZPZC//5jQ+eDuIaLuiCbA7S8nWhjEwXcDFdWKLo4osvLdoLu5OwgLkd2IRfRkZg+M/3FvNBwdqThu+FF36zmAZlYLZrZYQNg5NP1gln2/Ahh/fIH7bg60L5mC7Ys/9BQYNv+xEjB8JiDTlp8L7wHqOLjwu6+Pbir03Igu7+Lh68t/ZhQTlDMrEXdDHbhWxgu7aDB3UDaxOuxj5uL74ueP9MF7xk1AW2liW6+IQIOzBdsBVwMdv1y4hudNvZifoBL6Fvu3hrzXZ9XXi/TGfsy3YrAlsWwn7rrbfNXCK9sFPeaUie/x4ZLgRmC0kW2Td7YfcVS4N8k38rI95ps5fwQ8sWGkcOi5XzftpBGZkuVkbohSfY/6Agrf79O3Z8QQ7bF9qBLrxHpov/TqOLEUo836eeOj8qI+pwKzuTA25gS/rsad/q7aSfP+MJurYxAr5BtPp9GkmkkmMrp459aHeJrX9HRU9ljheAk3u/e4OKmEaWBXchVqzcT0WOV8UOGjo8B1SEy5Ytc5MnT44aR2sAqfBpZEmfBpZGDhkQCb/yJN2tttoqqsRp3ENdWAeQxYOpMBctWhw1BMg888yzio2t6QIZpiFEPrpZ5chzdGHdSMghcpCHLv56iehCZY4eSbjQsNkOGuzLSr7QhbxZA0dakAR0QBd0QhfDBfzAlEaaChwPCThDgv3lirLKCP3YWYSFms8//8Jo9xXwJZ++LqSNDuQp1AV8INykP2bM3pE3Eb3AxSfQ4IJXz7cXv0uNhg0sIKp47tiBA138BbX9MkIXKyPDBXlLlpwW4UL6Zi/sivPOO6u3WEOXNNtFF7CExJx++pmRHVPuYGQH+aaMQnsxXXh30IWyZdvFefPmR/bCXuKvvPKqiYneGXAxe8F2fFwof3aPwdaWLl0WLXyOdx/MzTazdKHhBwvKhd1nOraA2yQqb9+7Z2VUThfCduyzvUVkf2DUYTsXFAkR+Tdc/DIy8mG6gC27iUDQKGc+cghvR6gL5eXjwvqILHYOvhCyXXfdLbJBvJt2JOkCmbIyIo0FCxZG6bP/OLigC/c+aaULmY8es92wjJiFzUL9vAN4RyGulBFDI+ygjCCVvr34ukC6Tj55XtF22RUHjKg3fW84uvjvUagLtgu5xF7IDx+jLKzNFqJWBqG9UCf5uoAPuGAv7D7je8AtPyKJbUyQlPVCodWJoZ+/NJJIhUCFQkVOhYFXhobfKhurMMIri8DuvvuoqJJjNwMOGgD70qYrkAraPxjfdeihhxb/opGlyxHSQAOA14PKy0gj6zdCRO3Yeuuto2Uq7Ldd6RJmyy70pwLnYNcL28Zr+fKzioTI4oRXMGDHDSreDk9Dx/63EBgaKciNTxTD+Pabrj92NyEOe9iSHzwjYEUDgzzzPlic8EpDST7QhXSty5uFrGngIH1pExWQR/m98MKL0T7N4ELXIOkaVsgBe79RDvXgN2WINxPd+SDANpADpsiARKRNVDCZNJzgahjwP1ixgwUNJQuGZ+lCo4W3j3T32GN01JCiC8QKIsOuERCurAMiZOTHupkhB+axAnsj0OVkYS98gFBG6ILHEMwZ14YuyAL/rIOF6NmfG4Jqu/JACoYP7/j4YlcPIzzlZIHb4sUdezePGLFL8eOKjzWwwovnL9qcJAfdedfMdqkPyCPlTbljQxC1LFwgOLz7lCnljVeVMoLMUPYQxSRC4uuELpQju/pQN2Ab/Idne+DA7SM59IBgD2kHtosupLvXXntHH3boj/eM/FBXYZdZB95a3kPKlW5oDrzMtvsK7xF5TDt4bjutsFUh3caUK1tCogsY+x7ocrIgztgLBNV2WWF4Dvphi/42geVkgAv7nVNGfNC8+27pJgvEFUkUU2prBHwS1er3WSSRCoFKjEago4EbHs1cLFfJUEHSfUnly3g5nwxCXqiQqdwhEv7hk0QqIDwfpIfXzu+SofKkcaQSozG3yjOJJNKw0aBSQdK4+0SDRpovbtLAo1euseV/JsRA7Kj4fV1oVCB2yEcWeS93vPzyK0ViSlcbDZsd6GINDQ16WmMLbjQcEEvLO3LoHrrssisi3CHzTKQpd3TosmskJ2zEIPPIhkBAZMs1cOjPc8qBfW99zy7lR9lTzpCBNELEriaUMWGxsb/+dXXjDsGEZPGMoQTlDsp1wYJFUThI8ksvvVwMCpnB64o9sk+175UpBlp1Q/ckulCe4OITDcodu8YO2A6x3EHZnXLKqatsd8eYdwx5fOQgv8PTWp4oQj7MI3TJJd+O2Sd2tu2220W60D2ZVkZ4vLEXvKmvvrqa9EDYIHvogqcTUl7uIO/2rtB1CaYc2ADxeEYZQbrK6UJ4PKukN378hFg5UEf4Hzm+RzHUiTLCvnlv2RLQf1cg82zxh+3iOSt3dBChU1cRxDExMog8CDT2Amb+cIhQ3oMPPhR9fBD2qquuidnLU089HdkShC1NF2yX7e/sXfHLCHuBPBph83eDCXVhwpVtI+mXEeHoXmZrVXTxt5cMZVCuJ554cqQLvQL+FpJhWHRTd3Nb06T2znyrE0M/f3lIIhUElT9eQSpnvDLMeks6ITtUajQYSQfeKogDjQWTP0zG8OHD3RZb9Il+H3jg1KiioiH1x5OZPIibdf327dvPHXnkUW7NNdeMBo2bvNmzj4z2daWBNA+ixbcrXguIA7qwtZfF9a82cBtdynlcIH2QBzwtpOvH5/7II+e4fv0GRB4hCEYSIYW84EmhgWMSSSiD31OmTI10hfiWI17oQqNFQ5okg/8oP8oRwpnUqONNw9OKLmw/mCSHbeYoZ7wcSQSDxhb5NH40Xkky+A89SSckzlZGEH0bM8m2dElywAUZdL0nNWzkcenSDqKPpyVJBuVmuEAQkw5ICB8m2Eu5MmLiAs/RJYlgQKzOOKPDo8hezthGqM/s2XMcnnIadX+Sla8TtthRRr2iCQqhDH5j0+jC8AafxPtybKgA3aW8R0lyGA+JNxOybQTRlwGhhWhS1uXKiO330AWdwTE8sBe8vtguntYkPfiPMiIdZgonvUd40wYPHhLJOeywwxPlYC+kwwdrkr1AgObPXxCR6yFDhibKwF7Y55n3iElYSQdk3rx4bJ2ZlKcJE/aLcKFb1594YvLII0SfdEgvyV7Ywg8SSLeyP/7QZHDlgwtcyTf1a5IukHfeabzL5TyIJlMksb05Utvn3idRrX6flyRSOdDYfve7HZNZqPCTTiohuoB8D6JVLHalwaIrw4+/xhprun//938v/kfl2tG1bbHiVypPvtBNxr/927+5ddZZr/jb/sdb4nsQ41Lcqq6rDu+RxQmvVM7+2K1QBhWmeRTDuP7vco2syYNAmzfAj+ffQ1bTPC3klW5SysGP59/TyIYeRNPBrng0bOykH9e/z+qqBBfzKPrx/Ht0YdwrYcsdNHBG5v24/j0eRN8LE8oyjyKNoB/Pv+cZ2KXpwiQSiK0fL7zH45xeRn+LvJFhvPA3HvMkUmZ5g5xBNMN4/m/KMK3blPeUdyQNF8oIIpREytAF4mtdz37a4T2zkP2xfpYPu2K7LFMD4Q/j2m/IUuhBtPh2xZNsH6IWL7xmecqo66xrPIxrv9GTJZh8b6bpYFc8iln2gifWX7XB4toVe+Qjx9Itdw09iBbfrnjt+aguF5//+bjJGq6CPHSSJ7HtqVL7AtDqxNDPXyUkkcqBBoFKBE9W0omHgzBZB1/NfnwmruCF4T/GHNEdlnWQDg0gcdhx5Wc/Y+Hc1XpljW8y+aRFmn5cu8+rC7LwSli88JrkEbX0/SuNNmQxjG+/k7wNfny7pxwsTniFpJdr8C0+V5b36KwupJNmL0wIyGMvLMES5sN+Q8jSPkosT6RDV7vFC6/+jGyLk3QFlzCu/QavNJLpy6McLF54Teta9GWk2S4y87xHyEuzXfTMU0YsZVTuPUIXf6kjPw/+fa3shYkYIab2O6+9oAtDOixeeGUyTZ4jTRfsJY1k+vL5WAp1sN95bfeLL9Js98XYep5+2uG9SGL78iPlvKCJK2GF0B2//TGJ1aSXNCaxGjmKIwSEgBAQAukIiCSKKrU1Ar6nrdXvzZOY96s4veqo/qlIYvXYKaYQEAJCoDsREElsa4qkzLc6MfTzZ4uzpo1b6o7KRySxO1BWGkJACAiBziPAMAZzMHz2+RdaTFu0qb0Q8ElUq98z+N1W7U+a6dr56iSfBJHEfDgplBAQAkKg3giwGgO74LAMUKu3kWH+2osNKbeJCIRG0cq/P/7k0+IXIQOj63WIJNYLeaUrBISAEMiPALPQbdvEp55+WiQxkUXoz5ZGoJVJYVLe2C0EbyJfhqztxTIVbMXWnecFF1zgpk+fXnWa/fr1i/TvTp2VVvfaiPAW3rKB+tkA2wriSLjvvvui9uKBBx5073/woUhiS7MhZS4RgSQi1cr/ff7Fl+6ZVd3ORhYhjN15nnDCCW6vvfaqOs1evXq5yy+/vOr43ZlXpdW9tiW8hbdsoDY2QPvA+dBDDzl6oVq5XSyXt0TSoD/bC4FyxtHq/7/51luOBVcffvjh6GuRxVK765w7d25EEqtNr3fv3u6KK67oNn2r1VPxus+mhLWwlg3UzgYeePBB99hvf+uee/559/HHn7QlQYQDtBcbUm4TEWh1MtiI+WPv1oNmzKi64unfv7+77/4Hqo7fiJhIpz+rPL8UBnoPZAONZAOJpEF/thcCjWSQ7aKLSKIagnaxdeVTti4baF4baC82pNwmIqAXuPtfYJHE7sdcdi7MZQOyAdlAZTaQSBr0Z3shoJemspemFniJJHY/5rUoN8lQuckGZAPtZAPtxYaU20QE2sngGyWvIolqaBrFFqWHbFE2IBsoZwOJpEF/thcC5YxD/3ddxSGS2HXYym6FrWxANiAbqI0NtBcbUm4TEdDLVJuXqRIcRRK7H/NKykdhVT6yAdmAbEBL4CSSpnb7Uy9C91eGIondj7nsXJjLBmQDsoHKbKDd+JDym4CAXprKXppa4CWS2P2Y16LcJEPlJhuQDbSTDSRQBv3Vbgi0k8E3Sl5FEtXQNIotSg/ZomxANlDOBtqNDym/CQiUMw7933UVh0hi12EruxW2sgHZgGygNjaQQBn0V7shoJepNi9TJTiKJHY/5pWUj8KqfGQDsgHZgCautBsfVH4bB4FDC4XCZZ1Q57FCobB1J+IrqhAQAkJACAgBISAEhEADIiCS2ICFIpWEgBAQAkJACAgBIVBvBEQS610CSl8ICAEhIASEgBAQAg2IgEhiAxaKVBICQkAICAEhIASEQL0REEmsdwkofSEgBISAEBACQkAINCACIokNWChSSQgIASEgBISAEBAC9UZAJLHeJaD0hYAQEAJCQAgIASHQgAiIJDZgoUglISAEhIAQEAJCQAjUGwGRxHqXgNIXAkJACAgBISAEhEADIiCS2ICFIpWEgBAQAkJACAgBIVBvBEQS610CSl8ICAEhIASEgBAQAg2IgEhiAxaKVBICQkAICAEhIASEQL0REEmsdwkofSEgBISAEBACQkAINCACIokNWChSSQgIASEgBISAEBAC9UZAJLHeJaD0hYAQEAJCQAgIASHQgAiIJDZgoUglISAEhIAQEAJCQAjUGwGRxHqXgNIXAkJACAgBISAEhEADIiCS2ICFIpWEgBAQAkJACAgBIVBvBEQS610CSl8ICAEhIASEgBAQAg2IgEhiAxaKVBICQkAICAEhIASEQL0REEmsdwkofSEgBISAEBACQkAINCACIokNWChSSQgIASEgBISAEBAC9UZAJLHeJaD0hYAQEAJCQAgIASHQgAiIJDZgoUglISAEhIAQEAJCQAjUGwGRxHqXgNIXAkJACAgBISAEhEADIiCS2ICFIpWEgBAQAkJACAgBIVBvBEQS610CSl8ICAEhIASEgBAQAg2IgEhiAxaKVBICQkAICAEhIASEQL0REEmsdwkofSEgBISAEBACQkAINCACIokNWChSSQgIASEgBISAEBAC9UZAJLHeJaD0hYAQEAJCQAgIASHQgAiIJDZgoUglISAEhIAQEAJCQAjUGwGRxHqXgNIXAkJACAgBISAEhEADIiCS2ICFIpWEgBAQAkJACAgBIVBvBEQS610CSl8ICAEhIASEgBAQAg2IgEhiAxaKVBICQkAICAEhIASEQL0REEmsdwkofSEgBISAEBACQkAINCACIokNWChSSQgIASEgBISAEBAC9UZAJLHeJaD0hYAQEAJCQAgIASHQgAiIJDZgoUglISAEhIAQEAJCQAjUGwGRxHqXgNIXAkJACAgBISAEhEADIiCS2ICFIpWEgBAQAkJACAgBIVBvBEQS610CSl8ICAEhIASEgBAQAg2IgEhiAxaKVBICQkAICAEhIASEQL0REEmsdwkofSEgBISAEBACQkAINCACIokNWChSSQgIASEgBISAEBAC9UZAJLHeJaD0hYAQEAJCQAgIASHQgAiIJDZgoUglISAEhIAQEAJCQAjUGwGRxHqXgNIXAkJACAgBISAEhEADIiCS2ICFIpWEgBAQAkJACAgBIVBvBEQS610CSl8ICAEhIASEgBAQAg2IgEhiAxaKVBICQkAICAEhIASEQL0REEmsdwkofSEgBISAEBACQkAINCACIokNWChSSQgIASEgBISAEBAC9UZAJLHeJaD0hYAQEAJCQAgIASHQgAiIJDZgoUglISAEhIAQEAJCQAjUGwGRxHqXgNIXAkJACAgBISAEhEADIiCS2ICFIpWEgBAQAkJACAgBIVBvBEQS610CSl8ICAEhIASEgBAQAg2IgEhiAxaKVBICQkAICAEhIASEQL0REEmsdwkofSEgBISAEBACQkAINCACIokNWChSSQgIASEgBISAEBAC9UZAJLHeJaD0hYAQEAJCQAgIASHQgAiIJDZgoUglISAEhIAQEAJCQAjUGwGRxHqXgNIXAkJACAgBISAEWhqBlYVCwTXpuaITJfNYoVDYuhPxFVUICAEhIASEgBAQAi2NAASxHQ+RxHYsdeVZCAgBISAEhIAQyI1Au5LEFwuFwmWFQmGxTmFQgQ0s8sL699iR/9u/r+RZaI+hHP95dz/z085z3936hen5v/17dPd/+/e1eJa78lVAISAEhECjI9CuJHEvr7HP0+ApjAi1bEA2kGUD7VqfNno7J/2EgBCoEgFValUCp2hCQAgIgQAB1acBIPopBIRAcyOgSq25y0/aCwEh0DgIqD5tnLKQJkJACNQAAVVqNQBRIoSAEBACq1aJEBBCQAgIgZZBQCSxZYpSGRECQqDOCKg+rXMBKHkhIARqi4AqtdriKWlCQAi0LwKqT9u37JVzIdCSCKhSa8liVaaEgBCoAwKqT+sAupIUAkKg6xBQpdZ12EqyEBAC7YWA6tP2Km/lVgi0PAKq1Fq+iJVBISAEugkB1afdBLSSEQJCoHsQUKXWPTgrFSEgBFofAdWnrV/GyqEQaCsEVKm1VXErs0JACHQhAqpPuxBciRYCQqD7EVCl1v2YK0UhIARaEwHVp61ZrsqVEGhbBFSptW3RK+NCQAjUGAHVpzUGVOKEgBCoLwKq1OqLv1IXAkKgdRBQfdo6ZamcCAEhoG2kZANCQAgIgZohIJJYMyglSAgIgUZAQJVaI5SCdBACQqAVEFB92gqlqDwIASFQRECVWhEK3QgBISAEOoWA6tNOwafIQkAINBoCqtQarUSkjxAQAs2KgOrTZi056S0EhEAiAqrUEmHRn0JACAiBihFQfVoxZIogBIRAIyOgSq2RS0e6CQEh0EwIqD5tptKSrkJACGQioEotEyIFEAJCQAjkQkD1aS6YFEgICIFmQUCVWrOUlPQUAkKg0RFQfdroJST9hIAQqAgBVWoVwaXAQkAICIGyCKg+LQuNHggBIdCMCKhSa8ZSk85CQAg0IgKqTxuxVKSTEBACVSOgSq1q6BRRCAgBIRBDQPVpDA79EAJCoNkRUKXW7CUo/YWAEGgUBFSfNkpJSA8hIARqgoAqtZrAKCFCQAgIgYLqUxmBEBACLYWAKrWWKk5lRggIgToioPq0juAraSEgBGqPgCq12mMqiUJACLQnAqpP27PclWsh0LIIqFJr2aJVxoSAEOhmBFSfdjPgSk4ICIGuRUCVWtfiK+lCQAi0DwKqT9unrJVTIdAWCKhSa4tiViaFgBDoBgRUn3YDyEpCCAiB7kNAlVr3Ya2UhIAQaG0EVJ+2dvkqd0Kg7RBQpdZ2Ra4MCwEh0EUIqD7tImAlVggIgfogoEqtPrgrVSEgBFoPAdWnrVemypEQaGsEVKm1dfEr80JACNQQAdWnNQRTooSAEKg/AqrU6l8G0kAICIHWQED1aWuUo3IhBITAKgRUqckUhIAQEAK1QUD1aW1wlBQhIAQaBAFVag1SEFJDCAiBpkdA9WnTF6EyIASEgI+AKjUfDd0LASEgBKpHQPVp9dgpphAQAg2IgCq1BiwUqSQEhEBTIqD6tCmLTUoLASFQDgFVauWQ0f9CQAgIgcoQUH1aGV4KLQSEQIMjoEqtwQtI6gkBIdA0CKg+bZqikqJCQAjkQUCVWh6UFEYICAEhkI2A6tNsjBRCCAiBJkJAlVoTFZZUFQJCoKERUH3a0MUj5YSAEKgUAVVqlSKm8EJACAiBZARUnybjon+FgBBoUgRUqTVpwUltISAEGg4B1acNVyRSSAgIgc4g0OiV2uLOZK6L4x7as2fPV7s4DYkXAkKgeRBo9Pq0eZCUpkJACDQEAo1eqTWkfv/xH/9x9SabbPJJoVBoSP0awrKkhBBoPwRUH7RfmSvHQqClEWj0Sq3R9Nv6K1/5ygvTpk370jmHbo2mX0sbqzInBBocAdUHDV5AUk8ICIHKEGj0Sq2R9DsUUnjZZZfBD6NDJLEyY1NoIdDiCDRSfdXiUCt7QkAIdAcCjV6pNYR+1r382GOPGT8USewO61QaQqC5EGiI+qq5IJO2QkAINDICjV6p1Vu/qHt5+vTpUfdyjCGqu7mR7Vq6CYF6IFDv+qoeeVaaQkAItDACjV6p1VO/ku5lkcQWfhNHM/UDAAAOaUlEQVSUNSHQeQTqWV91XntJEAJCQAgECDR6pVYX/ehe7tWr1ydh97JIYmA9+ikEhICPQF3qK18B3QsBISAEaolAo1dq3a1faveySGItTU+yhEDLIdDd9VXLAagMCQEh0FgINHql1p36ZXYviyQ2lvFKGyHQYAh0Z33VYFmXOkJACLQiAo1eqXWLfnm7l0USW/EVUJ6EQM0Q6Jb6qmbaSpAQEAJCIAOBRq/Uulq/irqXRRIzrEmPhUB7I9DV9VV7o6vcCwEh0O0INHql1pX6Vdy9LJLY7fapBIVAMyHQlfVVM+EgXYWAEGgRBBq9UusS/artXhZJbBGrVzaEQNcg0CX1VdeoKqlCQAgIgWwEGr1Sq7V+nepeFknMNiiFEAJtjECt66s2hlJZFwJCoBEQaPRKrZb6dbp7WSSxEUxWOgiBhkWglvVVw2ZSigkBIdA+CDR6pVYT/WrVvSyS2D4vhnIqBKpAoCb1VRXpKooQEAJCoEsQaPRKrbP61bR7WSSxS2xQQoVAqyDQ2fqqVXBQPoSAEGgRBBq9UuuMfjXvXhZJbBGrVzaEQNcg0Jn6qms0klQhIASEQCcQaPRKrSr9uqp7WSSxE5amqEKg9RGoqr5qfViUQyEgBJoVgUav1CrVr0u7l0USm9XMpXehUOhRKBRWrrpWA0izx68mz5XGqbS+qlS+wgsBISAEuhWBRq/UKtGvy7uXRRK71TaVWG0ROLZQKLxYKBS4VnM0e/xq8lxpnErqq0plK7wQEAJCoNsRaPRKLZd+3dW9LJLY7fapBGuHwO8LhcJxhUKBazVHs8evJs+VxslVX1UqVOGFgBAQAvVCoNErtSz9urV7WSSxXmaqdDuJwDCPHD5eKBSGVyiP+MTjaMb4q1Tv8ktWfdXlCigBISAEhEAtEWj0Si1Nv27vXhZJrKXpSVY3IvB9r5uZbmN+V3I0e/xK8tqZsGn1VWfkKq4QEAJCoC4INHqllqhfvbqXRRLrYqNKtHMI/GehUOA94soR/l71d9lLGD78XTbiqgdh+PB3V8fPkl/L54n1VS0TkCwhIASEQHci0OiVWqhfXbuXRRK70zSVVo0QSPIc+p7BrGSaPX5W/mr5PKyvailbsoSAEBAC3Y5Ao1dqvn51714WSex2+1SCnUcgaQyhP0YxKwUmrBDeP5opvq93V9/79VVXpyX5QkAICIEuR6DRK7VIv0bpXhZJ7HJ7VAK1RSCNzCWRxzD1Zo8f5qerfzd6fdrV+Zd8ISAEWgyBRq/U3Fe+8pUXpk+f/mVI0Brh96qxXi1mEspOCyGQ1q2c1I0cZr3Z44f56erfjV6fdnX+JV8ICIEWQ+CxQqHwVo6TnRqoALv9nDJlSiPwwUQd6oHHqjQpjzzl1iphyO/bhULhnVXnu4VCwc73CoUC55+88/1CocD5warzw0KhYOdHhUKB8+NV5yeFQsHOTwuFAudnq87PC4WCnV8UCgXOL73zz4VCgfMvq86/FgoFO/9WKBQ4/77q/EehULDzn4VCgfNfq87/LhQKdvKO1ep9Qw4TRZKOrAkkrfC8ljjmqftIT4cQEAJCoGUQWLtQKOQ965FpeRKTUc9bZq0Srn+hUFhr1fmNQqFg59cLhQLnmqvOrxUKBTvXKBQKnF9ddUJ67PxKoVDg/I9V5/9XKBTs/PdCocD5/646/59CoWDn/10oFDj/p3f+j0KhwPl/rTr/rVAo2Pl/FgoFzv9j1fm/FwoFO/+3QqHA+b+uOv+XQqFgZ3Kp1/7fZvcUdlb/2iMqiUJACAgBIdBtCPD1XtCYxG7DWwm1FwLNPuYwTf+kCTftVbrKrRAQAkKgxRGISOKqPGp2c4sXtrJXFwSSyFQa+QqVbPb4YX70WwgIASEgBJoEAZ8korLWSWySgpOaTYNA0gSWtG7cMGPNHj/Mj34LASEgBIRAkyAQksRI7Ubpfl41iaRJoJSaQiARgXCCSvg7MZL3Zxg+/O0FTbwNw4e/EyN5f4bhw99e0P+/vXsJkeWq4wD807xc+EqiRiSKxrmSaMQo0YVuNKioWYkgKOIFF0Gz85JNEnxAEHGpG1dCFBV1YRYaFIIbk4WSq7iTSCRRk/iOogZFA5F/cyqUZU9PT09PV3fXVzBUdZ2qOud8cxh+1KnqsUmAAAEC+yQwNyS2Do4+/Swk7tNQm3Rf+ncO590ZPApn188/qn/KCRAgQGALBRaFxGruqNPPQuIWjhhNWkWgnkGsL9euZZkv2W6HPr3a9fOf7ogNAgQIENgdgaNC4qwnY00/C4m7M5C09EiBegHlXJJar7Ls+vmr9Nk5BAgQIDCiwFIhsbVv49PPQuKII0PV6xaoaeYHk9R6lWXXz1+lz84hQIAAgREFjhMSq5mz6eezZ89u5N/4CYkjjgxVr1vgle0/vdR6lWXXz1+lz84hQIAAgREFjhsSZ03d1PSzkDjiyFA1AQIECBAgMGmBlUJiEzv16WchcdJjU+cJECBAgACBEQVOEhKr2ac6/SwkjjgyVE2AAAECBAhMWuCkIXGGd1rTz0LipMemzhMgQIAAAQIjCqwlJLb2r336WUgccWSomgABAgQIEJi0wDpDYkGudfpZSJz02NR5AgQIECBAYESBdYfEWVdq+vnMmTN/PX/+/FMnWYTEEUeGqgkQIECAAIFJC5xKSGyiJ55+FhInPTZ1ngABAgQIEBhR4DRDYnXrRNPPQuKII0PVBAgQIECAwKQFTjskznBXnX4WEic9NnWeAAECBAgQGFFgIyGx9e/Y089C4ogjQ9UECBAgQIDApAU2GRIL+ljTz0LipMemzhMgQIAAAQIjCmw6JM66uuz0s5A44shQNQECBAgQIDBpgVFCYhM/cvpZSJz02NR5AgQIECBAYESBMUNidXvh9LOQOOLIUDUBAgQIECAwaYGxQ+IM/7DpZyFx0mNT5wkQIECAAIERBbYiJLb+/9/0s5A44shQNQECBAgQILB3Ajcm+dSSvdqmkFhN/p/pZyFxyd+iwwgQIECAAAECRwhUQKzgV+tllm0LibM2d9PPQuIyv0LHECBAgAABAgQWCxw3INbVPr34kqOW3nRwcPDwqC1QOQECBAgQIEBgxwVWCYg73mXNJ0CAAAECBAgQmCfQ3QUUEOfp2EeAAAECBAgQmKhA9+xht17EUEFy2ZdZFl1HGQECBAgQIECAwJYLVDhcNiAuc9yWd1fzCBAgQIAAAQIElhF4qIXECoDd1PPwPFPRQxGfCWyPwAeS/DxJvaB1b5Kre01bVPbuJL9I8miSe5Jc0Tuvv3lxks8k+XWSv7V66m/Fhf2DbBMgQIDA9AQExOn9zvV4dwQOkjye5Exr8q1JftC2F5U9P8kfk1zfjv1Ekm8d0u07k9yX5KpW/qok9yf54iHH202AAAECeyzQ3VEUEPf4l6xreyHw3CSv6fXkuiS/aZ8Xlb0/yd29856T5Ikkl/T21eaVSf6T5BWD/XW38skkLxzs95EAAQIE9lyge/awW+95d3WPwN4I3JLkG4f0pl92e5IvDI77be+OZFf0niS/6j4M1nUn8obBPh8JECBAYM8FKhwKiHv+S9a9vRN4W3te8GVzejYsq2cMPzc4rp5Pfv1g39uT/HKwr/v4WJI3dx+sCRAgQGAaAsu8zDINCb0ksBsC721h7to5zZ1XdtucO4l/nnMn8QVtGvolg+vW84l/T1JT2hYCBAgQIECAAIEtFHhXkgeSvHxO2w4re1+S7/WOf1GSfyS5qLev2/x8kq92H9r620nuGOzzkQABAgQIECBAYEsE6k7eI0lePac9R5X9vvd282eTfHnONWpXfQXON5N8vZXflaTeeL7gkOPtJkCAAAECBAgQGFngbJJ/t6BYYbH7uTTJorJq9jva9yTWCyv1pvNlc/pyrn1VTn1HYr39XEu91VxvUNeLKze3fVYECBAgQIAAAQIECBAgQIAAAQIECBAgQIAAAQIECBAgQIAAAQIECBAgQIAAAQIECBAgQIAAAQIECBAgQIAAAQIECBAgQIAAAQIECBAgQIAAAQIECBAgQIAAAQIECBAgQIAAAQIECBAgQIAAAQIECBAgQIAAAQIECBAgQIAAAQIECBAgkFyX5ME5EBcmeSrJlQvKHk/yp8HPW5J059b/on20/W/Z7yZ505xr2UWAAAECBAgQILCFAicJifMCZHWxC4ld+bOSfCTJX5JUiLQQIECAAAECBAhsQOANSX6W5CtJ7mv13Zjk/iQ/TvL9JC/tteO2JA8k+WGS209wJ7ELgb1LzzaHIbErvzXJvd0HawIECBAgQIAAgdMVeG2SJ9rduqrpxW0K+KpW7c1J7m7b17Tp30vb5y9tMCRW3U8mubjVbUWAAAECBAgQIHCKAtcm+WeSC1odH07ynV59z27h7KIkH01yV6/snScIiX9I8rvez0/bdQ+7k/i89pxjF1B7zbBJgAABAgQIECCwboEKifWCSLfckqReKqkp6P7PFUlqqvnO7sAkbzxBSDzudPPVSf6V5Bm9+m0SIECAAAECBAickkCFxEd61/5QknqbeN7yscGdxHp2cdW3m48bEj85uMM5r332ESBAgAABAgQIrElgGBLrjmF9Nc1Bu/5be6Hxda3s8nZH72sbCInPTPLBdnez6rcQIECAAAECBAhsQGAYEqvKukP4k/bzoyT1BnS33JHkofb288eTPNwV9Nbdc4XD70K8ofcVN8OyCqbneuX1PYl1h7OeW7wnyfW969skQIAAAQIECBAgQIAAAQIECBAgQIAAAQIECBAgQIAAAQIECBAgQIAAAQIECBAgQIAAAQIECBAgQIAAAQIECBAgQIAAAQIECBAgQIAAAQIECBAgQIAAAQIECBAgQIAAAQIECBAgQIAAAQIECBAgQIAAAQIECBAgQIAAAQIECBAgQIAAAQIECBAgQIAAAQJ7K/BffeyjXVe99MUAAAAASUVORK5CYII=;" vertex="1" parent="1">
                    <mxGeometry x="30" y="40" width="649" height="696" as="geometry"/>
                </mxCell>
            </root>
        </mxGraphModel>
    </diagram>
</mxfile>